<?xml version="1.0" standalone="no"?>
<!DOCTYPE svg PUBLIC "-//W3C//DTD SVG 20010904//EN"
 "http://www.w3.org/TR/2001/REC-SVG-20010904/DTD/svg10.dtd">
<svg version="1.0" xmlns="http://www.w3.org/2000/svg"
 width="700.000000pt" height="700.000000pt" viewBox="0 0 700.000000 700.000000"
 preserveAspectRatio="xMidYMid meet">
<metadata>
Created by potrace 1.11, written by Peter Selinger 2001-2013
</metadata>
<g transform="translate(0.000000,700.000000) scale(0.100000,-0.100000)"
fill="#000000" stroke="none">
<path d="M3378 6993 c-3 -7 -2 -548 1 -594 1 -15 17 -17 121 -16 102 0 120 2
121 16 1 9 2 148 3 309 l1 292 -122 0 c-67 0 -123 -3 -125 -7z"/>
<path d="M3338 6215 c-2 -1 -37 -5 -78 -9 -267 -22 -574 -97 -805 -196 -162
-70 -417 -209 -490 -268 -5 -4 -32 -23 -60 -42 -134 -92 -344 -287 -474 -439
-337 -395 -562 -901 -626 -1406 -14 -109 -19 -214 -19 -355 0 -222 11 -342 51
-535 13 -66 27 -131 29 -145 9 -44 102 -314 129 -376 97 -219 254 -486 358
-612 224 -268 403 -434 637 -589 130 -87 165 -107 315 -181 152 -76 343 -150
455 -177 8 -2 40 -10 70 -18 47 -13 119 -27 135 -28 2 0 19 -4 36 -9 17 -5 57
-12 88 -16 31 -3 59 -8 62 -10 14 -8 206 -18 349 -18 161 0 290 8 382 24 29 5
70 12 91 15 220 32 556 146 782 266 136 72 379 227 405 258 3 3 38 32 77 64
354 282 665 728 827 1185 50 141 106 365 122 487 3 28 8 59 10 70 9 45 19 229
18 360 0 130 -11 322 -19 335 -2 3 -6 29 -9 58 -5 44 -19 117 -51 264 -7 34
-77 253 -90 283 -7 17 -19 46 -26 65 -19 51 -123 265 -165 340 -182 321 -489
653 -807 873 -298 207 -658 362 -989 427 -117 22 -134 25 -293 46 -46 6 -421
14 -427 9z"/>
<path d="M2 3500 l3 -124 290 -1 c160 0 298 1 307 3 15 4 17 18 15 125 l-2
121 -308 0 -308 1 3 -125z"/>
<path d="M6404 3622 c-20 -3 -21 -9 -22 -123 0 -103 2 -119 17 -120 9 -1 148
-2 309 -3 l293 -1 -3 124 -3 125 -285 0 c-157 1 -295 0 -306 -2z"/>
<path d="M3378 606 c-3 -9 -2 -555 1 -594 1 -10 29 -12 123 -10 l122 3 1 290
c0 160 -1 298 -3 307 -3 14 -19 17 -122 16 -79 0 -120 -4 -122 -12z"/>
</g>
</svg>
