<?xml version="1.0"?>
<!-- Created with Inkscape (http://www.inkscape.org/) -->
<svg xmlns:dc="http://purl.org/dc/elements/1.1/" xmlns:cc="http://creativecommons.org/ns#" xmlns:rdf="http://www.w3.org/1999/02/22-rdf-syntax-ns#" xmlns:svg="http://www.w3.org/2000/svg" xmlns="http://www.w3.org/2000/svg" xmlns:sodipodi="http://sodipodi.sourceforge.net/DTD/sodipodi-0.dtd" xmlns:inkscape="http://www.inkscape.org/namespaces/inkscape" width="516.41089mm" height="172.54926mm" viewBox="0 0 516.41087 172.54926" version="1.1" id="svg8" sodipodi:docname="parts.svg" inkscape:version="0.91 r13725">
  <defs id="defs2"/>
  <sodipodi:namedview id="base" pagecolor="#ffffff" bordercolor="#666666" borderopacity="1.0" inkscape:pageopacity="0.0" inkscape:pageshadow="2" inkscape:zoom="0.46768027" inkscape:cx="1048.1695" inkscape:cy="34.231527" inkscape:document-units="mm" inkscape:current-layer="layer3" showgrid="false" showguides="false" inkscape:guide-bbox="true" inkscape:window-width="1951" inkscape:window-height="1005" inkscape:window-x="695" inkscape:window-y="35" inkscape:window-maximized="0" fit-margin-top="15" fit-margin-left="15" fit-margin-right="15" fit-margin-bottom="15" inkscape:pagecheckerboard="false" showborder="true">
    <inkscape:grid type="xygrid" id="grid3713" units="mm" spacingx="0.5" spacingy="0.5" originx="193.68077" originy="15.049286"/>
    <sodipodi:guide position="295.079,82.061991" orientation="0,1" id="guide4653" inkscape:locked="false"/>
    <sodipodi:guide position="291.33722,148.04416" orientation="0,1" id="guide6453" inkscape:locked="false"/>
    <sodipodi:guide position="288.68082,72.549288" orientation="0,1" id="guide6455" inkscape:locked="false"/>
  </sodipodi:namedview>
  <metadata id="metadata5">
    <rdf:RDF>
      <cc:Work rdf:about="">
        <dc:format>image/svg+xml</dc:format>
        <dc:type rdf:resource="http://purl.org/dc/dcmitype/StillImage"/>
        <dc:title/>
      </cc:Work>
    </rdf:RDF>
  </metadata>
  <g inkscape:groupmode="layer" id="layer4" inkscape:label="icon-fill" style="display:inline" transform="translate(6.1121139,-1.8065489e-6)">
    <circle transform="translate(187.56873,-139.5)" style="display:inline;opacity:1;fill:#31b63f;fill-opacity:1;fill-rule:nonzero;stroke:none;stroke-width:6;stroke-linecap:square;stroke-linejoin:miter;stroke-miterlimit:4;stroke-dasharray:none;stroke-dashoffset:0;stroke-opacity:1" id="path3715-3" cy="197.01413" cx="82.479416" r="30.000002"/>
  </g>
  <g inkscape:label="icon" inkscape:groupmode="layer" id="layer1" transform="translate(193.68084,-139.5)" style="display:inline">
    <circle style="opacity:1;fill:none;fill-opacity:1;fill-rule:nonzero;stroke:#000000;stroke-width:11;stroke-linecap:square;stroke-linejoin:miter;stroke-miterlimit:4;stroke-dasharray:none;stroke-dashoffset:0;stroke-opacity:1" id="path3715" cy="197" cx="82.5" r="30"/>
    <path style="fill:none;fill-rule:evenodd;stroke:#000000;stroke-width:2.84604979;stroke-linecap:butt;stroke-linejoin:miter;stroke-miterlimit:4;stroke-dasharray:none;stroke-opacity:1" d="m 104.99997,197 -45,0" id="path4522" inkscape:connector-curvature="0" sodipodi:nodetypes="cc"/>
    <path style="fill:none;fill-rule:evenodd;stroke:#000000;stroke-width:2.84604979;stroke-linecap:butt;stroke-linejoin:miter;stroke-miterlimit:4;stroke-dasharray:none;stroke-opacity:1" d="m 82.5,219.49997 0,-45" id="path4522-6" inkscape:connector-curvature="0" sodipodi:nodetypes="cc"/>
    <path style="fill:none;fill-rule:evenodd;stroke:#000000;stroke-width:2.4494977;stroke-linecap:butt;stroke-linejoin:miter;stroke-miterlimit:4;stroke-dasharray:none;stroke-opacity:1" d="m 82.5,239.5 0,-5.00003" id="path4522-6-7" inkscape:connector-curvature="0" sodipodi:nodetypes="cc"/>
    <path style="fill:none;fill-rule:evenodd;stroke:#000000;stroke-width:2.44948173;stroke-linecap:butt;stroke-linejoin:miter;stroke-miterlimit:4;stroke-dasharray:none;stroke-opacity:1" d="M 82.5,159.49997 82.5,154.5" id="path4522-6-7-3" inkscape:connector-curvature="0" sodipodi:nodetypes="cc"/>
    <path style="fill:none;fill-rule:evenodd;stroke:#000000;stroke-width:2.44948244;stroke-linecap:butt;stroke-linejoin:miter;stroke-miterlimit:4;stroke-dasharray:none;stroke-opacity:1" d="m 40,197 4.99997,0" id="path4522-6-7-3-5" inkscape:connector-curvature="0" sodipodi:nodetypes="cc"/>
    <path style="fill:none;fill-rule:evenodd;stroke:#000000;stroke-width:2.44949698;stroke-linecap:butt;stroke-linejoin:miter;stroke-miterlimit:4;stroke-dasharray:none;stroke-opacity:1" d="M 119.99997,197 125,197" id="path4522-6-7-3-5-6" inkscape:connector-curvature="0" sodipodi:nodetypes="cc"/>
    <text xml:space="preserve" style="font-style:normal;font-variant:normal;font-weight:normal;font-stretch:normal;font-size:70.55554962px;line-height:125%;font-family:sans-serif;-inkscape-font-specification:'sans-serif, Normal';text-align:start;letter-spacing:0px;word-spacing:0px;writing-mode:lr-tb;text-anchor:start;fill:#000000;fill-opacity:1;stroke:none;stroke-width:0.26458332px;stroke-linecap:butt;stroke-linejoin:miter;stroke-opacity:1" x="309.99997" y="219.5" id="text4725" sodipodi:linespacing="125%">
      <tspan sodipodi:role="line" id="tspan4723" x="309.99997" y="219.5" style="stroke-width:0.26458332px"/>
    </text>
  </g>
  <g inkscape:groupmode="layer" id="layer3" inkscape:label="text" style="display:inline" transform="translate(5.9605039,-8.0654894e-7)">
    <g transform="translate(187.72035,-139.5)" style="font-style:normal;font-variant:normal;font-weight:normal;font-stretch:normal;font-size:79.72891235px;line-height:125%;font-family:'Rabbid Highway Sign II';-inkscape-font-specification:'Rabbid Highway Sign II, Normal';text-align:end;letter-spacing:0px;word-spacing:0px;writing-mode:lr-tb;text-anchor:end;display:inline;fill:#000000;fill-opacity:1;stroke:none;stroke-width:0.26458332px;stroke-linecap:butt;stroke-linejoin:miter;stroke-opacity:1" id="text4651-0">
      <path d="m -165.92424,206.31851 0,-0.95674 c 0,-7.17561 4.62428,-11.5607 10.7634,-11.64042 6.53777,0 10.92286,4.78373 10.92286,11.95933 0,7.33506 -4.62427,12.1188 -10.92286,12.1188 -5.97967,0 -10.7634,-4.38509 -10.7634,-11.48097 z m 10.44449,-24.15786 c -7.17561,0 -12.59717,2.4716 -16.34443,5.42157 -1.11621,0.31891 -1.67431,-1.11621 -2.15268,-0.31892 -1.9135,1.11621 -3.50807,2.39187 -4.70401,3.66753 l 0,56.5278 12.91609,0 -0.0797,-20.01196 c 3.90671,1.3554 8.21208,1.99323 11.79988,1.99323 12.27825,0 23.04165,-7.73371 23.04165,-23.20112 0,-7.49451 -5.02292,-24.07813 -24.47677,-24.07813 z" style="font-style:normal;font-variant:normal;font-weight:normal;font-stretch:normal;font-size:79.72891235px;line-height:125%;font-family:'Rabbid Highway Sign II';-inkscape-font-specification:'Rabbid Highway Sign II, Normal';text-align:end;writing-mode:lr-tb;text-anchor:end" id="path3446" inkscape:connector-curvature="0"/>
      <path d="m -114.96533,200.65776 c 0.79729,-4.78373 4.22563,-8.53099 9.56747,-8.53099 5.660754,0 9.487741,4.38509 9.886386,8.53099 l -19.453856,0 z m 20.64979,13.47419 c -2.312139,3.10942 -6.45804,4.78373 -10.52422,4.38509 -5.18238,-0.47838 -9.56747,-4.06618 -10.36476,-9.0891 l 32.369943,0 c 0,-16.90253 -7.972891,-27.34702 -22.802473,-27.34702 -11.72015,0 -22.80246,9.56747 -22.80246,23.67949 0,14.59039 11.8796,23.67949 23.67948,23.67949 12.357983,0 18.49711,-6.85669 21.128164,-12.91609 l -10.683674,-2.39186 z" style="font-style:normal;font-variant:normal;font-weight:normal;font-stretch:normal;font-size:79.72891235px;line-height:125%;font-family:'Rabbid Highway Sign II';-inkscape-font-specification:'Rabbid Highway Sign II, Normal';text-align:end;writing-mode:lr-tb;text-anchor:end" id="path3448" inkscape:connector-curvature="0"/>
      <path d="m -66.258761,182.63903 -12.916084,0 0,46.00358 12.916084,0 0,-23.83895 c 0,-3.50807 1.674307,-9.48774 7.972891,-10.36475 2.870241,-0.47838 5.421566,-0.0797 7.653976,0.31891 1.116205,0.15946 2.072951,0.31892 2.870241,0.31892 l 3.348614,-11.64042 c -0.797289,0 -2.710783,-0.79729 -5.740482,-1.27567 -1.116205,-0.0797 -2.391867,-0.15946 -3.826988,-0.15946 -5.421566,0.23919 -10.603945,3.34862 -12.278252,6.13913 l 0,-5.50129 z" style="font-style:normal;font-variant:normal;font-weight:normal;font-stretch:normal;font-size:79.72891235px;line-height:125%;font-family:'Rabbid Highway Sign II';-inkscape-font-specification:'Rabbid Highway Sign II, Normal';text-align:end;writing-mode:lr-tb;text-anchor:end" id="path3450" inkscape:connector-curvature="0"/>
      <path d="m -33.9646,185.27008 -6.458042,0 0,10.92286 6.378313,0 0,32.44967 12.836355,0 0.07973,-32.44967 9.248554,0 0,-10.92286 -9.248554,0 c 0,-5.89994 0.558102,-10.2053 4.066174,-10.84313 1.993223,-0.39865 3.986446,0.15946 5.022922,0.0797 l 2.8702407,-10.44449 c -1.6743067,0.0797 -5.5810237,-1.75404 -10.8431317,-1.43512 -10.444488,1.43512 -13.95256,9.24855 -13.95256,22.64301 z" style="font-style:normal;font-variant:normal;font-weight:normal;font-stretch:normal;font-size:79.72891235px;line-height:125%;font-family:'Rabbid Highway Sign II';-inkscape-font-specification:'Rabbid Highway Sign II, Normal';text-align:end;writing-mode:lr-tb;text-anchor:end" id="path3452" inkscape:connector-curvature="0"/>
      <path d="m 28.51269,179.05123 9.248554,-7.09588 c -4.38509,-6.0594 -14.351204,-9.56747 -21.845722,-9.56747 -11.8796076,0 -20.5700591,9.88639 -20.5700591,19.61331 0.079729,16.82281 30.6956311,18.09847 30.6956311,27.58621 0,4.30536 -3.66753,6.53777 -9.647198,6.53777 -5.89994,0 -12.039066,-2.94997 -14.8295779,-5.66075 l -8.9296382,7.81343 c 5.3418372,5.18238 15.467409,11.00259 24.1578601,11.00259 12.118795,0 22.244367,-8.84991 23.201114,-18.25792 0.159458,-0.63783 0.239187,-1.27566 0.239187,-1.91349 0,-18.7363 -31.7321075,-19.93223 -31.7321075,-27.42675 0.079729,-3.5878 3.3486145,-6.85669 8.7701805,-6.77696 4.704006,0.0797 7.653975,0.31892 11.241776,4.14591 z" style="font-style:normal;font-variant:normal;font-weight:normal;font-stretch:normal;font-size:79.72891235px;line-height:125%;font-family:'Rabbid Highway Sign II';-inkscape-font-specification:'Rabbid Highway Sign II, Normal';text-align:end;writing-mode:lr-tb;text-anchor:end" id="path3454" inkscape:connector-curvature="0"/>
    </g>
    <g style="font-style:normal;font-variant:normal;font-weight:normal;font-stretch:normal;font-size:88.90000153px;line-height:125%;font-family:sans-serif;-inkscape-font-specification:'sans-serif, Normal';text-align:start;letter-spacing:0px;word-spacing:0px;writing-mode:lr-tb;text-anchor:start;display:inline;fill:#000000;fill-opacity:1;stroke:none;stroke-width:0.26458332px;stroke-linecap:butt;stroke-linejoin:miter;stroke-opacity:1" id="text4651">
      <path d="m 317.35567,90.08902 13.39427,0 0,-37.392327 30.37628,32.528932 9.56733,4.863395 0,-65.61596 -13.31454,0 -0.15945,37.472055 -30.37628,-32.60866 -9.48761,-4.863395 0,65.61596 z" style="font-style:normal;font-variant:normal;font-weight:normal;font-stretch:normal;font-size:79.72777557px;font-family:'Rabbid Highway Sign II';-inkscape-font-specification:'Rabbid Highway Sign II, Normal';text-align:start;writing-mode:lr-tb;text-anchor:start;stroke-width:0.26458332px" id="path3439" inkscape:connector-curvature="0"/>
      <path d="m 411.99694,24.47306 -11.08216,0 -27.50609,65.61596 14.51046,0 5.26203,-13.314539 26.54935,0 5.34176,13.314539 14.43073,0 -27.50608,-65.61596 z m 2.71074,40.023344 -16.50365,0 8.21196,-20.0914 8.29169,20.0914 z" style="font-style:normal;font-variant:normal;font-weight:normal;font-stretch:normal;font-size:79.72777557px;font-family:'Rabbid Highway Sign II';-inkscape-font-specification:'Rabbid Highway Sign II, Normal';text-align:start;writing-mode:lr-tb;text-anchor:start;stroke-width:0.26458332px" id="path3441" inkscape:connector-curvature="0"/>
      <path d="m 443.14898,24.552788 0,65.536232 13.39426,0 0,-25.592616 c 1.51483,0 3.34857,-0.07973 5.18231,-0.07973 9.40787,7.653866 15.62664,21.048133 18.73602,25.752072 l 14.98883,0 c -3.02966,-5.262034 -13.23481,-22.642689 -18.81576,-28.064177 7.49441,-2.790473 14.19155,-8.849784 14.19155,-17.779294 0,-9.726789 -6.61741,-19.613033 -21.84542,-19.852217 l -25.83179,0.07973 z m 13.39426,28.303361 0,-16.742833 c 4.62421,0 9.08897,0.159455 13.07536,0.71755 5.50121,0.71755 7.41468,2.949927 7.41468,7.733594 0,4.544483 -4.70394,7.414683 -10.44434,7.89305 -3.26884,0.318911 -6.69713,0.398639 -10.0457,0.398639 z" style="font-style:normal;font-variant:normal;font-weight:normal;font-stretch:normal;font-size:79.72777557px;font-family:'Rabbid Highway Sign II';-inkscape-font-specification:'Rabbid Highway Sign II, Normal';text-align:start;writing-mode:lr-tb;text-anchor:start;stroke-width:0.26458332px" id="path3443" inkscape:connector-curvature="0"/>
    </g>
  </g>
  <g inkscape:groupmode="layer" id="layer2" inkscape:label="powered" style="display:inline" transform="translate(8.8328439,14.999993)">
    <g style="font-style:normal;font-variant:normal;font-weight:normal;font-stretch:normal;font-size:69.14444733px;line-height:125%;font-family:sans-serif;-inkscape-font-specification:'sans-serif, Normal';text-align:start;letter-spacing:0px;word-spacing:0px;writing-mode:lr-tb;text-anchor:start;fill:#000000;fill-opacity:1;stroke:none;stroke-width:0.26458332px;stroke-linecap:butt;stroke-linejoin:miter;stroke-opacity:1" id="text4651-0-4">
      <path d="m 264.3493,117.24665 0.0981,-0.58843 c 0.88265,-4.41325 4.26614,-7.11024 8.09096,-7.15928 4.02096,0 6.12951,2.94217 5.24686,7.35542 -0.93169,4.51132 -4.36421,7.45349 -8.23807,7.45349 -3.6777,0 -6.08047,-2.69699 -5.19782,-7.0612 z m 9.41493,-14.85794 c -4.41325,0 -8.09096,1.52012 -10.73891,3.33445 -0.73554,0.19615 -0.88265,-0.6865 -1.27494,-0.19614 -1.32397,0.68651 -2.4518,1.47108 -3.33445,2.25566 l -6.96313,34.7666 7.94385,0 2.40277,-12.30806 c 2.25566,0.83361 4.80554,1.2259 7.01216,1.2259 7.55156,0 15.10312,-4.7565 17.01553,-14.26951 0.93169,-4.60939 -0.0981,-14.8089 -12.06288,-14.8089 z" style="font-style:italic;font-variant:normal;font-weight:normal;font-stretch:normal;font-size:49.03610992px;font-family:'Rabbid Highway Sign II';-inkscape-font-specification:'Rabbid Highway Sign II, Normal';text-align:end;writing-mode:lr-tb;text-anchor:end;stroke-width:0.26458332px" id="path3424" inkscape:connector-curvature="0"/>
      <path d="m 296.91464,116.9034 c 0.88265,-4.21711 4.36421,-7.25735 8.23806,-7.25735 3.92289,0 6.22759,3.04024 5.34494,7.25735 -0.83361,4.2171 -4.31518,7.25734 -8.23807,7.25734 -3.87385,0.049 -6.17855,-3.04024 -5.34493,-7.25734 z m -8.04192,0 c -1.52012,7.64963 3.92288,14.56372 11.96481,14.56372 8.04192,0 16.18191,-6.91409 17.70203,-14.56372 1.52012,-7.6006 -3.82481,-14.56373 -11.86674,-14.56373 -7.99288,0 -16.23095,6.91409 -17.8001,14.56373 z" style="font-style:italic;font-variant:normal;font-weight:normal;font-stretch:normal;font-size:49.03610992px;font-family:'Rabbid Highway Sign II';-inkscape-font-specification:'Rabbid Highway Sign II, Normal';text-align:end;writing-mode:lr-tb;text-anchor:end;stroke-width:0.26458332px" id="path3426" inkscape:connector-curvature="0"/>
      <path d="m 334.77588,130.97676 9.61108,-15.74059 3.33445,15.74059 5.54108,0 17.06457,-28.29383 -8.77746,0 -8.63036,15.44637 -3.33445,-15.44637 -5.44301,0 -9.46397,15.44637 -2.50084,-15.44637 -8.77747,0 5.8353,28.29383 5.54108,0 z" style="font-style:italic;font-variant:normal;font-weight:normal;font-stretch:normal;font-size:49.03610992px;font-family:'Rabbid Highway Sign II';-inkscape-font-specification:'Rabbid Highway Sign II, Normal';text-align:end;writing-mode:lr-tb;text-anchor:end;stroke-width:0.26458332px" id="path3428" inkscape:connector-curvature="0"/>
      <path d="m 378.58581,113.76509 c 1.0788,-2.94217 3.67771,-5.24687 6.96313,-5.24687 3.48157,0 5.2959,2.69699 5.00169,5.24687 l -11.96482,0 z m 11.03313,8.2871 c -1.7653,1.91241 -4.56036,2.94217 -7.01216,2.69698 -3.08928,-0.29421 -5.34494,-2.50084 -5.24687,-5.59011 l 19.90866,0 c 2.10856,-10.39566 -1.52012,-16.81939 -10.64083,-16.81939 -7.20831,0 -15.2012,5.88434 -16.9665,14.56373 -1.7653,8.97361 4.41325,14.56372 11.6706,14.56372 7.60059,0 12.20999,-4.2171 14.56372,-7.94385 l -6.27662,-1.47108 z" style="font-style:italic;font-variant:normal;font-weight:normal;font-stretch:normal;font-size:49.03610992px;font-family:'Rabbid Highway Sign II';-inkscape-font-specification:'Rabbid Highway Sign II, Normal';text-align:end;writing-mode:lr-tb;text-anchor:end;stroke-width:0.26458332px" id="path3430" inkscape:connector-curvature="0"/>
      <path d="m 412.31576,102.68293 -7.94385,0 -5.63915,28.29383 7.94385,0 2.94217,-14.6618 c 0.44132,-2.15758 2.20662,-5.83529 6.17855,-6.37469 1.81433,-0.29422 3.33445,-0.049 4.65843,0.19614 0.6865,0.0981 1.2259,0.19615 1.71626,0.19615 l 3.48157,-7.15927 c -0.49037,0 -1.56916,-0.49036 -3.33446,-0.78458 -0.68651,-0.049 -1.47108,-0.0981 -2.35373,-0.0981 -3.38349,0.1471 -6.91409,2.05951 -8.28711,3.77578 l 0.63747,-3.38349 z" style="font-style:italic;font-variant:normal;font-weight:normal;font-stretch:normal;font-size:49.03610992px;font-family:'Rabbid Highway Sign II';-inkscape-font-specification:'Rabbid Highway Sign II, Normal';text-align:end;writing-mode:lr-tb;text-anchor:end;stroke-width:0.26458332px" id="path3432" inkscape:connector-curvature="0"/>
      <path d="m 434.6134,113.76509 c 1.0788,-2.94217 3.67771,-5.24687 6.96313,-5.24687 3.48156,0 5.2959,2.69699 5.00168,5.24687 l -11.96481,0 z m 11.03313,8.2871 c -1.7653,1.91241 -4.56036,2.94217 -7.01217,2.69698 -3.08927,-0.29421 -5.34493,-2.50084 -5.24686,-5.59011 l 19.90866,0 c 2.10855,-10.39566 -1.52012,-16.81939 -10.64084,-16.81939 -7.2083,0 -15.20119,5.88434 -16.96649,14.56373 -1.7653,8.97361 4.41325,14.56372 11.67059,14.56372 7.6006,0 12.21,-4.2171 14.56373,-7.94385 l -6.27662,-1.47108 z" style="font-style:italic;font-variant:normal;font-weight:normal;font-stretch:normal;font-size:49.03610992px;font-family:'Rabbid Highway Sign II';-inkscape-font-specification:'Rabbid Highway Sign II, Normal';text-align:end;writing-mode:lr-tb;text-anchor:end;stroke-width:0.26458332px" id="path3434" inkscape:connector-curvature="0"/>
      <path d="m 464.86179,116.9034 c 0.93168,-4.46229 4.36421,-7.40446 8.23806,-7.40446 3.43253,0.049 5.59012,2.35374 5.39398,6.03145 l -0.58844,2.84409 c -1.2259,3.62867 -4.31517,5.93337 -7.79674,5.93337 -4.02096,0 -6.12951,-2.94217 -5.24686,-7.40445 z m 26.87179,-28.14673 -7.94385,0 -2.89313,14.80891 c -1.81434,-0.78458 -3.87386,-1.22591 -5.88434,-1.22591 -1.42204,0 -2.79506,0.0981 -3.77578,0.29422 -6.47276,0.93169 -12.3571,6.42373 -14.17143,12.8965 -0.24518,0.78457 -0.39229,1.56915 -0.5394,2.35373 -0.93169,7.0612 2.9912,13.0436 9.75819,13.48493 0.93168,0.049 1.81433,0.049 2.64794,0.049 3.92289,-0.19615 7.0612,-1.37302 9.56205,-2.99121 0.0981,0.5394 -0.24518,2.20663 -0.29422,2.54988 l 5.09976,0 8.43421,-42.22009 z" style="font-style:italic;font-variant:normal;font-weight:normal;font-stretch:normal;font-size:49.03610992px;font-family:'Rabbid Highway Sign II';-inkscape-font-specification:'Rabbid Highway Sign II, Normal';text-align:end;writing-mode:lr-tb;text-anchor:end;stroke-width:0.26458332px" id="path3436" inkscape:connector-curvature="0"/>
    </g>
    <text xml:space="preserve" style="font-style:normal;font-variant:normal;font-weight:normal;font-stretch:normal;font-size:70.55554962px;line-height:125%;font-family:sans-serif;-inkscape-font-specification:'sans-serif, Normal';text-align:start;letter-spacing:0px;word-spacing:0px;writing-mode:lr-tb;text-anchor:start;fill:#000000;fill-opacity:1;stroke:none;stroke-width:0.26458332px;stroke-linecap:butt;stroke-linejoin:miter;stroke-opacity:1" x="363.98819" y="-165.55644" id="text6229" sodipodi:linespacing="125%">
      <tspan sodipodi:role="line" id="tspan6227" x="363.98819" y="-165.55644" style="stroke-width:0.26458332px"/>
    </text>
    <text xml:space="preserve" style="font-style:normal;font-variant:normal;font-weight:normal;font-stretch:normal;font-size:70.55554962px;line-height:125%;font-family:sans-serif;-inkscape-font-specification:'sans-serif, Normal';text-align:start;letter-spacing:0px;word-spacing:0px;writing-mode:lr-tb;text-anchor:start;fill:#000000;fill-opacity:1;stroke:none;stroke-width:0.26458332px;stroke-linecap:butt;stroke-linejoin:miter;stroke-opacity:1" x="557.34796" y="79.999977" id="text842" sodipodi:linespacing="125%">
      <tspan sodipodi:role="line" id="tspan840" x="557.34796" y="79.999977" style="stroke-width:0.26458332px"/>
    </text>
    <text xml:space="preserve" style="font-style:normal;font-variant:normal;font-weight:normal;font-stretch:normal;font-size:70.55554962px;line-height:125%;font-family:sans-serif;-inkscape-font-specification:'sans-serif, Normal';text-align:start;letter-spacing:0px;word-spacing:0px;writing-mode:lr-tb;text-anchor:start;fill:#000000;fill-opacity:1;stroke:none;stroke-width:0.26458332px;stroke-linecap:butt;stroke-linejoin:miter;stroke-opacity:1" x="403.32574" y="-263.63245" id="text846" sodipodi:linespacing="125%">
      <tspan sodipodi:role="line" id="tspan844" x="403.32574" y="-263.63245" style="stroke-width:0.26458332px"/>
    </text>
  </g>
</svg>
