<?xml version="1.0" encoding="UTF-8" standalone="no"?>
<!-- Created with Inkscape (http://www.inkscape.org/) -->

<svg
   width="523.59082mm"
   height="163.49506mm"
   viewBox="0 0 523.5908 163.49505"
   version="1.1"
   id="svg8"
   sodipodi:docname="parts.svg"
   inkscape:version="1.3.2 (091e20e, 2023-11-25)"
   xmlns:inkscape="http://www.inkscape.org/namespaces/inkscape"
   xmlns:sodipodi="http://sodipodi.sourceforge.net/DTD/sodipodi-0.dtd"
   xmlns="http://www.w3.org/2000/svg"
   xmlns:svg="http://www.w3.org/2000/svg"
   xmlns:rdf="http://www.w3.org/1999/02/22-rdf-syntax-ns#"
   xmlns:cc="http://creativecommons.org/ns#"
   xmlns:dc="http://purl.org/dc/elements/1.1/">
  <defs
     id="defs2" />
  <sodipodi:namedview
     id="base"
     pagecolor="#ffffff"
     bordercolor="#666666"
     borderopacity="1.0"
     inkscape:pageopacity="0.0"
     inkscape:pageshadow="2"
     inkscape:zoom="0.55454746"
     inkscape:cx="961.14407"
     inkscape:cy="528.35875"
     inkscape:document-units="mm"
     inkscape:current-layer="layer2"
     showgrid="false"
     showguides="false"
     inkscape:guide-bbox="true"
     inkscape:window-width="1952"
     inkscape:window-height="1005"
     inkscape:window-x="657"
     inkscape:window-y="44"
     inkscape:window-maximized="0"
     fit-margin-top="15"
     fit-margin-left="15"
     fit-margin-right="15"
     fit-margin-bottom="15"
     inkscape:pagecheckerboard="false"
     showborder="true"
     inkscape:showpageshadow="2"
     inkscape:deskcolor="#d1d1d1">
    <inkscape:grid
       type="xygrid"
       id="grid3713"
       units="mm"
       spacingx="0.5"
       spacingy="0.5"
       originx="198.59074"
       originy="15.049316"
       visible="false" />
    <sodipodi:guide
       position="299.98894,-182.35748"
       orientation="0,1"
       id="guide4653"
       inkscape:locked="false" />
    <sodipodi:guide
       position="296.24716,-116.37531"
       orientation="0,1"
       id="guide6453"
       inkscape:locked="false" />
    <sodipodi:guide
       position="293.59076,-191.87018"
       orientation="0,1"
       id="guide6455"
       inkscape:locked="false" />
    <inkscape:page
       x="0"
       y="0"
       width="523.59082"
       height="163.49504"
       id="page2"
       margin="14.999999"
       bleed="0" />
  </sodipodi:namedview>
  <metadata
     id="metadata5">
    <rdf:RDF>
      <cc:Work
         rdf:about="">
        <dc:format>image/svg+xml</dc:format>
        <dc:type
           rdf:resource="http://purl.org/dc/dcmitype/StillImage" />
      </cc:Work>
    </rdf:RDF>
  </metadata>
  <g
     inkscape:groupmode="layer"
     id="layer4"
     inkscape:label="icon-fill"
     style="display:inline"
     transform="translate(11.022083)">
    <circle
       transform="translate(187.56873,-139.5)"
       style="display:inline;opacity:1;fill:#31b63f;fill-opacity:1;fill-rule:nonzero;stroke:none;stroke-width:6;stroke-linecap:square;stroke-linejoin:miter;stroke-miterlimit:4;stroke-dasharray:none;stroke-dashoffset:0;stroke-opacity:1"
       id="path3715-3"
       cy="197.01413"
       cx="82.479416"
       r="30.000002" />
  </g>
  <g
     inkscape:label="icon"
     inkscape:groupmode="layer"
     id="layer1"
     transform="translate(198.59081,-139.5)"
     style="display:inline">
    <circle
       style="opacity:1;fill:none;fill-opacity:1;fill-rule:nonzero;stroke:#000000;stroke-width:11;stroke-linecap:square;stroke-linejoin:miter;stroke-miterlimit:4;stroke-dasharray:none;stroke-dashoffset:0;stroke-opacity:1"
       id="path3715"
       cy="197"
       cx="82.5"
       r="30" />
    <path
       style="fill:none;fill-rule:evenodd;stroke:#000000;stroke-width:2.84605;stroke-linecap:butt;stroke-linejoin:miter;stroke-miterlimit:4;stroke-dasharray:none;stroke-opacity:1"
       d="m 104.99997,197 h -45"
       id="path4522"
       inkscape:connector-curvature="0"
       sodipodi:nodetypes="cc" />
    <path
       style="fill:none;fill-rule:evenodd;stroke:#000000;stroke-width:2.84605;stroke-linecap:butt;stroke-linejoin:miter;stroke-miterlimit:4;stroke-dasharray:none;stroke-opacity:1"
       d="m 82.5,219.49997 v -45"
       id="path4522-6"
       inkscape:connector-curvature="0"
       sodipodi:nodetypes="cc" />
    <path
       style="fill:none;fill-rule:evenodd;stroke:#000000;stroke-width:2.4495;stroke-linecap:butt;stroke-linejoin:miter;stroke-miterlimit:4;stroke-dasharray:none;stroke-opacity:1"
       d="m 82.5,239.5 v -5.00003"
       id="path4522-6-7"
       inkscape:connector-curvature="0"
       sodipodi:nodetypes="cc" />
    <path
       style="fill:none;fill-rule:evenodd;stroke:#000000;stroke-width:2.44948;stroke-linecap:butt;stroke-linejoin:miter;stroke-miterlimit:4;stroke-dasharray:none;stroke-opacity:1"
       d="M 82.5,159.49997 V 154.5"
       id="path4522-6-7-3"
       inkscape:connector-curvature="0"
       sodipodi:nodetypes="cc" />
    <path
       style="fill:none;fill-rule:evenodd;stroke:#000000;stroke-width:2.44948;stroke-linecap:butt;stroke-linejoin:miter;stroke-miterlimit:4;stroke-dasharray:none;stroke-opacity:1"
       d="m 40,197 h 4.99997"
       id="path4522-6-7-3-5"
       inkscape:connector-curvature="0"
       sodipodi:nodetypes="cc" />
    <path
       style="fill:none;fill-rule:evenodd;stroke:#000000;stroke-width:2.4495;stroke-linecap:butt;stroke-linejoin:miter;stroke-miterlimit:4;stroke-dasharray:none;stroke-opacity:1"
       d="M 119.99997,197 H 125"
       id="path4522-6-7-3-5-6"
       inkscape:connector-curvature="0"
       sodipodi:nodetypes="cc" />
    <text
       xml:space="preserve"
       style="font-style:normal;font-variant:normal;font-weight:normal;font-stretch:normal;line-height:0%;font-family:sans-serif;-inkscape-font-specification:'sans-serif, Normal';text-align:start;letter-spacing:0px;word-spacing:0px;writing-mode:lr-tb;text-anchor:start;fill:#000000;fill-opacity:1;stroke:none;stroke-width:0.264583px;stroke-linecap:butt;stroke-linejoin:miter;stroke-opacity:1"
       x="309.99997"
       y="219.5"
       id="text4725"><tspan
         sodipodi:role="line"
         id="tspan4723"
         x="309.99997"
         y="219.5"
         style="font-size:70.5555px;line-height:1.25;stroke-width:0.264583px"> </tspan></text>
  </g>
  <g
     inkscape:groupmode="layer"
     id="layer3"
     inkscape:label="text"
     style="display:inline"
     transform="translate(10.870473)">
    <path
       style="font-size:80.3484px;line-height:125%;font-family:'Rabbid Highway Sign II';-inkscape-font-specification:'Rabbid Highway Sign II, Normal';text-align:end;letter-spacing:0px;word-spacing:0px;text-anchor:end;stroke-width:0.266639px"
       d="m 17.017356,65.666512 v -0.964181 c 0,-7.231356 4.660207,-11.650518 10.847033,-11.730866 6.588569,0 11.007731,4.820904 11.007731,12.052259 0,7.392053 -4.660207,12.212957 -11.007731,12.212957 -6.026129,0 -10.847033,-4.419162 -10.847033,-11.570169 z m 10.52564,-24.345565 c -7.231356,0 -12.695047,2.490801 -16.471421,5.463691 C 9.946697,47.106032 9.3842583,45.659761 8.9021679,46.463245 6.9738064,47.588122 5.3668384,48.873697 4.1616125,50.159271 V 107.12628 H 17.178053 l -0.08035,-20.167443 c 3.937072,1.365922 8.275885,2.008709 11.891563,2.008709 12.373653,0 23.220686,-7.793794 23.220686,-23.381383 0,-7.552749 -5.061948,-24.265216 -24.666956,-24.265216 z m 40.900785,18.640828 c 0.803483,-4.820903 4.258465,-8.597278 9.641807,-8.597278 5.704736,0 9.561459,4.419162 9.963201,8.597278 z m 20.810234,13.578879 c -2.330103,3.133588 -6.50822,4.820904 -10.605988,4.419162 -5.222646,-0.48209 -9.641808,-4.097768 -10.445292,-9.159717 h 32.621445 c 0,-17.03386 -8.034835,-27.5595 -22.979637,-27.5595 -11.811214,0 -22.979641,9.641808 -22.979641,23.863474 0,14.703756 11.971911,23.863473 23.863473,23.863473 12.454002,0 18.640828,-6.909962 21.292325,-13.01644 z M 117.62044,41.803038 H 104.604 v 46.361024 h 13.01644 v -24.02417 c 0,-3.535329 1.68732,-9.561459 8.03484,-10.445292 2.89255,-0.48209 5.46369,-0.08035 7.71345,0.321394 1.12488,0.160697 2.08906,0.321394 2.89254,0.321394 l 3.37463,-11.730866 c -0.80348,0 -2.73184,-0.803484 -5.78508,-1.285575 -1.12488,-0.08035 -2.41045,-0.160696 -3.85672,-0.160696 -5.46369,0.241045 -10.68634,3.374632 -12.37366,6.186826 z m 32.48731,2.651497 h -6.50822 v 11.00773 h 6.42787 v 32.701797 h 12.9361 l 0.0803,-32.701797 h 9.32042 v -11.00773 h -9.32042 c 0,-5.945781 0.56244,-10.284595 4.09777,-10.927382 2.00871,-0.401742 4.01742,0.160697 5.06195,0.08035 l 2.89254,-10.52564 c -1.68731,0.08035 -5.62438,-1.767664 -10.92738,-1.446271 -10.52564,1.446271 -14.06097,9.320414 -14.06097,22.818945 z m 54.7173,-12.373653 c 8.19553,0 10.20424,6.106478 10.20424,9.802504 0,12.212956 -31.09482,30.130649 -33.66597,41.459773 -0.24105,0.160697 -0.3214,0.241045 -0.3214,0.241045 v 4.579858 h 48.85183 V 75.790409 h -28.52368 c 0,-3.213935 28.92542,-16.230376 27.72019,-35.433642 -0.32139,-9.320414 -7.63309,-20.408493 -24.26521,-20.408493 -15.18585,0 -23.62243,15.105499 -23.62243,19.605009 l 12.05226,3.535329 c 0,-2.249755 4.33881,-11.00773 11.57017,-11.00773 z"
       id="text4651-0"
       transform="scale(0.99229011,1.0077698)"
       aria-label="perf2" />
    <path
       style="font-size:79.7278px;line-height:1.25;font-family:'Rabbid Highway Sign II';-inkscape-font-specification:'Rabbid Highway Sign II, Normal';letter-spacing:0px;word-spacing:0px;stroke-width:0.264583px"
       d="m 317.35567,90.08902 h 13.39427 V 52.696682 l 30.37629,32.528942 9.56734,4.863396 V 24.473042 h -13.31454 l -0.15946,37.472065 -30.37629,-32.60867 -9.48761,-4.863395 z m 94.59142,-65.615978 h -11.08216 l -27.5061,65.615978 h 14.51046 l 5.26204,-13.314543 h 26.54936 l 5.34176,13.314543 h 14.43073 z m 2.71074,40.023354 h -16.50365 l 8.21196,-20.091405 z M 443.1116,24.552769 V 90.08902 h 13.39427 V 64.496396 c 1.51483,0 3.34857,-0.07973 5.18231,-0.07973 9.40788,7.653868 15.62665,21.048138 18.73603,25.752079 h 14.98883 C 492.38338,84.90671 482.17822,67.52605 476.59728,62.10456 c 7.49441,-2.790473 14.19154,-8.849786 14.19154,-17.7793 0,-9.726791 -6.6174,-19.613038 -21.84541,-19.852221 z m 13.39427,28.303369 V 36.1133 c 4.62421,0 9.08897,0.159456 13.07536,0.71755 5.50122,0.717551 7.41468,2.949929 7.41468,7.733597 0,4.544484 -4.70394,7.414685 -10.44434,7.893052 -3.26884,0.318911 -6.69713,0.398639 -10.0457,0.398639 z"
       id="text4651"
       aria-label="NAR" />
  </g>
  <g
     inkscape:groupmode="layer"
     id="layer2"
     inkscape:label="powered"
     style="display:inline"
     transform="translate(13.742813,14.999999)">
    <path
       id="text4651-0-4"
       style="font-style:normal;font-variant:normal;font-weight:normal;font-stretch:normal;font-size:12.098px;line-height:0%;font-family:sans-serif;-inkscape-font-specification:'sans-serif, Normal';text-align:start;letter-spacing:0px;word-spacing:0px;writing-mode:lr-tb;text-anchor:start;fill:#000000;fill-opacity:1;stroke:none;stroke-width:0.266744px;stroke-linecap:butt;stroke-linejoin:miter;stroke-opacity:1"
       d="m 281.69412,91.778749 c -3.33446,0.14952 -6.52172,2.093084 -7.55148,3.837492 v -3.43855 h -7.94422 v 28.757929 h 7.94422 v -14.90244 c 0,-2.19298 1.02973,-5.93095 4.90357,-6.479195 1.7653,-0.299042 3.3342,-0.04973 4.70721,0.199471 0.6865,0.09968 1.27491,0.198954 1.76527,0.198954 l 2.05982,-7.276559 c -0.49036,0 -1.66768,-0.498325 -3.53105,-0.797367 -0.68651,-0.04984 -1.47069,-0.09973 -2.35334,-0.09973 z m -65.85594,0.05013 c -7.20829,0 -14.02395,5.980473 -14.02395,14.802191 0,9.12077 7.30613,14.80272 14.56345,14.80272 7.6006,0 11.37638,-4.28607 12.99456,-8.07393 l -6.57066,-1.49551 c -1.42204,1.94376 -3.97215,2.99063 -6.47298,2.74142 -3.18735,-0.29904 -5.88393,-2.54189 -6.3743,-5.68181 h 19.90835 c 0,-10.566136 -4.90376,-17.095081 -14.02447,-17.095081 z m 31.08907,0 c -0.68651,0 -1.27497,0.04938 -1.81437,0.09922 -7.11022,0.598082 -12.45505,7.127258 -12.45505,14.702981 0,7.57571 5.29579,14.10489 12.45505,14.70298 3.97193,0.29904 6.86518,-1.04634 9.07181,-3.18947 v 2.79104 h 7.8946 V 94.021506 c -0.98072,-0.299042 -2.05905,-0.548397 -3.18688,-0.747758 -0.39229,-0.04984 -1.02984,0.04995 -1.86345,0.19947 -2.9912,-1.246004 -7.2086,-1.694184 -10.10171,-1.644343 z m 54.08713,0.04961 c -5.54107,0 -9.75857,4.834517 -9.75857,8.921431 0.049,7.0773 12.259,7.92484 13.43587,11.21429 0.1471,0.0997 0.24546,0.19931 0.24546,0.34883 0,1.24599 -1.17715,2.29236 -3.82509,2.29236 -2.59891,0 -4.60893,-0.89717 -6.32519,-2.89078 l -4.95267,3.43907 c 2.10855,3.93736 7.30633,6.1805 12.06283,6.1805 5.88431,0 11.22928,-4.33628 11.22928,-9.22063 0.049,-8.07412 -14.12265,-8.42323 -14.12265,-11.66286 0,-1.146319 0.83344,-2.192629 2.99103,-2.192629 2.20663,0 3.97199,0.548184 5.8844,2.242769 l 4.56045,-3.339343 c -2.54989,-3.438977 -7.25708,-5.333008 -11.42515,-5.333008 z m -132.74125,0.398943 9.07179,19.138368 1.32396,2.44222 c -0.5394,5.83133 -3.08925,11.46317 -7.60057,16.19797 l 5.73711,3.43907 c 9.75819,-10.41661 13.97551,-19.73649 23.04717,-41.217628 h -8.87542 l -6.61975,15.151008 -7.20835,-15.151008 z m 47.71234,5.831168 c 3.48154,0 5.83558,2.74132 6.08076,5.33302 h -11.96516 c 0.49036,-2.99043 2.59898,-5.33302 5.8844,-5.33302 z m 31.62856,0.996838 c 3.8248,0.04984 6.66883,2.990172 6.66883,7.525642 v 0.14987 c -0.049,4.43577 -2.74596,7.37629 -6.66883,7.37629 -4.02096,0 -6.71795,-2.9907 -6.71795,-7.52616 0,-4.53547 2.8441,-7.525642 6.71795,-7.525642 z" />
    <text
       xml:space="preserve"
       style="font-style:normal;font-variant:normal;font-weight:normal;font-stretch:normal;line-height:0%;font-family:sans-serif;-inkscape-font-specification:'sans-serif, Normal';text-align:start;letter-spacing:0px;word-spacing:0px;writing-mode:lr-tb;text-anchor:start;fill:#000000;fill-opacity:1;stroke:none;stroke-width:0.264583px;stroke-linecap:butt;stroke-linejoin:miter;stroke-opacity:1"
       x="363.98819"
       y="-165.55644"
       id="text6229"><tspan
         sodipodi:role="line"
         id="tspan6227"
         x="363.98819"
         y="-165.55644"
         style="font-size:70.5555px;line-height:1.25;stroke-width:0.264583px"> </tspan></text>
    <text
       xml:space="preserve"
       style="font-style:normal;font-variant:normal;font-weight:normal;font-stretch:normal;line-height:0%;font-family:sans-serif;-inkscape-font-specification:'sans-serif, Normal';text-align:start;letter-spacing:0px;word-spacing:0px;writing-mode:lr-tb;text-anchor:start;fill:#000000;fill-opacity:1;stroke:none;stroke-width:0.264583px;stroke-linecap:butt;stroke-linejoin:miter;stroke-opacity:1"
       x="557.34796"
       y="79.999977"
       id="text842"><tspan
         sodipodi:role="line"
         id="tspan840"
         x="557.34796"
         y="79.999977"
         style="font-size:70.5555px;line-height:1.25;stroke-width:0.264583px"> </tspan></text>
    <text
       xml:space="preserve"
       style="font-style:normal;font-variant:normal;font-weight:normal;font-stretch:normal;line-height:0%;font-family:sans-serif;-inkscape-font-specification:'sans-serif, Normal';text-align:start;letter-spacing:0px;word-spacing:0px;writing-mode:lr-tb;text-anchor:start;fill:#000000;fill-opacity:1;stroke:none;stroke-width:0.264583px;stroke-linecap:butt;stroke-linejoin:miter;stroke-opacity:1"
       x="403.32574"
       y="-263.63245"
       id="text846"><tspan
         sodipodi:role="line"
         id="tspan844"
         x="403.32574"
         y="-263.63245"
         style="font-size:70.5555px;line-height:1.25;stroke-width:0.264583px"> </tspan></text>
  </g>
</svg>
