<?xml version="1.0"?>
<!-- Created with Inkscape (http://www.inkscape.org/) -->
<svg xmlns:dc="http://purl.org/dc/elements/1.1/" xmlns:cc="http://creativecommons.org/ns#" xmlns:rdf="http://www.w3.org/1999/02/22-rdf-syntax-ns#" xmlns:svg="http://www.w3.org/2000/svg" xmlns="http://www.w3.org/2000/svg" xmlns:sodipodi="http://sodipodi.sourceforge.net/DTD/sodipodi-0.dtd" xmlns:inkscape="http://www.inkscape.org/namespaces/inkscape" width="511.23532mm" height="167.44614mm" viewBox="0 0 511.2353 167.44614" version="1.1" id="svg8" sodipodi:docname="parts.svg" inkscape:version="0.92.4 (unknown)">
  <defs id="defs2"/>
  <sodipodi:namedview id="base" pagecolor="#ffffff" bordercolor="#666666" borderopacity="1.0" inkscape:pageopacity="0.0" inkscape:pageshadow="2" inkscape:zoom="0.5406168" inkscape:cx="1091.9473" inkscape:cy="38.781335" inkscape:document-units="mm" inkscape:current-layer="text4651-0-4" showgrid="false" showguides="false" inkscape:guide-bbox="true" inkscape:window-width="1951" inkscape:window-height="1005" inkscape:window-x="55" inkscape:window-y="45" inkscape:window-maximized="0" fit-margin-top="15" fit-margin-left="15" fit-margin-right="15" fit-margin-bottom="15" inkscape:pagecheckerboard="false" showborder="true">
    <inkscape:grid type="xygrid" id="grid3713" units="mm" spacingx="0.5" spacingy="0.5" originx="193.77904" originy="9.9461602"/>
    <sodipodi:guide position="295.17726,76.958869" orientation="0,1" id="guide4653" inkscape:locked="false"/>
    <sodipodi:guide position="291.43548,142.94104" orientation="0,1" id="guide6453" inkscape:locked="false"/>
    <sodipodi:guide position="288.77908,67.446165" orientation="0,1" id="guide6455" inkscape:locked="false"/>
  </sodipodi:namedview>
  <metadata id="metadata5">
    <rdf:RDF>
      <cc:Work rdf:about="">
        <dc:format>image/svg+xml</dc:format>
        <dc:type rdf:resource="http://purl.org/dc/dcmitype/StillImage"/>
        <dc:title/>
      </cc:Work>
    </rdf:RDF>
  </metadata>
  <g inkscape:label="icon" inkscape:groupmode="layer" id="layer1" transform="translate(193.77909,-139.5)" style="display:inline">
    <circle style="opacity:1;fill:none;fill-opacity:1;fill-rule:nonzero;stroke:#000000;stroke-width:6;stroke-linecap:square;stroke-linejoin:miter;stroke-miterlimit:4;stroke-dasharray:none;stroke-dashoffset:0;stroke-opacity:1" id="path3715" cy="197" cx="82.5" r="30"/>
    <path style="fill:none;fill-rule:evenodd;stroke:#000000;stroke-width:3;stroke-linecap:butt;stroke-linejoin:miter;stroke-miterlimit:4;stroke-dasharray:none;stroke-opacity:1" d="m 107.5,197 h -50" id="path4522" inkscape:connector-curvature="0" sodipodi:nodetypes="cc"/>
    <path style="fill:none;fill-rule:evenodd;stroke:#000000;stroke-width:3;stroke-linecap:butt;stroke-linejoin:miter;stroke-miterlimit:4;stroke-dasharray:none;stroke-opacity:1" d="M 82.5,222 V 172" id="path4522-6" inkscape:connector-curvature="0" sodipodi:nodetypes="cc"/>
    <path style="fill:none;fill-rule:evenodd;stroke:#000000;stroke-width:3;stroke-linecap:butt;stroke-linejoin:miter;stroke-miterlimit:4;stroke-dasharray:none;stroke-opacity:1" d="M 82.5,239.5 V 232" id="path4522-6-7" inkscape:connector-curvature="0" sodipodi:nodetypes="cc"/>
    <path style="fill:none;fill-rule:evenodd;stroke:#000000;stroke-width:3;stroke-linecap:butt;stroke-linejoin:miter;stroke-miterlimit:4;stroke-dasharray:none;stroke-opacity:1" d="m 82.5,162 v -7.5" id="path4522-6-7-3" inkscape:connector-curvature="0" sodipodi:nodetypes="cc"/>
    <path style="fill:none;fill-rule:evenodd;stroke:#000000;stroke-width:3;stroke-linecap:butt;stroke-linejoin:miter;stroke-miterlimit:4;stroke-dasharray:none;stroke-opacity:1" d="m 40,197 h 7.5" id="path4522-6-7-3-5" inkscape:connector-curvature="0" sodipodi:nodetypes="cc"/>
    <path style="fill:none;fill-rule:evenodd;stroke:#000000;stroke-width:3;stroke-linecap:butt;stroke-linejoin:miter;stroke-miterlimit:4;stroke-dasharray:none;stroke-opacity:1" d="M 117.5,197 H 125" id="path4522-6-7-3-5-6" inkscape:connector-curvature="0" sodipodi:nodetypes="cc"/>
    <text xml:space="preserve" style="font-style:normal;font-variant:normal;font-weight:normal;font-stretch:normal;font-size:70.55554962px;line-height:125%;font-family:sans-serif;-inkscape-font-specification:'sans-serif, Normal';font-variant-ligatures:normal;font-variant-caps:normal;font-variant-numeric:normal;font-feature-settings:normal;text-align:start;letter-spacing:0px;word-spacing:0px;writing-mode:lr-tb;text-anchor:start;fill:#000000;fill-opacity:1;stroke:none;stroke-width:0.26458332px;stroke-linecap:butt;stroke-linejoin:miter;stroke-opacity:1" x="309.99997" y="219.5" id="text4725">
      <tspan sodipodi:role="line" id="tspan4723" x="309.99997" y="281.92511" style="stroke-width:0.26458332px"/>
    </text>
  </g>
  <g inkscape:groupmode="layer" id="layer3" inkscape:label="text" style="display:inline">
    <g aria-label="NAR" transform="translate(193.77909,-139.5)" style="font-style:normal;font-variant:normal;font-weight:normal;font-stretch:normal;font-size:88.90000153px;line-height:125%;font-family:sans-serif;-inkscape-font-specification:'sans-serif, Normal';font-variant-ligatures:normal;font-variant-caps:normal;font-variant-numeric:normal;font-feature-settings:normal;text-align:start;letter-spacing:0px;word-spacing:0px;writing-mode:lr-tb;text-anchor:start;display:inline;fill:#000000;fill-opacity:1;stroke:none;stroke-width:0.26458332px;stroke-linecap:butt;stroke-linejoin:miter;stroke-opacity:1" id="text4651">
      <path d="m 127.38634,164.98058 h 11.80703 l 28.73623,54.21685 v -54.21685 h 8.50801 v 64.80845 h -11.80703 l -28.73623,-54.21684 v 54.21684 h -8.50801 z" style="font-style:normal;font-variant:normal;font-weight:normal;font-stretch:normal;font-size:88.90000153px;font-family:'DejaVu Sans';-inkscape-font-specification:'DejaVu Sans, Normal';font-variant-ligatures:normal;font-variant-caps:normal;font-variant-numeric:normal;font-feature-settings:normal;text-align:start;writing-mode:lr-tb;text-anchor:start;stroke-width:0.26458332px" id="path851" inkscape:connector-curvature="0"/>
      <path d="m 213.94479,173.61882 -11.89385,32.25229 h 23.8311 z m -4.94854,-8.63824 h 9.94048 l 24.69927,64.80845 h -9.11572 l -5.90352,-16.62534 h -29.21372 l -5.90352,16.62534 h -9.24594 z" style="font-style:normal;font-variant:normal;font-weight:normal;font-stretch:normal;font-size:88.90000153px;font-family:'DejaVu Sans';-inkscape-font-specification:'DejaVu Sans, Normal';font-variant-ligatures:normal;font-variant-caps:normal;font-variant-numeric:normal;font-feature-settings:normal;text-align:start;writing-mode:lr-tb;text-anchor:start;stroke-width:0.26458332px" id="path853" inkscape:connector-curvature="0"/>
      <path d="m 282.18496,199.40329 q 2.82154,0.95498 5.46944,4.08037 2.69131,3.12539 5.38261,8.59482 l 8.89869,17.71055 h -9.41958 l -8.29097,-16.62534 q -3.21221,-6.51123 -6.25078,-8.63823 -2.99517,-2.127 -8.20415,-2.127 h -9.54981 v 27.39057 h -8.76846 v -64.80845 h 19.79415 q 11.1125,0 16.58193,4.64468 5.46943,4.64468 5.46943,14.02085 0,6.12056 -2.86494,10.15752 -2.82153,4.03696 -8.24756,5.59966 z m -21.96455,-27.21694 v 23.00634 h 11.02569 q 6.33759,0 9.5498,-2.90835 3.25562,-2.95175 3.25562,-8.63823 0,-5.68647 -3.25562,-8.55141 -3.21221,-2.90835 -9.5498,-2.90835 z" style="font-style:normal;font-variant:normal;font-weight:normal;font-stretch:normal;font-size:88.90000153px;font-family:'DejaVu Sans';-inkscape-font-specification:'DejaVu Sans, Normal';font-variant-ligatures:normal;font-variant-caps:normal;font-variant-numeric:normal;font-feature-settings:normal;text-align:start;writing-mode:lr-tb;text-anchor:start;stroke-width:0.26458332px" id="path855" inkscape:connector-curvature="0"/>
    </g>
    <g aria-label="perfS" transform="translate(193.77909,-139.5)" style="font-style:normal;font-variant:normal;font-weight:normal;font-stretch:normal;font-size:88.90000153px;line-height:125%;font-family:'DejaVu Sans';-inkscape-font-specification:'DejaVu Sans, Normal';font-variant-ligatures:normal;font-variant-caps:normal;font-variant-numeric:normal;font-feature-settings:normal;text-align:end;letter-spacing:0px;word-spacing:0px;writing-mode:lr-tb;text-anchor:end;display:inline;fill:#000000;fill-opacity:1;stroke:none;stroke-width:0.26458332px;stroke-linecap:butt;stroke-linejoin:miter;stroke-opacity:1" id="text4651-0">
      <path d="m -170.74857,221.35003 v 25.78447 h -8.03052 v -67.10908 h 8.03052 v 7.37939 q 2.51767,-4.34082 6.33759,-6.42441 3.86333,-2.127 9.20254,-2.127 8.85528,0 14.36812,7.03213 5.55625,7.03213 5.55625,18.49189 0,11.45977 -5.55625,18.4919 -5.51284,7.03213 -14.36812,7.03213 -5.33921,0 -9.20254,-2.0836 -3.81992,-2.127 -6.33759,-6.46782 z m 27.17353,-16.97261 q 0,-8.81186 -3.64629,-13.80381 -3.60288,-5.03535 -9.94048,-5.03535 -6.33759,0 -9.98388,5.03535 -3.60288,4.99195 -3.60288,13.80381 0,8.81187 3.60288,13.84722 3.64629,4.99194 9.98388,4.99194 6.3376,0 9.94048,-4.99194 3.64629,-5.03535 3.64629,-13.84722 z" id="path840" inkscape:connector-curvature="0"/>
      <path d="m -85.270363,202.33724 v 3.90674 H -121.9937 q 0.52089,8.24755 4.94853,12.58837 4.47105,4.29742 12.41475,4.29742 4.60127,0 8.89868,-1.12862 4.34082,-1.12861 8.594824,-3.38584 v 7.55303 q -4.297412,1.82315 -8.811865,2.77813 -4.514449,0.95498 -9.159129,0.95498 -11.6334,0 -18.44849,-6.77168 -6.77168,-6.77168 -6.77168,-18.31827 0,-11.93725 6.42442,-18.92597 6.46782,-7.03213 17.40669,-7.03213 9.810249,0 15.496724,6.3376 5.729883,6.29419 5.729883,17.14624 z m -7.98711,-2.34405 q -0.08682,-6.55463 -3.689697,-10.46137 -3.55947,-3.90674 -9.46299,-3.90674 -6.68486,0 -10.72182,3.77651 -3.99356,3.77652 -4.60127,10.63501 z" id="path842" inkscape:connector-curvature="0"/>
      <path d="m -48.800014,187.49163 q -1.345655,-0.78135 -2.951758,-1.12861 -1.562696,-0.39068 -3.472656,-0.39068 -6.77168,0 -10.417969,4.42764 -3.602881,4.38423 -3.602881,12.63179 v 25.61084 h -8.030518 v -48.61719 h 8.030518 v 7.55303 q 2.517675,-4.42764 6.554638,-6.55464 4.036963,-2.17041 9.810255,-2.17041 0.824755,0 1.823144,0.13022 0.998389,0.0868 2.213818,0.30386 z" id="path844" inkscape:connector-curvature="0"/>
      <path d="m -13.050268,161.09944 v 6.64146 h -7.639844 q -4.297412,0 -5.990332,1.73633 -1.649511,1.73632 -1.649511,6.25078 v 4.29741 h 13.152685 v 6.20737 h -13.152685 v 42.40982 h -8.030518 v -42.40982 h -7.639844 v -6.20737 h 7.639844 v -3.38584 q 0,-8.11733 3.776514,-11.80703 3.776513,-3.73311 11.980664,-3.73311 z" id="path846" inkscape:connector-curvature="0"/>
      <path d="m 33.857872,165.96116 v 8.55142 q -4.991944,-2.38745 -9.419581,-3.55947 -4.427636,-1.17203 -8.551416,-1.17203 -7.1623534,0 -11.0690918,2.77813 -3.86333011,2.77812 -3.86333011,7.90029 0,4.29741 2.56108401,6.51123 2.6044922,2.17041 9.8102539,3.51607 l 5.295801,1.0852 q 9.810254,1.86656 14.454932,6.59805 4.688086,4.68809 4.688086,12.58838 0,9.41958 -6.337598,14.2813 -6.294189,4.86172 -18.491895,4.86172 -4.6012693,0 -9.8102537,-1.0418 -5.1655763,-1.0418 -10.7218264,-3.08198 v -9.02891 q 5.3392091,2.99517 10.4613772,4.51445 5.122168,1.51929 10.0707029,1.51929 7.50962,0 11.589991,-2.95176 4.080371,-2.95175 4.080371,-8.42119 0,-4.7749 -2.951758,-7.46621 -2.90835,-2.69131 -9.593213,-4.03696 l -5.339209,-1.0418 q -9.81025412,-1.95337 -14.1944827,-6.12056 -4.3842286,-4.16718 -4.3842286,-11.58999 0,-8.59482 6.0337403,-13.54336 6.0771486,-4.94853 16.712159,-4.94853 4.557861,0 9.289355,0.82475 4.731494,0.82476 9.68003,2.47427 z" id="path848" inkscape:connector-curvature="0"/>
    </g>
  </g>
  <g inkscape:groupmode="layer" id="layer2" inkscape:label="powered" style="display:inline" transform="translate(8.9310851,14.999994)">
    <g aria-label="powered" style="font-style:normal;font-variant:normal;font-weight:normal;font-stretch:normal;font-size:70.55555725px;line-height:125%;font-family:sans-serif;-inkscape-font-specification:'sans-serif, Normal';font-variant-ligatures:normal;font-variant-caps:normal;font-variant-numeric:normal;font-feature-settings:normal;text-align:start;letter-spacing:0px;word-spacing:0px;writing-mode:lr-tb;text-anchor:start;fill:#000000;fill-opacity:1;stroke:none;stroke-width:0.26458332px;stroke-linecap:butt;stroke-linejoin:miter;stroke-opacity:1" id="text4651-0-4">
      <path d="m 270.91582,121.74012 v 15.70602 h -4.8916 V 96.568187 h 4.8916 v 4.494993 q 1.53359,-2.644116 3.8604,-3.913289 2.35326,-1.295614 5.60552,-1.295614 5.39398,0 8.75201,4.283463 3.38446,4.28346 3.38446,11.26391 0,6.98045 -3.38446,11.26391 -3.35803,4.28346 -8.75201,4.28346 -3.25226,0 -5.60552,-1.26917 -2.32681,-1.29562 -3.8604,-3.93973 z m 16.55214,-10.33847 q 0,-5.36755 -2.22106,-8.40827 -2.19461,-3.067173 -6.05501,-3.067173 -3.8604,0 -6.08146,3.067173 -2.19461,3.04072 -2.19461,8.40827 0,5.36754 2.19461,8.43471 2.22106,3.04073 6.08146,3.04073 3.8604,0 6.05501,-3.04073 2.22106,-3.06717 2.22106,-8.43471 z" style="font-style:normal;font-variant:normal;font-weight:normal;font-stretch:normal;font-size:54.15139008px;font-family:'DejaVu Sans';-inkscape-font-specification:'DejaVu Sans, Normal';font-variant-ligatures:normal;font-variant-caps:normal;font-variant-numeric:normal;font-feature-settings:normal;text-align:start;writing-mode:lr-tb;text-anchor:start;stroke-width:0.26458332px" id="path858" inkscape:connector-curvature="0"/>
      <path d="m 311.30223,99.97909 q -3.91328,0 -6.18721,3.06717 -2.27394,3.04073 -2.27394,8.35539 0,5.31466 2.24749,8.38183 2.27394,3.04073 6.21366,3.04073 3.88685,0 6.16078,-3.06717 2.27394,-3.06717 2.27394,-8.35539 0,-5.26178 -2.27394,-8.32895 -2.27393,-3.09361 -6.16078,-3.09361 z m 0,-4.124813 q 6.34587,0 9.9683,4.124813 3.62243,4.12481 3.62243,11.42256 0,7.2713 -3.62243,11.42256 -3.62243,4.12481 -9.9683,4.12481 -6.3723,0 -9.99473,-4.12481 -3.596,-4.15126 -3.596,-11.42256 0,-7.29775 3.596,-11.42256 3.62243,-4.124813 9.99473,-4.124813 z" style="font-style:normal;font-variant:normal;font-weight:normal;font-stretch:normal;font-size:54.15139008px;font-family:'DejaVu Sans';-inkscape-font-specification:'DejaVu Sans, Normal';font-variant-ligatures:normal;font-variant-caps:normal;font-variant-numeric:normal;font-feature-settings:normal;text-align:start;writing-mode:lr-tb;text-anchor:start;stroke-width:0.26458332px" id="path860" inkscape:connector-curvature="0"/>
      <path d="m 328.40096,96.568187 h 4.86517 l 6.08145,23.109533 6.05502,-23.109533 h 5.73772 l 6.08145,23.109533 6.05502,-23.109533 h 4.86516 l -7.74724,29.614043 h -5.73772 l -6.37231,-24.27294 -6.39875,24.27294 h -5.73772 z" style="font-style:normal;font-variant:normal;font-weight:normal;font-stretch:normal;font-size:54.15139008px;font-family:'DejaVu Sans';-inkscape-font-specification:'DejaVu Sans, Normal';font-variant-ligatures:normal;font-variant-caps:normal;font-variant-numeric:normal;font-feature-settings:normal;text-align:start;writing-mode:lr-tb;text-anchor:start;stroke-width:0.26458332px" id="path862" inkscape:connector-curvature="0"/>
      <path d="m 400.49807,110.15892 v 2.3797 h -22.36918 q 0.3173,5.02381 3.01429,7.66792 2.72343,2.61767 7.56216,2.61767 2.80275,0 5.42042,-0.68747 2.64411,-0.68747 5.23534,-2.06241 v 4.60075 q -2.61767,1.11053 -5.36754,1.69224 -2.74988,0.5817 -5.57908,0.5817 -7.08621,0 -11.23747,-4.12481 -4.12481,-4.12482 -4.12481,-11.15815 0,-7.27131 3.91328,-11.52832 3.93973,-4.283463 10.60289,-4.283463 5.97569,0 9.43947,3.860402 3.49023,3.833961 3.49023,10.444241 z m -4.86516,-1.42782 q -0.0529,-3.99261 -2.2475,-6.37231 -2.16817,-2.3797 -5.76416,-2.3797 -4.07193,0 -6.53095,2.30038 -2.43259,2.30037 -2.80276,6.47807 z" style="font-style:normal;font-variant:normal;font-weight:normal;font-stretch:normal;font-size:54.15139008px;font-family:'DejaVu Sans';-inkscape-font-specification:'DejaVu Sans, Normal';font-variant-ligatures:normal;font-variant-caps:normal;font-variant-numeric:normal;font-feature-settings:normal;text-align:start;writing-mode:lr-tb;text-anchor:start;stroke-width:0.26458332px" id="path864" inkscape:connector-curvature="0"/>
      <path d="m 425.64356,101.11606 q -0.81968,-0.47594 -1.798,-0.68747 -0.95188,-0.23797 -2.11529,-0.23797 -4.12481,0 -6.34586,2.69699 -2.19462,2.67055 -2.19462,7.69436 v 15.60026 h -4.8916 V 96.568187 h 4.8916 v 4.600753 q 1.53359,-2.696994 3.99261,-3.992608 2.45902,-1.322055 5.97569,-1.322055 0.50238,0 1.11053,0.07932 0.60814,0.05288 1.34849,0.185088 z" style="font-style:normal;font-variant:normal;font-weight:normal;font-stretch:normal;font-size:54.15139008px;font-family:'DejaVu Sans';-inkscape-font-specification:'DejaVu Sans, Normal';font-variant-ligatures:normal;font-variant-caps:normal;font-variant-numeric:normal;font-feature-settings:normal;text-align:start;writing-mode:lr-tb;text-anchor:start;stroke-width:0.26458332px" id="path866" inkscape:connector-curvature="0"/>
      <path d="m 454.96675,110.15892 v 2.3797 h -22.36918 q 0.3173,5.02381 3.01429,7.66792 2.72343,2.61767 7.56216,2.61767 2.80275,0 5.42042,-0.68747 2.64411,-0.68747 5.23534,-2.06241 v 4.60075 q -2.61767,1.11053 -5.36754,1.69224 -2.74988,0.5817 -5.57908,0.5817 -7.08621,0 -11.23747,-4.12481 -4.12481,-4.12482 -4.12481,-11.15815 0,-7.27131 3.91328,-11.52832 3.93973,-4.283463 10.60289,-4.283463 5.97569,0 9.43947,3.860402 3.49023,3.833961 3.49023,10.444241 z m -4.86516,-1.42782 q -0.0529,-3.99261 -2.2475,-6.37231 -2.16817,-2.3797 -5.76416,-2.3797 -4.07193,0 -6.53095,2.30038 -2.43258,2.30037 -2.80276,6.47807 z" style="font-style:normal;font-variant:normal;font-weight:normal;font-stretch:normal;font-size:54.15139008px;font-family:'DejaVu Sans';-inkscape-font-specification:'DejaVu Sans, Normal';font-variant-ligatures:normal;font-variant-caps:normal;font-variant-numeric:normal;font-feature-settings:normal;text-align:start;writing-mode:lr-tb;text-anchor:start;stroke-width:0.26458332px" id="path868" inkscape:connector-curvature="0"/>
      <path d="M 482.43906,101.06318 V 85.039863 h 4.86517 v 41.142367 h -4.86517 v -4.44211 q -1.53358,2.64411 -3.88684,3.93973 -2.32682,1.26917 -5.60552,1.26917 -5.36754,0 -8.752,-4.28346 -3.35802,-4.28346 -3.35802,-11.26391 0,-6.98045 3.35802,-11.26391 3.38446,-4.283463 8.752,-4.283463 3.2787,0 5.60552,1.295614 2.35326,1.269173 3.88684,3.913289 z m -16.57857,10.33847 q 0,5.36754 2.19461,8.43471 2.22105,3.04073 6.08145,3.04073 3.86041,0 6.08146,-3.04073 2.22105,-3.06717 2.22105,-8.43471 0,-5.36755 -2.22105,-8.40827 -2.22105,-3.067173 -6.08146,-3.067173 -3.8604,0 -6.08145,3.067173 -2.19461,3.04072 -2.19461,8.40827 z" style="font-style:normal;font-variant:normal;font-weight:normal;font-stretch:normal;font-size:54.15139008px;font-family:'DejaVu Sans';-inkscape-font-specification:'DejaVu Sans, Normal';font-variant-ligatures:normal;font-variant-caps:normal;font-variant-numeric:normal;font-feature-settings:normal;text-align:start;writing-mode:lr-tb;text-anchor:start;stroke-width:0.26458332px" id="path870" inkscape:connector-curvature="0"/>
    </g>
    <text xml:space="preserve" style="font-style:normal;font-variant:normal;font-weight:normal;font-stretch:normal;font-size:70.55554962px;line-height:125%;font-family:sans-serif;-inkscape-font-specification:'sans-serif, Normal';font-variant-ligatures:normal;font-variant-caps:normal;font-variant-numeric:normal;font-feature-settings:normal;text-align:start;letter-spacing:0px;word-spacing:0px;writing-mode:lr-tb;text-anchor:start;fill:#000000;fill-opacity:1;stroke:none;stroke-width:0.26458332px;stroke-linecap:butt;stroke-linejoin:miter;stroke-opacity:1" x="363.98819" y="-165.55644" id="text6229">
      <tspan sodipodi:role="line" id="tspan6227" x="363.98819" y="-103.13132" style="stroke-width:0.26458332px"/>
    </text>
  </g>
</svg>
