<?xml version="1.0"?>
<svg xmlns:dc="http://purl.org/dc/elements/1.1/" xmlns:cc="http://creativecommons.org/ns#" xmlns:rdf="http://www.w3.org/1999/02/22-rdf-syntax-ns#" xmlns:svg="http://www.w3.org/2000/svg" xmlns="http://www.w3.org/2000/svg" xmlns:sodipodi="http://sodipodi.sourceforge.net/DTD/sodipodi-0.dtd" xmlns:inkscape="http://www.inkscape.org/namespaces/inkscape" width="527.2135mm" height="122.95863mm" viewBox="0 0 527.21348 122.95864" version="1.1" id="svg8" sodipodi:docname="parts-text.svg" inkscape:version="1.0.1 (c497b03c, 2020-09-10)">
  <defs id="defs2"/>
  <sodipodi:namedview id="base" pagecolor="#ffffff" bordercolor="#666666" borderopacity="1.0" inkscape:pageopacity="0.0" inkscape:pageshadow="2" inkscape:zoom="0.23384014" inkscape:cx="607.64364" inkscape:cy="316.16488" inkscape:document-units="mm" inkscape:current-layer="text4651-0" showgrid="false" showguides="false" inkscape:guide-bbox="true" inkscape:window-width="1493" inkscape:window-height="1005" inkscape:window-x="681" inkscape:window-y="45" inkscape:window-maximized="0" fit-margin-top="15" fit-margin-left="15" fit-margin-right="15" fit-margin-bottom="15" inkscape:pagecheckerboard="false" showborder="true" inkscape:document-rotation="0">
    <inkscape:grid type="xygrid" id="grid3713" units="mm" spacingx="0.5" spacingy="0.5" originx="202.21345" originy="15.049343"/>
    <sodipodi:guide position="303.61169,32.471358" orientation="0,1" id="guide4653" inkscape:locked="false"/>
    <sodipodi:guide position="299.86991,-165.17893" orientation="0,1" id="guide6453" inkscape:locked="false"/>
    <sodipodi:guide position="297.21351,22.958656" orientation="0,1" id="guide6455" inkscape:locked="false"/>
  </sodipodi:namedview>
  <metadata id="metadata5">
    <rdf:RDF>
      <cc:Work rdf:about="">
        <dc:format>image/svg+xml</dc:format>
        <dc:type rdf:resource="http://purl.org/dc/dcmitype/StillImage"/>
        <dc:title/>
      </cc:Work>
    </rdf:RDF>
  </metadata>
  <g inkscape:groupmode="layer" id="layer4" inkscape:label="icon-fill" style="display:inline" transform="translate(14.644797)">
    <circle transform="translate(187.56873,-139.5)" style="display:inline;opacity:1;fill:#31b63f;fill-opacity:0.75;fill-rule:nonzero;stroke:none;stroke-width:6;stroke-linecap:square;stroke-linejoin:miter;stroke-miterlimit:4;stroke-dasharray:none;stroke-dashoffset:0;stroke-opacity:1" id="path3715-3" cy="197.01413" cx="82.479416" r="30.000002"/>
  </g>
  <g inkscape:label="icon" inkscape:groupmode="layer" id="layer1" transform="translate(202.21352,-139.5)" style="display:inline">
    <circle style="opacity:1;fill:none;fill-opacity:1;fill-rule:nonzero;stroke:#000000;stroke-width:11;stroke-linecap:square;stroke-linejoin:miter;stroke-miterlimit:4;stroke-dasharray:none;stroke-dashoffset:0;stroke-opacity:1" id="path3715" cy="197" cx="82.5" r="30"/>
    <path style="fill:none;fill-rule:evenodd;stroke:#000000;stroke-width:2.84605;stroke-linecap:butt;stroke-linejoin:miter;stroke-miterlimit:4;stroke-dasharray:none;stroke-opacity:1" d="m 104.99997,197 h -45" id="path4522" inkscape:connector-curvature="0" sodipodi:nodetypes="cc"/>
    <path style="fill:none;fill-rule:evenodd;stroke:#000000;stroke-width:2.84605;stroke-linecap:butt;stroke-linejoin:miter;stroke-miterlimit:4;stroke-dasharray:none;stroke-opacity:1" d="m 82.5,219.49997 v -45" id="path4522-6" inkscape:connector-curvature="0" sodipodi:nodetypes="cc"/>
    <path style="fill:none;fill-rule:evenodd;stroke:#000000;stroke-width:2.4495;stroke-linecap:butt;stroke-linejoin:miter;stroke-miterlimit:4;stroke-dasharray:none;stroke-opacity:1" d="m 82.5,239.5 v -5.00003" id="path4522-6-7" inkscape:connector-curvature="0" sodipodi:nodetypes="cc"/>
    <path style="fill:none;fill-rule:evenodd;stroke:#000000;stroke-width:2.44948;stroke-linecap:butt;stroke-linejoin:miter;stroke-miterlimit:4;stroke-dasharray:none;stroke-opacity:1" d="M 82.5,159.49997 V 154.5" id="path4522-6-7-3" inkscape:connector-curvature="0" sodipodi:nodetypes="cc"/>
    <path style="fill:none;fill-rule:evenodd;stroke:#000000;stroke-width:2.44948;stroke-linecap:butt;stroke-linejoin:miter;stroke-miterlimit:4;stroke-dasharray:none;stroke-opacity:1" d="m 40,197 h 4.99997" id="path4522-6-7-3-5" inkscape:connector-curvature="0" sodipodi:nodetypes="cc"/>
    <path style="fill:none;fill-rule:evenodd;stroke:#000000;stroke-width:2.4495;stroke-linecap:butt;stroke-linejoin:miter;stroke-miterlimit:4;stroke-dasharray:none;stroke-opacity:1" d="M 119.99997,197 H 125" id="path4522-6-7-3-5-6" inkscape:connector-curvature="0" sodipodi:nodetypes="cc"/>
    <text xml:space="preserve" style="font-style:normal;font-variant:normal;font-weight:normal;font-stretch:normal;line-height:0%;font-family:sans-serif;-inkscape-font-specification:'sans-serif, Normal';text-align:start;letter-spacing:0px;word-spacing:0px;writing-mode:lr-tb;text-anchor:start;fill:#000000;fill-opacity:1;stroke:none;stroke-width:0.264583px;stroke-linecap:butt;stroke-linejoin:miter;stroke-opacity:1" x="309.99997" y="219.5" id="text4725">
      <tspan sodipodi:role="line" id="tspan4723" x="309.99997" y="219.5" style="font-size:70.5555px;line-height:1.25;stroke-width:0.264583px"> </tspan>
    </text>
  </g>
  <g inkscape:groupmode="layer" id="layer3" inkscape:label="text" style="display:inline" transform="translate(14.493187)">
    <g aria-label="perf5" id="text4651-0" style="font-style:normal;font-variant:normal;font-weight:normal;font-stretch:normal;line-height:0%;font-family:'Rabbid Highway Sign II';-inkscape-font-specification:'Rabbid Highway Sign II, Normal';text-align:end;letter-spacing:0px;word-spacing:0px;writing-mode:lr-tb;text-anchor:end;display:inline;fill:#000000;fill-opacity:1;stroke:none;stroke-width:0.264583px;stroke-linecap:butt;stroke-linejoin:miter;stroke-opacity:1">
      <path d="m 13.263437,66.818517 v -0.956746 c 0,-7.175601 4.624276,-11.56069 10.763401,-11.640419 6.53777,0 10.922859,4.783734 10.922859,11.959334 0,7.335059 -4.624276,12.118793 -10.922859,12.118793 -5.979667,0 -10.763401,-4.38509 -10.763401,-11.480962 z M 23.707923,42.660662 c -7.175601,0 -12.597166,2.471595 -16.3444244,5.421565 C 6.2472941,48.401142 5.6891918,46.966022 5.2108184,47.763311 3.2973249,48.879516 1.702747,50.155178 0.5068135,51.43084 v 56.52779 H 13.422895 l -0.07973,-20.011955 c 3.906716,1.355391 8.212076,1.993223 11.799877,1.993223 12.27825,0 23.041651,-7.733703 23.041651,-23.201109 0,-7.494517 -5.022921,-24.078127 -24.47677,-24.078127 z" style="font-style:normal;font-variant:normal;font-weight:normal;font-stretch:normal;font-size:79.7289px;line-height:125%;font-family:'Rabbid Highway Sign II';-inkscape-font-specification:'Rabbid Highway Sign II, Normal';text-align:end;writing-mode:lr-tb;text-anchor:end" id="path991"/>
      <path d="m 64.222338,61.157766 c 0.797289,-4.783734 4.225631,-8.530992 9.567467,-8.530992 5.660752,0 9.487739,4.385089 9.886384,8.530992 z m 20.649784,13.474183 c -2.312138,3.109427 -6.458041,4.783734 -10.524214,4.38509 -5.182379,-0.478374 -9.567468,-4.066174 -10.364757,-9.089095 h 32.369932 c 0,-16.902526 -7.972889,-27.347011 -22.802464,-27.347011 -11.720148,0 -22.802465,9.567467 -22.802465,23.679482 0,14.590388 11.879606,23.679483 23.679483,23.679483 12.357979,0 18.497104,-6.856686 21.128157,-12.916082 z" style="font-style:normal;font-variant:normal;font-weight:normal;font-stretch:normal;font-size:79.7289px;line-height:125%;font-family:'Rabbid Highway Sign II';-inkscape-font-specification:'Rabbid Highway Sign II, Normal';text-align:end;writing-mode:lr-tb;text-anchor:end" id="path993"/>
      <path d="m 113.08462,43.139035 h -12.91608 v 46.003574 h 12.91608 V 65.303668 c 0,-3.508071 1.6743,-9.487738 7.97289,-10.364756 2.87024,-0.478374 5.42156,-0.07973 7.65397,0.318915 1.11621,0.159458 2.07295,0.318916 2.87024,0.318916 l 3.34862,-11.640419 c -0.79729,0 -2.71079,-0.797289 -5.74049,-1.275662 -1.1162,-0.07973 -2.39186,-0.159458 -3.82698,-0.159458 -5.42157,0.239187 -10.60395,3.348614 -12.27825,6.139125 z" style="font-style:normal;font-variant:normal;font-weight:normal;font-stretch:normal;font-size:79.7289px;line-height:125%;font-family:'Rabbid Highway Sign II';-inkscape-font-specification:'Rabbid Highway Sign II, Normal';text-align:end;writing-mode:lr-tb;text-anchor:end" id="path995"/>
      <path d="m 145.37877,45.770089 h -6.45805 v 10.922859 h 6.37832 v 32.449661 h 12.83635 l 0.0797,-32.449661 h 9.24855 V 45.770089 h -9.24855 c 0,-5.899939 0.5581,-10.205299 4.06617,-10.84313 1.99322,-0.398645 3.98645,0.159457 5.02292,0.07973 l 2.87024,-10.444486 c -1.6743,0.07973 -5.58102,-1.754036 -10.84313,-1.43512 -10.44448,1.43512 -13.95255,9.248552 -13.95255,22.643007 z" style="font-style:normal;font-variant:normal;font-weight:normal;font-stretch:normal;font-size:79.7289px;line-height:125%;font-family:'Rabbid Highway Sign II';-inkscape-font-specification:'Rabbid Highway Sign II, Normal';text-align:end;writing-mode:lr-tb;text-anchor:end" id="path997"/>
      <path d="m 199.13723,77.900834 c -6.6175,0 -10.7634,-5.182378 -11.64042,-10.285028 l -11.56069,3.268885 c 1.67431,9.806655 10.36476,18.975478 23.20111,18.975478 12.83635,0 22.80246,-9.567468 23.67948,-21.925447 0.0797,-1.594578 0.0797,-3.109427 0,-4.624276 -0.95675,-13.234997 -10.68367,-20.25114 -22.56328,-20.649784 -1.59458,-0.07973 -3.50807,-0.07973 -5.10265,0.558102 l 1.75404,-8.770179 h 21.92545 v -12.27825 h -32.92804 l -7.33506,35.718546 c 2.79051,-0.558102 6.53777,-1.195933 11.40124,-1.195933 1.75403,-1.195934 3.90671,-2.631054 8.45126,-2.471596 7.33506,0.877018 11.3215,4.385089 11.56069,10.922859 0.39864,7.255329 -4.06618,12.676894 -10.84313,12.756623 z" style="font-style:normal;font-variant:normal;font-weight:normal;font-stretch:normal;font-size:79.7289px;line-height:125%;font-family:'Rabbid Highway Sign II';-inkscape-font-specification:'Rabbid Highway Sign II, Normal';text-align:end;writing-mode:lr-tb;text-anchor:end" id="path999"/>
    </g>
    <g aria-label="NAR" id="text4651" style="font-style:normal;font-variant:normal;font-weight:normal;font-stretch:normal;line-height:0%;font-family:sans-serif;-inkscape-font-specification:'sans-serif, Normal';text-align:start;letter-spacing:0px;word-spacing:0px;writing-mode:lr-tb;text-anchor:start;display:inline;fill:#000000;fill-opacity:1;stroke:none;stroke-width:0.264583px;stroke-linecap:butt;stroke-linejoin:miter;stroke-opacity:1">
      <path d="m 317.35567,90.08902 h 13.39427 V 52.696682 l 30.37629,32.528942 9.56734,4.863396 V 24.473042 h -13.31454 l -0.15946,37.472065 -30.37629,-32.60867 -9.48761,-4.863395 z" style="font-style:normal;font-variant:normal;font-weight:normal;font-stretch:normal;font-size:79.7278px;line-height:1.25;font-family:'Rabbid Highway Sign II';-inkscape-font-specification:'Rabbid Highway Sign II, Normal';text-align:start;writing-mode:lr-tb;text-anchor:start;stroke-width:0.264583px" id="path1002"/>
      <path d="M 411.99697,24.473042 H 400.9148 L 373.40871,90.08902 h 14.51046 l 5.26204,-13.314543 h 26.54935 l 5.34177,13.314543 h 14.43073 z m 2.71074,40.023354 h -16.50365 l 8.21196,-20.091405 z" style="font-style:normal;font-variant:normal;font-weight:normal;font-stretch:normal;font-size:79.7278px;line-height:1.25;font-family:'Rabbid Highway Sign II';-inkscape-font-specification:'Rabbid Highway Sign II, Normal';text-align:start;writing-mode:lr-tb;text-anchor:start;stroke-width:0.264583px" id="path1004"/>
      <path d="M 443.14901,24.552769 V 90.08902 h 13.39427 V 64.496396 c 1.51483,0 3.34857,-0.07973 5.18231,-0.07973 9.40788,7.653868 15.62665,21.048138 18.73603,25.752079 h 14.98883 C 492.42079,84.90671 482.21564,67.52605 476.63469,62.10456 c 7.49441,-2.790473 14.19155,-8.849786 14.19155,-17.7793 0,-9.726791 -6.61741,-19.613038 -21.84542,-19.852221 z m 13.39427,28.303369 V 36.1133 c 4.62422,0 9.08897,0.159456 13.07536,0.71755 5.50122,0.717551 7.41469,2.949929 7.41469,7.733597 0,4.544484 -4.70394,7.414685 -10.44434,7.893052 -3.26884,0.318911 -6.69714,0.398639 -10.04571,0.398639 z" style="font-style:normal;font-variant:normal;font-weight:normal;font-stretch:normal;font-size:79.7278px;line-height:1.25;font-family:'Rabbid Highway Sign II';-inkscape-font-specification:'Rabbid Highway Sign II, Normal';text-align:start;writing-mode:lr-tb;text-anchor:start;stroke-width:0.264583px" id="path1006"/>
    </g>
    <circle style="fill:#000000;fill-opacity:1;fill-rule:evenodd;stroke-width:0.264583" id="path166" cx="229.80977" cy="83.728859" r="4.5258842"/>
  </g>
</svg>
