<?xml version="1.0"?>
<!-- Created with Inkscape (http://www.inkscape.org/) -->
<svg xmlns:inkscape="http://www.inkscape.org/namespaces/inkscape" xmlns:sodipodi="http://sodipodi.sourceforge.net/DTD/sodipodi-0.dtd" xmlns="http://www.w3.org/2000/svg" xmlns:svg="http://www.w3.org/2000/svg" xmlns:rdf="http://www.w3.org/1999/02/22-rdf-syntax-ns#" xmlns:cc="http://creativecommons.org/ns#" xmlns:dc="http://purl.org/dc/elements/1.1/" width="493.59073mm" height="133.80498mm" viewBox="0 0 493.59071 133.80498" version="1.1" id="svg8" sodipodi:docname="parts.svg" inkscape:version="1.3.2 (091e20e, 2023-11-25)">
  <defs id="defs2"/>
  <sodipodi:namedview id="base" pagecolor="#ffffff" bordercolor="#666666" borderopacity="1.0" inkscape:pageopacity="0.0" inkscape:pageshadow="2" inkscape:zoom="0.55454746" inkscape:cx="903.43936" inkscape:cy="618.52235" inkscape:document-units="mm" inkscape:current-layer="layer3" showgrid="false" showguides="true" inkscape:guide-bbox="true" inkscape:window-width="1952" inkscape:window-height="1005" inkscape:window-x="992" inkscape:window-y="69" inkscape:window-maximized="0" fit-margin-top="15" fit-margin-left="15" fit-margin-right="15" fit-margin-bottom="15" inkscape:pagecheckerboard="false" showborder="true" inkscape:showpageshadow="2" inkscape:deskcolor="#d1d1d1">
    <inkscape:grid type="xygrid" id="grid3713" units="mm" spacingx="0.5" spacingy="0.5" originx="183.59068" originy="0.04931784" visible="false"/>
  </sodipodi:namedview>
  <metadata id="metadata5">
    <rdf:RDF>
      <cc:Work rdf:about="">
        <dc:format>image/svg+xml</dc:format>
        <dc:type rdf:resource="http://purl.org/dc/dcmitype/StillImage"/>
      </cc:Work>
    </rdf:RDF>
  </metadata>
  <g inkscape:label="icon" inkscape:groupmode="layer" id="layer1" transform="translate(183.59075,-154.5)" style="display:inline">
    <circle style="opacity:1;fill:none;fill-opacity:1;fill-rule:nonzero;stroke:#000000;stroke-width:11;stroke-linecap:square;stroke-linejoin:miter;stroke-miterlimit:4;stroke-dasharray:none;stroke-dashoffset:0;stroke-opacity:1" id="path3715" cy="197" cx="82.5" r="30"/>
    <path style="fill:none;fill-rule:evenodd;stroke:#000000;stroke-width:2.84605;stroke-linecap:butt;stroke-linejoin:miter;stroke-miterlimit:4;stroke-dasharray:none;stroke-opacity:1" d="m 104.99997,197 h -45" id="path4522" inkscape:connector-curvature="0" sodipodi:nodetypes="cc"/>
    <path style="fill:none;fill-rule:evenodd;stroke:#000000;stroke-width:2.84605;stroke-linecap:butt;stroke-linejoin:miter;stroke-miterlimit:4;stroke-dasharray:none;stroke-opacity:1" d="m 82.5,219.49997 v -45" id="path4522-6" inkscape:connector-curvature="0" sodipodi:nodetypes="cc"/>
    <path style="fill:none;fill-rule:evenodd;stroke:#000000;stroke-width:2.4495;stroke-linecap:butt;stroke-linejoin:miter;stroke-miterlimit:4;stroke-dasharray:none;stroke-opacity:1" d="m 82.5,239.5 v -5.00003" id="path4522-6-7" inkscape:connector-curvature="0" sodipodi:nodetypes="cc"/>
    <path style="fill:none;fill-rule:evenodd;stroke:#000000;stroke-width:2.44948;stroke-linecap:butt;stroke-linejoin:miter;stroke-miterlimit:4;stroke-dasharray:none;stroke-opacity:1" d="M 82.5,159.49997 V 154.5" id="path4522-6-7-3" inkscape:connector-curvature="0" sodipodi:nodetypes="cc"/>
    <path style="fill:none;fill-rule:evenodd;stroke:#000000;stroke-width:2.44948;stroke-linecap:butt;stroke-linejoin:miter;stroke-miterlimit:4;stroke-dasharray:none;stroke-opacity:1" d="m 40,197 h 4.99997" id="path4522-6-7-3-5" inkscape:connector-curvature="0" sodipodi:nodetypes="cc"/>
    <path style="fill:none;fill-rule:evenodd;stroke:#000000;stroke-width:2.4495;stroke-linecap:butt;stroke-linejoin:miter;stroke-miterlimit:4;stroke-dasharray:none;stroke-opacity:1" d="M 119.99997,197 H 125" id="path4522-6-7-3-5-6" inkscape:connector-curvature="0" sodipodi:nodetypes="cc"/>
    <text xml:space="preserve" style="font-style:normal;font-variant:normal;font-weight:normal;font-stretch:normal;line-height:0%;font-family:sans-serif;-inkscape-font-specification:'sans-serif, Normal';text-align:start;letter-spacing:0px;word-spacing:0px;writing-mode:lr-tb;text-anchor:start;fill:#000000;fill-opacity:1;stroke:none;stroke-width:0.264583px;stroke-linecap:butt;stroke-linejoin:miter;stroke-opacity:1" x="309.99997" y="219.5" id="text4725">
      <tspan sodipodi:role="line" id="tspan4723" x="309.99997" y="219.5" style="font-size:70.5555px;line-height:1.25;stroke-width:0.264583px"> </tspan>
    </text>
  </g>
  <g inkscape:groupmode="layer" id="layer3" inkscape:label="text" style="display:inline" transform="translate(-4.1295885,-14.999995)">
    <path style="font-size:80.3484px;line-height:125%;font-family:'Rabbid Highway Sign II';-inkscape-font-specification:'Rabbid Highway Sign II, Normal';text-align:end;letter-spacing:0px;word-spacing:0px;text-anchor:end;fill:#000000;stroke-width:0.266639px" d="m 17.017356,65.666512 v -0.964181 c 0,-7.231356 4.660207,-11.650518 10.847033,-11.730866 6.588569,0 11.007731,4.820904 11.007731,12.052259 0,7.392053 -4.660207,12.212957 -11.007731,12.212957 -6.026129,0 -10.847033,-4.419162 -10.847033,-11.570169 z m 10.52564,-24.345565 c -7.231356,0 -12.695047,2.490801 -16.471421,5.463691 C 9.946697,47.106032 9.3842583,45.659761 8.9021679,46.463245 6.9738064,47.588122 5.3668384,48.873697 4.1616125,50.159271 V 107.12628 H 17.178053 l -0.08035,-20.167443 c 3.937072,1.365922 8.275885,2.008709 11.891563,2.008709 12.373653,0 23.220686,-7.793794 23.220686,-23.381383 0,-7.552749 -5.061948,-24.265216 -24.666957,-24.265216 z m 40.900785,18.640828 c 0.803483,-4.820903 4.258465,-8.597278 9.641807,-8.597278 5.704736,0 9.561459,4.419162 9.963201,8.597278 z m 20.810234,13.578879 c -2.330103,3.133588 -6.50822,4.820904 -10.605988,4.419162 -5.222646,-0.48209 -9.641808,-4.097768 -10.445292,-9.159717 h 32.621445 c 0,-17.03386 -8.034835,-27.5595 -22.979637,-27.5595 -11.811214,0 -22.979641,9.641808 -22.979641,23.863474 0,14.703756 11.971911,23.863473 23.863473,23.863473 12.454002,0 18.640828,-6.909962 21.292325,-13.01644 z M 117.62044,41.803038 H 104.604 v 46.361024 h 13.01644 v -24.02417 c 0,-3.535329 1.68732,-9.561459 8.03484,-10.445292 2.89255,-0.48209 5.46369,-0.08035 7.71345,0.321394 1.12488,0.160697 2.08906,0.321394 2.89254,0.321394 l 3.37463,-11.730866 c -0.80348,0 -2.73184,-0.803484 -5.78508,-1.285575 -1.12488,-0.08035 -2.41045,-0.160696 -3.85672,-0.160696 -5.46369,0.241045 -10.68634,3.374632 -12.37366,6.186826 z m 32.48731,2.651497 h -6.50822 v 11.00773 h 6.42787 v 32.701797 h 12.9361 l 0.0803,-32.701797 h 9.32042 v -11.00773 h -9.32042 c 0,-5.945781 0.56244,-10.284595 4.09777,-10.927382 2.00871,-0.401742 4.01742,0.160697 5.06195,0.08035 l 2.89254,-10.52564 c -1.68731,0.08035 -5.62438,-1.767664 -10.92738,-1.446271 -10.52564,1.446271 -14.06097,9.320414 -14.06097,22.818945 z m 54.7173,-12.373653 c 8.19553,0 10.20424,6.106478 10.20424,9.802504 0,12.212956 -31.09482,30.130649 -33.66597,41.459773 -0.24105,0.160697 -0.3214,0.241045 -0.3214,0.241045 v 4.579858 h 48.85183 V 75.790409 h -28.52368 c 0,-3.213935 28.92542,-16.230376 27.72019,-35.433642 -0.32139,-9.320414 -7.63309,-20.408493 -24.26521,-20.408493 -15.18585,0 -23.62243,15.105499 -23.62243,19.605009 l 12.05226,3.535329 c 0,-2.249755 4.33881,-11.00773 11.57017,-11.00773 z" id="text4651-0" transform="scale(0.99229011,1.0077698)" aria-label="perf2"/>
    <path style="font-size:79.7278px;line-height:1.25;font-family:'Rabbid Highway Sign II';-inkscape-font-specification:'Rabbid Highway Sign II, Normal';letter-spacing:0px;word-spacing:0px;fill:#000000;stroke-width:0.264583px" d="m 317.35567,90.08902 h 13.39427 V 52.696682 l 30.37629,32.528942 9.56734,4.863396 V 24.473042 h -13.31454 l -0.15946,37.472065 -30.37629,-32.60867 -9.48761,-4.863395 z m 94.59142,-65.615978 h -11.08216 l -27.5061,65.615978 h 14.51046 l 5.26204,-13.314543 h 26.54936 l 5.34176,13.314543 h 14.43073 z m 2.71074,40.023354 h -16.50365 l 8.21196,-20.091405 z M 443.1116,24.552769 V 90.08902 h 13.39427 V 64.496396 c 1.51483,0 3.34857,-0.07973 5.18231,-0.07973 9.40788,7.653868 15.62665,21.048138 18.73603,25.752079 h 14.98883 c -3.02966,-5.262035 -13.23482,-22.642695 -18.81576,-28.064185 7.49441,-2.790473 14.19154,-8.849786 14.19154,-17.7793 0,-9.726791 -6.6174,-19.613038 -21.84541,-19.852221 z m 13.39427,28.303369 V 36.1133 c 4.62421,0 9.08897,0.159456 13.07536,0.71755 5.50122,0.717551 7.41468,2.949929 7.41468,7.733597 0,4.544484 -4.70394,7.414685 -10.44434,7.893052 -3.26884,0.318911 -6.69713,0.398639 -10.0457,0.398639 z" id="text4651" aria-label="NAR"/>
    <path style="font-size:50.8px;line-height:125%;font-family:'Rabbid Highway Sign II';-inkscape-font-specification:'Rabbid Highway Sign II, Normal';text-align:end;letter-spacing:0px;word-spacing:0px;text-anchor:end;fill:#000000;stroke:#000000;stroke-width:0.266639px" d="m 195.59954,105.58993 -6.858,15.4432 -7.4676,-15.4432 h -9.1948 l 9.398,19.5072 1.3716,2.4892 c -0.5588,5.9436 -3.2004,11.684 -7.874,16.51 l 5.9436,3.5052 c 10.1092,-10.6172 14.478,-20.1168 23.876,-42.0116 z m 19.81202,11.3792 c 0.508,-3.048 2.6924,-5.4356 6.096,-5.4356 3.6068,0 6.0452,2.794 6.2992,5.4356 z m 13.1572,8.5852 c -1.4732,1.9812 -4.1148,3.048 -6.7056,2.794 -3.302,-0.3048 -6.096,-2.5908 -6.604,-5.7912 h 20.6248 c 0,-10.7696 -5.08,-17.4244 -14.5288,-17.4244 -7.4676,0 -14.5288,6.096 -14.5288,15.0876 0,9.2964 7.5692,15.0876 15.0876,15.0876 7.874,0 11.7856,-4.3688 13.462,-8.2296 z m 18.7452,-5.334 c 0,-4.6228 2.9464,-7.6708 6.9596,-7.6708 3.9624,0.0508 6.9088,3.048 6.9088,7.6708 v 0.1524 c -0.0508,4.5212 -2.8448,7.5184 -6.9088,7.5184 -4.1656,0 -6.9596,-3.048 -6.9596,-7.6708 z m 21.9456,-12.8524 c -1.016,-0.3048 -2.1336,-0.5588 -3.302,-0.762 -0.4064,-0.0508 -1.0668,0.0508 -1.9304,0.2032 -3.0988,-1.27 -7.4676,-1.7272 -10.4648,-1.6764 -0.7112,0 -1.3208,0.0508 -1.8796,0.1016 -7.366,0.6096 -12.9032,7.2644 -12.9032,14.986 0,7.7216 5.4864,14.3764 12.9032,14.986 4.1148,0.3048 7.112,-1.0668 9.398,-3.2512 v 2.8448 h 8.1788 z m 12.49683,-1.8796 h -8.2296 v 29.3116 h 8.2296 v -15.1892 c 0,-2.2352 1.0668,-6.0452 5.08,-6.604 1.8288,-0.3048 3.4544,-0.0508 4.8768,0.2032 0.7112,0.1016 1.3208,0.2032 1.8288,0.2032 l 2.1336,-7.4168 c -0.508,0 -1.7272,-0.508 -3.6576,-0.8128 -0.7112,-0.0508 -1.524,-0.1016 -2.4384,-0.1016 -3.4544,0.1524 -6.7564,2.1336 -7.8232,3.9116 z m 21.38678,19.9644 -5.1308,3.5052 c 2.1844,4.0132 7.5692,6.2992 12.4968,6.2992 6.096,0 11.6332,-4.4196 11.6332,-9.398 0.0508,-8.2296 -14.6304,-8.5852 -14.6304,-11.8872 0,-1.1684 0.8636,-2.2352 3.0988,-2.2352 2.286,0 4.1148,0.5588 6.096,2.286 l 4.7244,-3.4036 c -2.6416,-3.5052 -7.5184,-5.4356 -11.8364,-5.4356 -5.7404,0 -10.1092,4.9276 -10.1092,9.0932 0.0508,7.2136 12.7,8.0772 13.9192,11.43 0.1524,0.1016 0.254,0.2032 0.254,0.3556 0,1.27 -1.2192,2.3368 -3.9624,2.3368 -2.6924,0 -4.7752,-0.9144 -6.5532,-2.9464 z" id="text4651-0-1" transform="scale(0.99229011,1.0077698)" aria-label="years"/>
  </g>
  <g inkscape:groupmode="layer" id="layer2" inkscape:label="powered" style="display:inline" transform="translate(-1.2572484)"/>
</svg>
