<svg width="176" height="71" viewBox="0 0 176 71" fill="none" xmlns="http://www.w3.org/2000/svg">
<g clip-path="url(#clip0_7_1092)">
<mask id="mask0_7_1092" style="mask-type:luminance" maskUnits="userSpaceOnUse" x="-44" y="-67" width="271" height="210">
<path d="M-43.5645 -66.8H226.752V142.158H-43.5645V-66.8Z" fill="white"/>
</mask>
<g mask="url(#mask0_7_1092)">
<path d="M54.9027 35.458C54.9027 46.2052 46.1943 54.9174 35.4515 54.9174C24.7084 54.9174 16 46.2052 16 35.458C16 24.7125 24.7084 16 35.4515 16C46.1943 16 54.9027 24.7125 54.9027 35.458Z" fill="#4D515E"/>
</g>
<g opacity="0.75">
<mask id="mask1_7_1092" style="mask-type:luminance" maskUnits="userSpaceOnUse" x="17" y="26" width="38" height="24">
<path d="M17.4248 26.0641H54.2622V49.0281H17.4248V26.0641Z" fill="white"/>
</mask>
<g mask="url(#mask1_7_1092)">
<mask id="mask2_7_1092" style="mask-type:luminance" maskUnits="userSpaceOnUse" x="-44" y="-67" width="271" height="210">
<path d="M-43.5645 -66.8H226.752V142.158H-43.5645V-66.8Z" fill="white"/>
</mask>
<g mask="url(#mask2_7_1092)">
<path d="M53.1717 27.4194C50.6738 26.6951 47.1413 25.9789 43.1278 26.0719C41.0573 26.1214 38.8603 26.3862 36.6112 26.9763C35.2449 27.3342 33.8603 27.8111 32.4726 28.4342C29.2598 29.8761 26.6313 31.6951 24.4981 33.5955C22.9842 34.9453 21.7206 36.3358 20.6765 37.6632C19.1599 39.5925 18.1066 41.3862 17.4248 42.7273C18.3796 45.0947 19.7871 47.2306 21.5406 49.0281C22.2851 47.0905 23.6298 44.281 25.9267 41.3528C26.9122 40.0974 28.0732 38.8191 29.4367 37.5807C30.5326 36.5833 31.7591 35.6114 33.1318 34.6951C35.8575 32.8762 38.6033 31.7124 41.2144 30.9963C42.9682 30.5153 44.6617 30.2371 46.2464 30.0987C49.5233 29.8138 52.3342 30.128 54.2622 30.4901C53.984 29.4289 53.6179 28.4022 53.1717 27.4194Z" fill="#64D2FF"/>
</g>
</g>
</g>
<g opacity="0.75">
<mask id="mask3_7_1092" style="mask-type:luminance" maskUnits="userSpaceOnUse" x="21" y="16" width="30" height="35">
<path d="M21.7656 16.8215H50.1556V50.8003H21.7656V16.8215Z" fill="white"/>
</mask>
<g mask="url(#mask3_7_1092)">
<mask id="mask4_7_1092" style="mask-type:luminance" maskUnits="userSpaceOnUse" x="-44" y="-67" width="271" height="210">
<path d="M-43.5645 -66.8H226.752V142.158H-43.5645V-66.8Z" fill="white"/>
</mask>
<g mask="url(#mask4_7_1092)">
<path d="M46.2464 30.0987C45.3888 28.771 44.3583 27.4249 43.1277 26.0719C42.8271 25.743 42.5152 25.413 42.1917 25.0827C37.6979 20.5115 33.4434 18.0746 29.8536 16.8215C26.7642 17.7511 23.9973 19.4275 21.7656 21.6432C24.9893 21.9681 31.0081 23.0961 36.6112 26.9763C38.2037 28.0787 39.7616 29.4037 41.213 30.9963C41.3023 31.0934 41.3903 31.1906 41.4779 31.2904C44.9269 35.1867 46.5338 39.2731 47.2104 42.8162C47.385 43.7325 47.4968 44.6099 47.5632 45.441C47.7391 47.6553 47.5857 49.5206 47.3983 50.8003C48.0292 50.3077 48.6312 49.7776 49.1971 49.2118C49.5352 48.1278 49.8894 46.6579 50.0561 44.9017C50.1239 44.1971 50.1611 43.4462 50.1546 42.6567C50.1277 39.088 49.2237 34.7084 46.2464 30.0987Z" fill="#64D2FF"/>
</g>
</g>
</g>
<g opacity="0.75">
<mask id="mask5_7_1092" style="mask-type:luminance" maskUnits="userSpaceOnUse" x="16" y="25" width="38" height="21">
<path d="M16.1837 25.7205H53.7522V45.847H16.1837V25.7205Z" fill="white"/>
</mask>
<g mask="url(#mask5_7_1092)">
<mask id="mask6_7_1092" style="mask-type:luminance" maskUnits="userSpaceOnUse" x="-44" y="-67" width="271" height="210">
<path d="M-43.5645 -66.8H226.752V142.158H-43.5645V-66.8Z" fill="white"/>
</mask>
<g mask="url(#mask6_7_1092)">
<path d="M50.1546 42.6567C49.2823 42.7457 48.2944 42.8084 47.2104 42.8162C43.169 42.8483 37.8056 42.1239 32.1985 39.1998C31.2198 38.6899 30.3008 38.1465 29.4367 37.5807C27.5326 36.3331 25.8963 34.9723 24.4981 33.5955C21.6125 30.7512 19.7431 27.839 18.6206 25.7205C17.3703 27.8817 16.5232 30.3063 16.1837 32.8909C17.3117 34.3757 18.7883 36.0348 20.6765 37.6645C22.161 38.9456 23.9015 40.2078 25.9267 41.3528C27.3982 42.1853 29.0201 42.955 30.8043 43.6221C37.675 46.1919 43.4979 46.1251 47.5632 45.441C48.4887 45.2849 49.3222 45.0974 50.0561 44.9017C51.3514 44.5554 52.3369 44.1838 52.9682 43.9162C53.261 43.3105 53.5232 42.687 53.7536 42.0479C53.0773 42.217 51.8283 42.4849 50.1546 42.6567Z" fill="#64D2FF"/>
</g>
</g>
</g>
<path d="M125.17 23.907C125.17 22.9468 125.342 22.2677 125.687 21.871C126.03 21.4728 126.636 21.2731 127.505 21.2731H129.186L129.407 21.4783V37.2251C129.407 37.6714 129.512 38.0228 129.723 38.2825C129.936 38.542 130.286 38.6711 130.775 38.6711H132.707C132.814 38.9653 132.893 39.3011 132.945 39.6778C132.999 40.0548 133.027 40.4181 133.027 40.7672V41.2506C133.027 41.4261 133.004 41.5874 132.961 41.7339C132.39 41.8082 131.753 41.8737 131.049 41.931C130.348 41.9906 129.684 42.0213 129.06 42.0213C127.758 42.0213 126.784 41.6937 126.137 41.0375C125.492 40.381 125.17 39.3744 125.17 38.0201V23.907ZM133.216 25.803C133.354 26.3143 133.423 26.827 133.423 27.3424C133.423 27.6086 133.407 27.8735 133.375 28.1373C133.345 28.4022 133.291 28.6619 133.216 28.9162L127.57 28.8375L122.743 28.9162C122.616 28.4196 122.555 27.895 122.555 27.3424C122.555 26.8352 122.616 26.3225 122.743 25.803L127.68 25.8684L133.216 25.803ZM60.1079 20.6152L60.3274 20.3915H64.4514L64.2731 24.0427C64.2503 24.4862 64.2782 24.8683 64.2888 25.1891C64.2997 25.5102 64.3048 25.8855 64.3048 26.3184V36.3491C64.3048 36.7084 64.2997 37.0414 64.2888 37.3475C64.2782 37.6526 64.2544 37.988 64.2731 38.3541L64.4514 42.04H62.6764C61.8856 42.04 61.2635 41.8055 60.8094 41.3382C60.3595 40.8681 60.1345 40.2279 60.1331 39.4143L60.1079 20.6152ZM71.6153 29.2891C71.6991 29.5608 71.7588 29.871 71.7949 30.2184C71.8321 30.5674 71.8508 30.8616 71.8508 31.1026C71.8508 31.3464 71.8321 31.6364 71.7949 31.98C71.7588 32.3223 71.6991 32.642 71.6153 32.9376H66.3876C66.1343 32.9376 65.7842 32.9348 65.3356 32.9294C64.8894 32.9243 64.3781 32.9161 63.9148 32.9042C63.4512 32.895 63.1131 32.883 62.7855 32.8721V29.3502C63.1131 29.3396 63.5085 29.329 63.9707 29.3185C64.4354 29.3076 64.8894 29.3011 65.3356 29.297C65.7842 29.2919 66.1343 29.2891 66.3876 29.2891H71.6153ZM73.6271 20.3915C73.679 20.7205 73.7137 21.0334 73.7298 21.329C73.7458 21.6221 73.7536 21.8897 73.7536 22.1321C73.7536 22.3836 73.727 22.6925 73.6725 23.0572C73.6203 23.4182 73.5327 23.7737 73.4073 24.1214H66.3876C66.1343 24.1214 65.7842 24.1187 65.3356 24.1119C64.8894 24.1081 64.4354 24.1 63.9707 24.088C63.5085 24.0775 63.1131 24.0679 62.7855 24.0601L62.9641 20.3915H73.6271ZM74.3369 38.3105C74.3369 39.5632 74.1385 40.4983 73.7417 41.1146C73.3476 41.7312 72.5725 42.04 71.4155 42.04H62.9641L62.7855 38.4687C63.4063 38.4356 64.0014 38.4022 64.57 38.3664C65.141 38.3289 65.7883 38.3105 66.514 38.3105H74.3369ZM94.8509 25.9097C95.6765 25.9097 96.2864 26.18 96.6791 26.7179C97.0717 27.2531 97.2701 27.9976 97.2701 28.9455V41.8522C96.98 41.9136 96.6429 41.9548 96.2584 41.976C95.8759 41.9974 95.5061 42.008 95.1465 42.008C94.795 42.008 94.4286 41.9974 94.0505 41.976C93.6749 41.9548 93.3354 41.9136 93.0347 41.8522V26.1094L93.2382 25.9097H94.8509ZM105.949 38.1919C105.949 38.7816 106.001 39.3304 106.105 39.8363C106.21 40.3435 106.386 40.787 106.634 41.1677C106.322 41.4381 105.931 41.6579 105.462 41.8284C104.992 41.9988 104.494 42.084 103.965 42.084C103.128 42.084 102.545 41.8577 102.214 41.405C101.883 40.9482 101.718 40.3023 101.718 39.4634V32.3451C101.718 31.5287 101.611 30.9308 101.398 30.5487C101.188 30.1652 100.776 29.9736 100.166 29.9736C99.7735 29.9736 99.3355 30.0745 98.8508 30.277C98.3647 30.4768 97.8881 30.7842 97.4222 31.197C96.9586 31.6112 96.5659 32.1331 96.2461 32.7658V28.59C96.9586 27.8564 97.7682 27.2091 98.6776 26.646C99.5871 26.0801 100.595 25.7979 101.702 25.7979C102.654 25.7979 103.442 26.0307 104.067 26.4967C104.692 26.9616 105.162 27.5953 105.478 28.3981C105.792 29.1985 105.949 30.4754 105.949 31.5086V38.1919ZM75.502 39.7166C75.5633 39.0959 75.7617 38.4809 76.0985 37.8721C76.4339 37.2623 76.8082 36.7803 77.2224 36.4275C78.109 36.9773 79.1037 37.4556 80.2051 37.8643C81.3061 38.2716 82.4061 38.4768 83.5021 38.4768C84.5261 38.4768 85.2876 38.2399 85.7897 37.7644C86.2901 37.2879 86.5406 36.7339 86.5406 36.104C86.5406 35.6261 86.3849 35.1533 86.0733 34.6832C85.7631 34.2145 85.1652 33.7925 84.2769 33.4196L80.5419 31.871C79.2476 31.3102 78.1942 30.5927 77.3782 29.7139C76.5618 28.8337 76.1544 27.6819 76.1544 26.257C76.1544 25.0149 76.4752 23.9203 77.1225 22.9761C77.7671 22.0295 78.6459 21.2904 79.7575 20.759C80.8695 20.2266 82.1225 19.959 83.5181 19.959C84.9228 19.959 86.2397 20.1413 87.4685 20.5034C88.6977 20.863 89.7163 21.2506 90.5245 21.6634C90.4928 22.2957 90.3394 22.9042 90.0653 23.4874C89.7936 24.072 89.45 24.5608 89.0372 24.9522C88.2396 24.5714 87.326 24.2278 86.2969 23.9241C85.2702 23.618 84.3488 23.4635 83.5338 23.4635C82.5418 23.4635 81.8028 23.6926 81.3221 24.148C80.8415 24.6021 80.6019 25.1185 80.6019 25.6966C80.6019 26.2039 80.775 26.6327 81.121 26.9855C81.4674 27.3356 81.9974 27.6604 82.7098 27.9614L86.4766 29.51C87.4474 29.9041 88.2795 30.397 88.9732 30.9867C89.6658 31.5768 90.201 32.2531 90.5766 33.0187C90.9547 33.7816 91.1452 34.6232 91.1452 35.5432C91.1452 36.7656 90.8493 37.8643 90.261 38.8402C89.6709 39.8165 88.7894 40.5913 87.6165 41.1613C86.4435 41.7298 84.9733 42.0135 83.2051 42.0135C81.9361 42.0135 80.6138 41.811 79.2383 41.4087C77.8643 41.0041 76.619 40.4396 75.502 39.7166ZM110.959 35.2358V32.2705H117.454V31.8989C117.454 31.3303 117.374 30.8098 117.214 30.3343C117.054 29.8601 116.795 29.4794 116.438 29.193C116.08 28.9084 115.607 28.7659 115.019 28.7659C114.152 28.7659 113.52 29.1252 113.126 29.8458C112.735 30.5647 112.538 31.6167 112.538 33.0027V34.2878C112.538 35.096 112.618 35.835 112.779 36.5073C112.939 37.1784 113.24 37.7126 113.686 38.1121C114.132 38.5102 114.781 38.7086 115.638 38.7086C116.391 38.7086 117.116 38.6139 117.809 38.425C118.503 38.2318 119.17 37.9908 119.809 37.7003C120.14 38.0109 120.404 38.409 120.598 38.8961C120.795 39.3822 120.92 39.8363 120.973 40.261C120.218 40.819 119.306 41.2516 118.234 41.558C117.164 41.8618 116.083 42.0135 114.991 42.0135C113.675 42.0135 112.583 41.7909 111.715 41.345C110.847 40.9002 110.161 40.2958 109.655 39.5329C109.148 38.7669 108.791 37.9042 108.583 36.9443C108.377 35.9816 108.274 34.9828 108.274 33.9469C108.274 32.3864 108.511 30.9895 108.986 29.7538C109.463 28.5167 110.201 27.5367 111.198 26.8123C112.196 26.0907 113.474 25.7283 115.035 25.7283C116.4 25.7283 117.554 26.0188 118.498 26.5966C119.443 27.176 120.166 27.9587 120.662 28.9455C121.157 29.9334 121.406 31.0522 121.406 32.3025C121.406 32.9243 121.378 33.4475 121.326 33.8709C121.274 34.2956 121.182 34.7497 121.049 35.2358H110.959Z" fill="#4D515E"/>
<path d="M91.4807 51.9429C91.1343 51.9429 90.7975 51.8788 90.4686 51.7537C90.1437 51.6259 89.8536 51.4408 89.598 51.1943L90.1771 50.4781C90.3609 50.6404 90.5698 50.7682 90.8057 50.8575C91.0385 50.9469 91.2731 50.9908 91.5045 50.9908C91.7551 50.9908 91.9453 50.9414 92.0731 50.8456C92.2009 50.7485 92.265 50.6179 92.265 50.458C92.265 50.3411 92.233 50.2477 92.1692 50.1785C92.1065 50.1052 92.0213 50.0439 91.9095 49.9893C91.7977 49.9334 91.6644 49.8762 91.5127 49.8138L90.8374 49.5302C90.6632 49.4501 90.4965 49.3502 90.3367 49.2292C90.1771 49.1092 90.0466 48.9602 89.9494 48.7816C89.8496 48.6006 89.8015 48.3848 89.8015 48.1373C89.8015 47.8551 89.8789 47.6004 90.0333 47.3731C90.1877 47.1464 90.3994 46.9668 90.6697 46.8325C90.9387 46.7005 91.2502 46.6327 91.6044 46.6327C91.9136 46.6327 92.2105 46.6886 92.4927 46.7963C92.775 46.9068 93.0224 47.0639 93.2331 47.2691L92.6563 47.9816C92.4886 47.851 92.3155 47.7525 92.1372 47.6857C91.9613 47.6165 91.783 47.5807 91.6044 47.5807C91.3968 47.5807 91.2291 47.6247 91.1013 47.7099C90.9748 47.7924 90.9134 47.9124 90.9134 48.0692C90.9134 48.1799 90.9468 48.2716 91.0133 48.3449C91.0825 48.4169 91.1783 48.4809 91.301 48.5379C91.4261 48.5914 91.5591 48.6473 91.7016 48.7059L92.3686 48.9814C92.5766 49.0638 92.7576 49.1678 92.9093 49.2892C93.0613 49.4129 93.1782 49.5619 93.2611 49.7378C93.3463 49.9137 93.3889 50.1253 93.3889 50.3701C93.3889 50.6527 93.3142 50.9135 93.1649 51.1545C93.0146 51.3927 92.7975 51.5819 92.5125 51.7258C92.2262 51.871 91.8829 51.9429 91.4807 51.9429ZM96.2942 51.9429C95.8534 51.9429 95.4512 51.843 95.0892 51.6419C94.7296 51.4422 94.4419 51.1466 94.2264 50.7536C94.012 50.3623 93.9053 49.8802 93.9053 49.3089C93.9053 48.8856 93.968 48.5099 94.0945 48.1813C94.2183 47.851 94.3914 47.5688 94.6137 47.337C94.8376 47.1028 95.0947 46.9255 95.3861 46.8045C95.6765 46.6845 95.9813 46.6245 96.302 46.6245C96.631 46.6245 96.9279 46.6913 97.189 46.8202C97.4501 46.9521 97.6656 47.1079 97.8336 47.2889L97.2504 47.9574C97.1184 47.8323 96.9801 47.7378 96.8335 47.6724C96.6869 47.6073 96.5192 47.5725 96.3341 47.5725C96.0958 47.5725 95.8759 47.6444 95.6738 47.7856C95.474 47.9267 95.3155 48.124 95.2024 48.377C95.0865 48.6285 95.0292 48.9282 95.0292 49.2769C95.0292 49.6406 95.0851 49.9494 95.1983 50.2024C95.3101 50.4553 95.4672 50.65 95.6697 50.7856C95.8722 50.9216 96.2717 50.9908 96.5393 50.9908C96.7363 50.9908 96.7523 50.9496 96.9173 50.8657C97.0827 50.7819 97.2251 50.6765 97.3462 50.5501L97.9014 51.2025C97.6829 51.449 97.4392 51.6341 97.173 51.7578C96.9068 51.8802 96.6139 51.9429 96.2942 51.9429ZM98.6391 51.8468V46.7166H99.7391V51.8468H98.6391ZM100.895 51.8468V46.7244H104.074V47.6444H101.995V48.7458H103.771V49.6617H101.995V50.9254H104.156V51.8468H100.895ZM105.086 51.8468V46.7166H106.259L107.623 49.3185C107.708 49.4913 107.792 49.6778 107.875 49.8775C107.957 50.0759 108.041 50.2757 108.126 50.4781H108.158C108.126 50.1959 108.094 49.8922 108.062 49.57C108.031 49.2452 108.015 48.936 108.015 48.6418V46.7166H109.067V51.8468H107.907L106.531 49.253C106.447 49.0799 106.361 48.8934 106.272 48.6937C106.182 48.4915 106.1 48.2931 106.023 48.1012H105.99C106.023 48.3797 106.055 48.678 106.087 48.9974C106.121 49.3158 106.138 49.6259 106.138 49.9297V51.8468H105.086ZM112.535 51.9429C112.096 51.9429 111.694 51.843 111.331 51.6419C110.972 51.4422 110.683 51.1466 110.467 50.7536C110.253 50.3623 110.148 49.8802 110.148 49.3089C110.148 48.8856 110.209 48.5099 110.335 48.1813C110.461 47.851 110.634 47.5688 110.856 47.337C111.08 47.1028 111.337 46.9255 111.627 46.8045C111.917 46.6845 112.224 46.6245 112.543 46.6245C112.874 46.6245 113.169 46.6913 113.431 46.8202C113.692 46.9521 113.907 47.1079 114.076 47.2889L113.491 47.9574C113.361 47.8323 113.221 47.7378 113.076 47.6724C112.928 47.6073 112.762 47.5725 112.575 47.5725C112.337 47.5725 112.117 47.6444 111.916 47.7856C111.715 47.9267 111.558 48.124 111.443 48.377C111.329 48.6285 111.272 48.9282 111.272 49.2769C111.272 49.6406 111.328 49.9494 111.439 50.2024C111.551 50.4553 111.708 50.65 111.912 50.7856C112.113 50.9216 112.349 50.9908 112.615 50.9908C112.812 50.9908 112.993 50.9496 113.16 50.8657C113.325 50.7819 113.467 50.6765 113.587 50.5501L114.144 51.2025C113.924 51.449 113.682 51.6341 113.415 51.7578C113.148 51.8802 112.855 51.9429 112.535 51.9429ZM114.88 51.8468V46.7244H118.06V47.6444H115.98V48.7458H117.756V49.6617H115.98V50.9254H118.14V51.8468H114.88ZM120.666 51.9429C120.32 51.9429 119.981 51.8788 119.654 51.7537C119.327 51.6259 119.039 51.4408 118.782 51.1943L119.362 50.4781C119.546 50.6404 119.755 50.7682 119.989 50.8575C120.224 50.9469 120.458 50.9908 120.69 50.9908C120.94 50.9908 121.13 50.9414 121.258 50.8456C121.386 50.7485 121.45 50.6179 121.45 50.458C121.45 50.3411 121.418 50.2477 121.354 50.1785C121.291 50.1052 121.206 50.0439 121.094 49.9893C120.981 49.9334 120.849 49.8762 120.698 49.8138L120.021 49.5302C119.848 49.4501 119.682 49.3502 119.522 49.2292C119.362 49.1092 119.232 48.9602 119.134 48.7816C119.035 48.6006 118.986 48.3848 118.986 48.1373C118.986 47.8551 119.062 47.6004 119.218 47.3731C119.371 47.1464 119.584 46.9668 119.853 46.8325C120.122 46.7005 120.435 46.6327 120.789 46.6327C121.099 46.6327 121.395 46.6886 121.678 46.7963C121.96 46.9068 122.206 47.0639 122.418 47.2691L121.841 47.9816C121.674 47.851 121.499 47.7525 121.322 47.6857C121.146 47.6165 120.968 47.5807 120.789 47.5807C120.582 47.5807 120.414 47.6247 120.286 47.7099C120.16 47.7924 120.098 47.9124 120.098 48.0692C120.098 48.1799 120.13 48.2716 120.198 48.3449C120.266 48.4169 120.363 48.4809 120.486 48.5379C120.611 48.5914 120.744 48.6473 120.886 48.7059L121.554 48.9814C121.762 49.0638 121.941 49.1678 122.093 49.2892C122.246 49.4129 122.362 49.5619 122.446 49.7378C122.531 49.9137 122.574 50.1253 122.574 50.3701C122.574 50.6527 122.499 50.9135 122.35 51.1545C122.2 51.3927 121.982 51.5819 121.697 51.7258C121.411 51.871 121.068 51.9429 120.666 51.9429ZM125.178 51.8468V46.7166H126.35L127.715 49.3185C127.799 49.4913 127.883 49.6778 127.967 49.8775C128.048 50.0759 128.132 50.2757 128.218 50.4781H128.25C128.218 50.1959 128.186 49.8922 128.154 49.57C128.122 49.2452 128.106 48.936 128.106 48.6418V46.7166H129.158V51.8468H127.999L126.622 49.253C126.539 49.0799 126.453 48.8934 126.362 48.6937C126.274 48.4915 126.192 48.2931 126.115 48.1012H126.083C126.115 48.3797 126.146 48.678 126.178 48.9974C126.213 49.3158 126.23 49.6259 126.23 49.9297V51.8468H125.178ZM130.309 51.8468V46.7244H133.488V47.6444H131.409V48.7458H133.185V49.6617H131.409V50.9254H133.569V51.8468H130.309ZM135.756 51.8468V47.6526H134.327V46.7166H138.275V47.6526H136.856V51.8468H135.756ZM139.788 51.8468L138.844 46.7166H140L140.369 49.1613C140.401 49.434 140.434 49.7044 140.473 49.9733C140.51 50.2436 140.541 50.5221 140.564 50.8098H140.596C140.639 50.5221 140.686 50.2423 140.736 49.9696C140.789 49.6979 140.843 49.4289 140.896 49.1613L141.453 46.7166H142.445L142.984 49.1613C143.037 49.4289 143.089 49.6979 143.14 49.9696C143.193 50.2423 143.244 50.5221 143.293 50.8098H143.321C143.353 50.5221 143.386 50.2423 143.425 49.9696C143.461 49.6979 143.494 49.4289 143.525 49.1613L143.904 46.7166H144.988L144.052 51.8468H142.624L142.128 49.434C142.091 49.237 142.054 49.0373 142.02 48.8375C141.988 48.6354 141.956 48.4247 141.924 48.2093H141.892C141.871 48.4247 141.844 48.6354 141.812 48.8375C141.783 49.0373 141.747 49.237 141.704 49.434L141.201 51.8468H139.788ZM147.714 51.9429C147.26 51.9429 146.86 51.8362 146.514 51.6218C146.17 51.4064 145.9 51.0986 145.706 50.6977C145.511 50.2958 145.414 49.8162 145.414 49.2612C145.414 48.7018 145.511 48.2277 145.706 47.8377C145.9 47.4474 146.17 47.1491 146.514 46.9415C146.86 46.7312 147.26 46.6245 147.714 46.6245C148.174 46.6245 148.579 46.7312 148.925 46.9415C149.274 47.1491 149.547 47.4474 149.742 47.8377C149.939 48.2277 150.037 48.7018 150.037 49.2612C150.037 49.8162 149.939 50.2958 149.742 50.6977C149.547 51.0986 149.274 51.4064 148.925 51.6218C148.579 51.8362 148.174 51.9429 147.714 51.9429ZM147.714 50.9908C147.961 50.9908 148.174 50.9203 148.35 50.7778C148.527 50.6367 148.664 50.4369 148.757 50.1785C148.854 49.9201 148.901 49.614 148.901 49.2612C148.901 48.9121 148.854 48.6125 148.757 48.361C148.664 48.108 148.527 47.9134 148.35 47.7777C148.174 47.6407 147.961 47.5725 147.714 47.5725C147.479 47.5725 147.272 47.6407 147.094 47.7777C146.917 47.9134 146.78 48.108 146.681 48.361C146.586 48.6125 146.538 48.9121 146.538 49.2612C146.538 49.614 146.586 49.9201 146.681 50.1785C146.78 50.4369 146.917 50.6367 147.094 50.7778C147.272 50.9203 147.479 50.9908 147.714 50.9908ZM150.999 51.8468V46.7244H152.823C153.182 46.7244 153.509 46.7725 153.803 46.8696C154.096 46.9627 154.33 47.1253 154.506 47.3571C154.684 47.5872 154.775 47.9028 154.775 48.305C154.775 48.6872 154.684 49.0015 154.506 49.2489C154.33 49.4954 154.096 49.675 153.803 49.7896C153.509 49.9041 153.182 49.9614 152.823 49.9614H152.098V51.8468H150.999ZM152.098 49.0894H152.727C153.041 49.0894 153.28 49.024 153.442 48.8897C153.607 48.7564 153.691 48.5621 153.691 48.305C153.691 48.0388 153.607 47.8551 153.442 47.7538C153.28 47.6485 153.041 47.5967 152.727 47.5967H152.098V49.0894ZM153.779 51.8468L152.615 49.6699L153.386 48.9814L155.011 51.8468H153.779ZM155.784 51.8468V46.7244H156.884V48.8695H156.916L158.509 46.7244H159.72L158.164 48.7618L160 51.8468H158.792L157.52 49.6219L156.884 50.442V51.8468H155.784ZM60.1079 51.8468V46.7244H63.2876V47.6444H61.2076V48.7458H62.9839V49.6617H61.2076V50.9254H63.3674V51.8468H60.1079ZM64.2997 51.8468V46.7166H65.4713L66.8362 49.3185C66.92 49.4913 67.0039 49.6778 67.0877 49.8775C67.1692 50.0759 67.2531 50.2757 67.3396 50.4781H67.3714C67.3397 50.1959 67.3076 49.8922 67.2756 49.57C67.2435 49.2452 67.2278 48.936 67.2278 48.6418V46.7166H68.2795V51.8468H67.1198L65.7443 49.253C65.6605 49.0799 65.5739 48.8934 65.4832 48.6937C65.3956 48.4915 65.3128 48.2931 65.2357 48.1012H65.2037C65.2357 48.3797 65.2678 48.678 65.2995 48.9974C65.3343 49.3158 65.3516 49.6259 65.3516 49.9297V51.8468H64.2997ZM69.4299 51.8468V46.7244H72.61V47.6444H70.5299V48.7458H72.3062V49.6617H70.5299V50.9254H72.6897V51.8468H69.4299ZM73.6231 51.8468V46.7244H75.4474C75.8071 46.7244 76.1333 46.7725 76.4275 46.8696C76.7203 46.9627 76.9548 47.1253 77.1304 47.3571C77.309 47.5872 77.3993 47.9028 77.3993 48.305C77.3993 48.6872 77.309 49.0015 77.1304 49.2489C76.9548 49.4954 76.7203 49.675 76.4275 49.7896C76.1333 49.9041 75.8071 49.9614 75.4474 49.9614H74.7231V51.8468H73.6231ZM74.7231 49.0894H75.3517C75.6646 49.0894 75.9042 49.024 76.0665 48.8897C76.2318 48.7564 76.3157 48.5621 76.3157 48.305C76.3157 48.0388 76.2318 47.8551 76.0665 47.7538C75.9042 47.6485 75.6646 47.5967 75.3517 47.5967H74.7231V49.0894ZM76.4036 51.8468L75.2395 49.6699L76.0106 48.9814L77.6352 51.8468H76.4036ZM80.699 51.9429C80.233 51.9429 79.8097 51.843 79.4313 51.6419C79.056 51.4422 78.7577 51.148 78.5392 50.7577C78.3234 50.3691 78.2157 49.8857 78.2157 49.3089C78.2157 48.8856 78.2795 48.5099 78.4073 48.1813C78.5351 47.851 78.7124 47.5688 78.9401 47.337C79.1692 47.1028 79.4327 46.9269 79.7323 46.8083C80.0292 46.6924 80.3503 46.6327 80.6912 46.6327C81.0614 46.6327 81.3794 46.6992 81.6432 46.8284C81.9081 46.9603 82.1239 47.1133 82.2916 47.2889L81.7111 47.9574C81.586 47.8377 81.4472 47.7457 81.2956 47.6819C81.1439 47.6151 80.9533 47.5807 80.727 47.5807C80.4553 47.5807 80.2129 47.6485 80.004 47.7856C79.7964 47.9216 79.6324 48.1159 79.5151 48.3688C79.3982 48.6207 79.3396 48.9241 79.3396 49.2769C79.3396 49.6352 79.3941 49.9416 79.5032 50.1986C79.6126 50.4543 79.7763 50.65 79.992 50.7856C80.2092 50.9216 80.4846 50.9908 80.8163 50.9908C80.924 50.9908 81.0321 50.9762 81.1398 50.9469C81.2489 50.9175 81.3341 50.8736 81.3954 50.8177V49.8816H80.5231V48.9854H82.3795V51.3184C82.205 51.4926 81.9719 51.6405 81.675 51.7629C81.3794 51.8829 81.0532 51.9429 80.699 51.9429ZM84.3808 51.8468V50.0013L82.8414 46.7166H84.0212L84.4981 47.9256C84.571 48.1199 84.6416 48.3091 84.7098 48.4888C84.779 48.6712 84.8495 48.8631 84.9215 49.0652H84.9535C85.0333 48.8631 85.1093 48.6712 85.1812 48.4888C85.2555 48.3091 85.3288 48.1199 85.4008 47.9256L85.8814 46.7166H87.0291L85.4887 50.0013V51.8468H84.3808Z" fill="#4D515E"/>
</g>
<defs>
<clipPath id="clip0_7_1092">
<rect width="144" height="38.9174" fill="white" transform="translate(16 16)"/>
</clipPath>
</defs>
</svg>
