<?xml version="1.0" encoding="UTF-8" standalone="no"?>
<svg
   xmlns:dc="http://purl.org/dc/elements/1.1/"
   xmlns:cc="http://creativecommons.org/ns#"
   xmlns:rdf="http://www.w3.org/1999/02/22-rdf-syntax-ns#"
   xmlns:svg="http://www.w3.org/2000/svg"
   xmlns="http://www.w3.org/2000/svg"
   xmlns:sodipodi="http://sodipodi.sourceforge.net/DTD/sodipodi-0.dtd"
   xmlns:inkscape="http://www.inkscape.org/namespaces/inkscape"
   inkscape:version="1.0beta2 (2b71d25, 2019-12-03)"
   sodipodi:docname="logo Geant.svg"
   viewBox="0 0 381.37332 165.72"
   height="165.72"
   width="381.37332"
   xml:space="preserve"
   id="svg10"
   version="1.1"><metadata
     id="metadata16"><rdf:RDF><cc:Work
         rdf:about=""><dc:format>image/svg+xml</dc:format><dc:type
           rdf:resource="http://purl.org/dc/dcmitype/StillImage" /><dc:title></dc:title></cc:Work></rdf:RDF></metadata><defs
     id="defs14" /><sodipodi:namedview
     inkscape:current-layer="g18"
     inkscape:window-maximized="0"
     inkscape:window-y="184"
     inkscape:window-x="324"
     inkscape:cy="82.860001"
     inkscape:cx="190.68666"
     inkscape:zoom="3.6735658"
     showgrid="false"
     id="namedview12"
     inkscape:window-height="1161"
     inkscape:window-width="1774"
     inkscape:pageshadow="2"
     inkscape:pageopacity="0"
     guidetolerance="10"
     gridtolerance="10"
     objecttolerance="10"
     borderopacity="1"
     inkscape:document-rotation="0"
     bordercolor="#666666"
     pagecolor="#ffffff" /><g
     transform="matrix(1.3333333,0,0,-1.3333333,0,165.72)"
     inkscape:label="ink_ext_XXXXXX"
     inkscape:groupmode="layer"
     id="g18"><g
       transform="scale(0.1)"
       id="g20"><path
         inkscape:connector-curvature="0"
         id="path22"
         style="fill:#013353;fill-opacity:1;fill-rule:nonzero;stroke:none"
         d="m 575.215,597.539 c 20.976,17.406 39.89,25.824 56.004,25.09 34.75,-1.477 47.015,-25.82 48.582,-40.481 -7.899,-2.781 -164.25,-55.312 -170.887,-57.507 -2.406,2.5 -5.113,5.449 -8.523,9.07 8.269,6.945 74.824,63.828 74.824,63.828" /><path
         inkscape:connector-curvature="0"
         id="path24"
         style="fill:#013353;fill-opacity:1;fill-rule:nonzero;stroke:none"
         d="M 0,265.129 C 0,89.2695 77.4219,0 230.137,0 c 100.769,0 161.98,44.5586 164.48,46.4805 l 4.879,3.5898 V 291.855 H 188.848 v -67.503 c 0,0 105.254,0 124.894,0 0,-19.622 0,-126.0317 0,-136.9614 -12.5,-7.2617 -43.441,-19.9414 -88.277,-19.9414 -90.266,0 -134.215,64.6918 -134.215,197.6798 0,76.133 21.688,166.719 124.777,166.719 68.614,0 93.043,-39.864 93.043,-77.325 V 342.59 h 93.578 v 11.933 c 0,86.688 -75.308,144.93 -187.484,144.93 C 78.4219,499.453 0,413.984 0,265.129" /><path
         inkscape:connector-curvature="0"
         id="path26"
         style="fill:#013353;fill-opacity:1;fill-rule:nonzero;stroke:none"
         d="M 732.227,492.168 H 456.105 V 7.42188 H 751.332 V 74.8281 c 0,0 -188.027,0 -209.465,0 0,19.3633 0,132.8009 0,152.1719 21.16,0 192.906,0 192.906,0 v 67.406 c 0,0 -171.746,0 -192.906,0 0,18.848 0,111.492 0,130.313 21.321,0 202.41,0 202.41,0 v 67.449 h -12.05" /><path
         inkscape:connector-curvature="0"
         id="path28"
         style="fill:#013353;fill-opacity:1;fill-rule:nonzero;stroke:none"
         d="m 1976.62,492.168 h -419.85 c 0,0 0,-291.938 0,-359.09 -34.3,59.551 -207.13,359.09 -207.13,359.09 h -97.97 V 7.42188 h 82.51 c 0,0 0,290.89112 0,357.74612 34.36,-59.316 207.14,-357.74612 207.14,-357.74612 h 98.01 c 0,0 0.02,394.50412 0.02,417.29712 18.82,0 114.3,0 133.15,0 0,-22.793 0,-417.29712 0,-417.29712 h 85.71 c 0,0 0,394.50412 0,417.29712 19.87,0 130.45,0 130.45,0 v 67.449 h -12.04" /><path
         inkscape:connector-curvature="0"
         id="path30"
         style="fill:#013353;fill-opacity:1;fill-rule:nonzero;stroke:none"
         d="m 939.309,217.059 c 8.269,23.632 48.953,139.726 63.571,181.488 14.59,-41.762 55.37,-157.856 63.64,-181.488 -23.89,0 -103.317,0 -127.211,0 z M 1048.33,492.168 H 956.59 L 773.637,7.42188 h 87.386 c 0,0 47.79,128.18012 53.02,142.06612 14.687,0 163.267,0 177.787,0 5.31,-13.75 54.61,-142.06612 54.61,-142.06612 h 87.37 L 1048.33,492.168" /><path
         inkscape:connector-curvature="0"
         id="path32"
         style="fill:#013353;fill-opacity:1;fill-rule:nonzero;stroke:none"
         d="M 2792.38,953.508 C 2473.46,1348.36 1181.75,790.523 834.402,643.707 c -25.058,-10.5 -57.031,-8.187 -75.148,27.824 13.66,-34.734 42.641,-48.968 78.137,-34.734 461.829,184.516 1575.159,584.663 1853.769,219.258 126.09,-165.231 90.73,-369.356 -47.23,-655.157 -6.56,-12.378 -10.83,-20.468 -11.78,-22.07 -0.42,-0.816 -0.91,-1.43 -1.36,-2.18 -0.44,-0.738 -0.92,-1.609 -1.33,-2.238 -10.58,-17.23 -24.11,-26.672 -37.69,-30.469 15.94,0.809 32.9,8.618 45.87,28.809 3.34,5.262 7.8,12.512 13.07,21.422 l -0.07,0.098 c 204.41,340.085 274.84,594.464 141.74,759.238" /><path
         inkscape:connector-curvature="0"
         id="path34"
         style="fill:#ed0f53;fill-opacity:1;fill-rule:nonzero;stroke:none"
         d="m 2549.71,157.48 c -4.67,3.86 -61.83,55.372 -119.18,109.344 C 2127.24,552.551 1213.16,1436.64 813.594,1204.45 700.98,1139 681.594,948.605 751.355,694.504 c 0.188,-0.516 0.329,-0.899 0.465,-1.324 v -0.082 c 0.938,-3.379 1.895,-6.793 2.895,-10.102 7.57,-26.453 26.789,-43.156 49.84,-44.668 -17.75,4.574 -31.992,17.684 -39.492,37.957 -1.141,2.731 -2.125,5.664 -2.938,8.442 -1.199,4.406 -2.316,8.957 -3.574,13.628 l -0.074,-0.05 c -0.7,2.98 -1.348,5.879 -1.848,8.851 -37.176,215.399 7.476,357.124 94.633,414.324 320.158,210.29 1090.348,-452.73 1476.178,-786.531 88.4,-76.511 187.86,-161.519 219.18,-185.058 44.37,-33.481 80.29,4.918 89.39,20.5 -13.74,-20.411 -51.74,-41.52 -86.3,-12.911" /></g></g></svg>
