<?xml version="1.0" encoding="UTF-8" standalone="no"?>
<svg
   xmlns:dc="http://purl.org/dc/elements/1.1/"
   xmlns:cc="http://creativecommons.org/ns#"
   xmlns:rdf="http://www.w3.org/1999/02/22-rdf-syntax-ns#"
   xmlns:svg="http://www.w3.org/2000/svg"
   xmlns="http://www.w3.org/2000/svg"
   viewBox="0 0 388.17334 150.17332"
   height="150.17332"
   width="388.17334"
   xml:space="preserve"
   id="svg2"
   version="1.1"><metadata
     id="metadata8"><rdf:RDF><cc:Work
         rdf:about=""><dc:format>image/svg+xml</dc:format><dc:type
           rdf:resource="http://purl.org/dc/dcmitype/StillImage" /></cc:Work></rdf:RDF></metadata><defs
     id="defs6" /><g
     transform="matrix(1.3333333,0,0,-1.3333333,0,150.17333)"
     id="g10"><g
       transform="scale(0.1)"
       id="g12"><path
         id="path14"
         style="fill:#231f20;fill-opacity:1;fill-rule:nonzero;stroke:none"
         d="M -0.00390625,245.539 H 49.5664 V 4.23828 H -0.00390625 V 245.539" /><path
         id="path16"
         style="fill:#231f20;fill-opacity:1;fill-rule:nonzero;stroke:none"
         d="m 86.9805,245.539 h 51.1915 l 55.437,-108.258 c 7.825,-15.332 11.739,-23.152 19.563,-41.4099 h 0.652 V 245.539 h 45 V 4.23828 H 212.848 L 150.242,121.301 c -6.855,13.047 -10.441,19.89 -17.609,35.867 H 131.98 V 4.23828 H 86.9805 V 245.539" /><path
         id="path18"
         style="fill:#231f20;fill-opacity:1;fill-rule:nonzero;stroke:none"
         d="m 364.266,45.6484 c 41.738,0 56.414,21.5235 56.414,79.8906 0,56.414 -14.676,78.262 -56.739,78.262 H 346.004 V 45.6484 Z M 296.441,245.539 h 63.262 c 64.883,0 110.539,-26.738 110.539,-120 C 470.242,31.6289 423.609,4.23828 359.703,4.23828 H 296.441 V 245.539" /><path
         id="path20"
         style="fill:#231f20;fill-opacity:1;fill-rule:nonzero;stroke:none"
         d="m 499.246,245.539 h 49.57 V 4.23828 h -49.57 V 245.539" /><path
         id="path22"
         style="fill:#231f20;fill-opacity:1;fill-rule:nonzero;stroke:none"
         d="m 679.352,118.039 c -6.524,25.438 -11.739,43.375 -16.309,65.867 h -0.645 c -4.238,-22.82 -9.785,-40.105 -16.628,-65.535 l -6.524,-24.7812 h 46.297 z M 615.77,4.23828 H 569.461 L 640.223,246.516 h 47.605 L 758.59,4.23828 H 708.699 L 695.652,55.1094 H 629.137 L 615.77,4.23828" /><path
         id="path24"
         style="fill:#231f20;fill-opacity:1;fill-rule:nonzero;stroke:none"
         d="m 778.922,245.539 h 51.191 l 55.442,-108.258 c 7.82,-15.332 11.738,-23.152 19.558,-41.4099 h 0.657 V 245.539 h 45 V 4.23828 H 904.793 L 842.184,121.301 c -6.856,13.047 -10.438,19.89 -17.606,35.867 h -0.656 V 4.23828 h -45 V 245.539" /><path
         id="path26"
         style="fill:#231f20;fill-opacity:1;fill-rule:nonzero;stroke:none"
         d="m 1081.48,118.039 c -6.52,25.438 -11.74,43.375 -16.31,65.867 h -0.64 c -4.24,-22.82 -9.79,-40.105 -16.63,-65.535 l -6.53,-24.7812 h 46.3 z M 1017.9,4.23828 h -46.31 l 70.76,242.27772 h 47.61 L 1160.72,4.23828 h -49.89 l -13.05,50.87112 h -66.51 L 1017.9,4.23828" /><path
         id="path28"
         style="fill:#231f20;fill-opacity:1;fill-rule:nonzero;stroke:none"
         d="M 1254.23,87.7188 V 245.539 h 49.58 V 90.6484 c 0,-33.5781 9.45,-48.5781 34.23,-48.5781 24.78,0 34.24,15.3203 34.24,48.25 V 245.539 h 47.28 V 88.0391 c 0,-55.7578 -23.8,-87.710975 -82.17,-87.710975 -58.37,0 -83.16,31.953175 -83.16,87.390675" /><path
         id="path30"
         style="fill:#231f20;fill-opacity:1;fill-rule:nonzero;stroke:none"
         d="m 1454.69,245.539 h 51.2 l 55.43,-108.258 c 7.83,-15.332 11.74,-23.152 19.57,-41.4099 h 0.65 V 245.539 h 45 V 4.23828 h -45.98 l -62.6,117.06272 c -6.86,13.047 -10.44,19.89 -17.61,35.867 h -0.66 V 4.23828 h -45 V 245.539" /><path
         id="path32"
         style="fill:#231f20;fill-opacity:1;fill-rule:nonzero;stroke:none"
         d="m 1665.07,245.539 h 49.57 V 4.23828 h -49.57 V 245.539" /><path
         id="path34"
         style="fill:#231f20;fill-opacity:1;fill-rule:nonzero;stroke:none"
         d="m 1735.28,245.539 h 49.89 l 28.37,-114.125 c 5.87,-22.824 10.11,-40.1054 14.68,-64.2421 h 0.64 c 4.9,23.8086 9.47,40.7581 15,63.5861 l 29.36,114.781 h 46.3 L 1851.36,3.26172 h -47.93 L 1735.28,245.539" /><path
         id="path36"
         style="fill:#231f20;fill-opacity:1;fill-rule:nonzero;stroke:none"
         d="m 1939.86,245.539 h 138.25 v -41.738 h -88.69 v -54.453 h 63.92 v -39.457 h -63.92 V 45 h 93.26 V 4.23828 H 1939.86 V 245.539" /><path
         id="path38"
         style="fill:#231f20;fill-opacity:1;fill-rule:nonzero;stroke:none"
         d="m 2179.81,131.414 c 24.13,0 36.19,10.106 36.19,37.5 0,26.082 -12.06,35.215 -36.19,35.215 h -25.11 v -72.715 z m -73.69,114.125 h 75.32 c 50.87,0 81.85,-21.519 81.85,-75.648 0,-32.938 -16.3,-54.782 -39.79,-64.243 L 2269.49,4.23828 h -51.2 L 2177.53,93.5898 H 2154.7 V 4.23828 h -48.58 V 245.539" /><path
         id="path40"
         style="fill:#231f20;fill-opacity:1;fill-rule:nonzero;stroke:none"
         d="m 2279.36,57.3906 40.11,20.2188 c 10.43,-20.8711 27.06,-38.1602 50.54,-38.1602 20.87,0 31.95,11.0899 31.95,27.4024 0,19.8867 -19.88,29.0195 -42.72,38.7964 -31.63,13.372 -70.42,28.7 -70.42,77.282 0,40.109 32.6,67.175 76.63,67.175 41.4,0 66.51,-23.152 81.19,-53.804 l -38.48,-20.871 c -10.11,20.222 -23.48,33.914 -43.7,33.914 -17.28,0 -27.06,-10.438 -27.06,-24.129 0,-19.238 18.26,-28.367 39.78,-38.152 32.28,-14.02 73.37,-29.344 73.37,-78.2544 C 2450.55,32.2813 2422.51,0 2370.01,0 c -47.29,0 -74.35,23.4805 -90.65,57.3906" /><path
         id="path42"
         style="fill:#231f20;fill-opacity:1;fill-rule:nonzero;stroke:none"
         d="m 2478.29,245.539 h 49.57 V 4.23828 h -49.57 V 245.539" /><path
         id="path44"
         style="fill:#231f20;fill-opacity:1;fill-rule:nonzero;stroke:none"
         d="m 2606.68,203.801 h -57.4 v 41.738 h 164.68 v -41.738 h -57.72 V 4.23828 h -49.56 V 203.801" /><path
         id="path46"
         style="fill:#231f20;fill-opacity:1;fill-rule:nonzero;stroke:none"
         d="m 2793.6,98.8086 -67.82,146.7304 h 50.54 l 43.04,-101.738 h 0.66 l 43.04,101.738 h 48.26 L 2843.17,99.1289 V 4.23828 H 2793.6 V 98.8086" /><path
         id="path48"
         style="fill:#a31934;fill-opacity:1;fill-rule:nonzero;stroke:none"
         d="m 1147.8,406.309 h 613.94 V 1126.31 H 1147.8 V 406.309" /><path
         id="path50"
         style="fill:#ffffff;fill-opacity:1;fill-rule:nonzero;stroke:none"
         d="m 1524.03,952.734 v -38.203 h 26.46 V 701.68 h -55.93 v 280.293 h 29.7 v 38.237 h -139.45 v -38.237 h 29.71 V 701.68 h -56.54 v 212.851 h 26.44 v 38.203 h -131.19 v -38.203 h 29.63 V 668.047 l 48.22,-49.207 h 83.44 v -56.797 h -29.61 v -49.25 h 139.26 v 49.25 h -29.61 v 56.797 h 82.77 l 48.22,49.207 v 246.484 h 29.75 v 38.203 h -131.27" /></g></g></svg>