<?xml version="1.0" encoding="UTF-8"?>
<svg xmlns="http://www.w3.org/2000/svg" width="126" height="94">
<path fill="#ef2c30" d="M 48.558868,65.072854 C 53.978722,55.229107 57.394209,47.17836 59.614451,41.222862 l 0,-9.815997 3.343737,0.0015 c 0.01225,-0.041 0.02925,-0.09088 0.0415,-0.130875 C 70.19691,9.945997 48.363494,10.254997 40.200025,22.977243 c -0.720747,1.123999 -0.849122,2.122499 -0.138749,2.897874 0.540998,0.589375 1.424869,0.589375 1.817868,0.1475 11.57958,-13.030746 19.844674,-8.302248 17.583932,0.441875 -1.391619,5.387248 -3.641111,11.267121 -6.228976,17.069369 0.788622,0 1.494119,0 1.494119,0 l 0,3.815374 -3.246987,0 c -6.705599,14.19587 -14.793943,27.144991 -16.478937,30.19924 -1.571869,2.850624 2.438366,9.624022 2.438366,9.624022 C 50.058862,67.187104 71.652029,54.324358 96.087936,49.636859 L 97.264681,48.22136 C 71.573905,50.557234 57.872707,58.008982 48.558868,65.072854" />
<path d="m 14.181,46.46211 2.442866,0 0,-14.18062 -2.442866,0 0,14.18062 z"/>
<path d="m 28.51107,32.281365 0,7.589872 -2.66599,-7.589872 -2.60799,0 -0.0082,14.180745 2.314491,0 0,-7.832997 2.75674,7.832997 2.525365,0 0,-14.180745 -2.314366,0"/>
<path d="m 42.88789,32.284865 -6.975473,0 0,2.054124 2.272866,0 -0.0067,12.126996 2.443366,0 0,-12.126996 2.265991,0 0,-2.054124"/>
<path d="m 50.57786,44.415236 0,-4.564499 2.967239,0 0,-2.053249 -2.967239,0 0,-3.455499 3.155238,0.001 0,-2.056749 -5.588353,0 -0.0097,14.18212 5.711853,0 0,-2.053124 -3.268988,0"/>
<path d="m 78.016755,32.281365 0,7.589872 -2.665115,-7.589872 -2.608365,0 -0.0087,14.180745 2.314491,0 0,-7.832997 2.75774,7.832997 2.525365,0 0,-14.180745 -2.315366,0"/>
<path d="m 67.345421,46.473235 -2.314491,0 -0.770497,-4.044373 c -0.292999,-1.59425 -0.515123,-2.562 -1.118121,-2.562 l -0.197749,0 0,6.603498 -2.452241,0 0.0084,-14.18162 3.215238,0.001 c 1.022996,0 1.781243,0.262625 2.319366,0.80075 0.611873,0.611874 0.909747,1.542999 0.909747,2.844249 -0.0015,1.705499 -0.584998,2.579624 -1.252496,3.066374 0.671373,0.734874 0.837372,1.911624 0.976497,2.911124 l 0.676372,4.560998 z M 64.156933,34.565114 c -0.148999,-0.149 -0.375998,-0.222125 -0.694872,-0.222125 l -0.517498,0 0,3.433499 0.211374,0 c 0.843247,0 1.34762,-0.691875 1.35012,-1.851499 0,-0.661625 -0.121125,-1.131875 -0.349124,-1.359875"/>
<path d="m 89.042088,44.415236 0,-4.564499 2.966238,0 0,-2.053249 -2.966238,0 0,-3.455499 3.154238,0.001 0,-2.056749 -5.587354,0 -0.0097,14.18212 5.711853,0 0,-2.053124 -3.268987,0"/>
<path d="m 104.18115,32.284865 -6.976469,0 0,2.054124 2.272867,0 -0.0059,12.126996 2.442367,0 -0.007,-12.126996 2.27436,0 0,-2.054124"/>
<path d="m 105.32965,43.723236 c 0,-1.591749 1.30275,-2.893999 2.89449,-2.893999 1.59174,0 2.89399,1.30225 2.89399,2.893999 0,1.591875 -1.30225,2.894624 -2.89399,2.894624 -1.59174,0 -2.89449,-1.302749 -2.89449,-2.894624 z m 2.89449,3.400999 c 1.88087,0 3.40086,-1.519624 3.40086,-3.400999 0,-1.866624 -1.53462,-3.400874 -3.40086,-3.400874 -1.86674,0 -3.40086,1.53425 -3.40086,3.400874 0,1.881375 1.53412,3.400999 3.40086,3.400999 z m -1.28812,-1.692874 0.65087,0 0,-1.447375 0.78225,0 0.54937,1.447375 0.72412,0 -0.66649,-1.548375 c 0.23187,-0.11625 0.62249,-0.246125 0.62249,-0.883375 0,-1.041999 -0.78124,-1.157124 -1.46237,-1.157124 l -1.20024,0 0,3.588874 z m 0.65087,-2.967374 0.72362,0 c 0.39063,0 0.608,0.15975 0.608,0.477999 0,0.318375 -0.24662,0.463 -0.54937,0.463 l -0.78225,0 0,-0.940999"/>
</svg>