<?xml version="1.0" encoding="UTF-8" standalone="no"?>
<!-- Created with Inkscape (http://www.inkscape.org/) -->

<svg
   xmlns:dc="http://purl.org/dc/elements/1.1/"
   xmlns:cc="http://creativecommons.org/ns#"
   xmlns:rdf="http://www.w3.org/1999/02/22-rdf-syntax-ns#"
   xmlns:svg="http://www.w3.org/2000/svg"
   xmlns="http://www.w3.org/2000/svg"
   xmlns:sodipodi="http://sodipodi.sourceforge.net/DTD/sodipodi-0.dtd"
   xmlns:inkscape="http://www.inkscape.org/namespaces/inkscape"
   width="510.71478mm"
   height="122.63451mm"
   viewBox="0 0 510.71476 122.63451"
   version="1.1"
   id="svg8"
   sodipodi:docname="perfsonar-path.svg"
   inkscape:version="0.91 r13725">
  <defs
     id="defs2" />
  <sodipodi:namedview
     id="base"
     pagecolor="#ffffff"
     bordercolor="#666666"
     borderopacity="1.0"
     inkscape:pageopacity="0.0"
     inkscape:pageshadow="2"
     inkscape:zoom="0.57216797"
     inkscape:cx="781.82511"
     inkscape:cy="-128.1309"
     inkscape:document-units="mm"
     inkscape:current-layer="layer1"
     showgrid="false"
     showguides="false"
     inkscape:guide-bbox="true"
     inkscape:window-width="1951"
     inkscape:window-height="1005"
     inkscape:window-x="55"
     inkscape:window-y="45"
     inkscape:window-maximized="0"
     fit-margin-top="15"
     fit-margin-left="15"
     fit-margin-right="15"
     fit-margin-bottom="15"
     inkscape:pagecheckerboard="false"
     showborder="true">
    <inkscape:grid
       type="xygrid"
       id="grid3713"
       units="mm"
       spacingx="0.5"
       spacingy="0.5"
       originx="193.77905"
       originy="-34.865466" />
    <sodipodi:guide
       position="295.17725,32.14724"
       orientation="0,1"
       id="guide4653"
       inkscape:locked="false" />
    <sodipodi:guide
       position="291.43547,98.129408"
       orientation="0,1"
       id="guide6453"
       inkscape:locked="false" />
    <sodipodi:guide
       position="288.77907,22.634536"
       orientation="0,1"
       id="guide6455"
       inkscape:locked="false" />
  </sodipodi:namedview>
  <metadata
     id="metadata5">
    <rdf:RDF>
      <cc:Work
         rdf:about="">
        <dc:format>image/svg+xml</dc:format>
        <dc:type
           rdf:resource="http://purl.org/dc/dcmitype/StillImage" />
        <dc:title></dc:title>
      </cc:Work>
    </rdf:RDF>
  </metadata>
  <g
     inkscape:label="Main Logo"
     inkscape:groupmode="layer"
     id="layer1"
     transform="translate(193.77909,-139.5)"
     style="display:inline">
    <circle
       style="display:inline;opacity:1;fill:#31b63f;fill-opacity:1;fill-rule:nonzero;stroke:none;stroke-width:6;stroke-linecap:square;stroke-linejoin:miter;stroke-miterlimit:4;stroke-dasharray:none;stroke-dashoffset:0;stroke-opacity:1"
       id="path3715-3"
       cy="197.01413"
       cx="82.479416"
       r="30.000002" />
    <circle
       style="opacity:1;fill:none;fill-opacity:1;fill-rule:nonzero;stroke:#000000;stroke-width:6;stroke-linecap:square;stroke-linejoin:miter;stroke-miterlimit:4;stroke-dasharray:none;stroke-dashoffset:0;stroke-opacity:1"
       id="path3715"
       cy="197"
       cx="82.5"
       r="30" />
    <path
       style="fill:none;fill-rule:evenodd;stroke:#000000;stroke-width:3;stroke-linecap:butt;stroke-linejoin:miter;stroke-miterlimit:4;stroke-dasharray:none;stroke-opacity:1"
       d="m 107.5,197 h -50"
       id="path4522"
       inkscape:connector-curvature="0"
       sodipodi:nodetypes="cc" />
    <path
       style="fill:none;fill-rule:evenodd;stroke:#000000;stroke-width:3;stroke-linecap:butt;stroke-linejoin:miter;stroke-miterlimit:4;stroke-dasharray:none;stroke-opacity:1"
       d="M 82.5,222 V 172"
       id="path4522-6"
       inkscape:connector-curvature="0"
       sodipodi:nodetypes="cc" />
    <path
       style="fill:none;fill-rule:evenodd;stroke:#000000;stroke-width:3;stroke-linecap:butt;stroke-linejoin:miter;stroke-miterlimit:4;stroke-dasharray:none;stroke-opacity:1"
       d="M 82.5,239.5 V 232"
       id="path4522-6-7"
       inkscape:connector-curvature="0"
       sodipodi:nodetypes="cc" />
    <path
       style="fill:none;fill-rule:evenodd;stroke:#000000;stroke-width:3;stroke-linecap:butt;stroke-linejoin:miter;stroke-miterlimit:4;stroke-dasharray:none;stroke-opacity:1"
       d="m 82.5,162 v -7.5"
       id="path4522-6-7-3"
       inkscape:connector-curvature="0"
       sodipodi:nodetypes="cc" />
    <path
       style="fill:none;fill-rule:evenodd;stroke:#000000;stroke-width:3;stroke-linecap:butt;stroke-linejoin:miter;stroke-miterlimit:4;stroke-dasharray:none;stroke-opacity:1"
       d="m 40,197 h 7.5"
       id="path4522-6-7-3-5"
       inkscape:connector-curvature="0"
       sodipodi:nodetypes="cc" />
    <path
       style="fill:none;fill-rule:evenodd;stroke:#000000;stroke-width:3;stroke-linecap:butt;stroke-linejoin:miter;stroke-miterlimit:4;stroke-dasharray:none;stroke-opacity:1"
       d="M 117.5,197 H 125"
       id="path4522-6-7-3-5-6"
       inkscape:connector-curvature="0"
       sodipodi:nodetypes="cc" />
    <g
       style="font-style:normal;font-variant:normal;font-weight:normal;font-stretch:normal;font-size:88.90000153px;line-height:125%;font-family:sans-serif;-inkscape-font-specification:'sans-serif, Normal';text-align:start;letter-spacing:0px;word-spacing:0px;writing-mode:lr-tb;text-anchor:start;fill:#000000;fill-opacity:1;stroke:none;stroke-width:0.26458332px;stroke-linecap:butt;stroke-linejoin:miter;stroke-opacity:1"
       id="text4651">
      <path
         d="m 127.38634,164.98058 11.80703,0 28.73623,54.21685 0,-54.21685 8.50801,0 0,64.80845 -11.80703,0 -28.73623,-54.21684 0,54.21684 -8.50801,0 0,-64.80845 z"
         style="font-style:normal;font-variant:normal;font-weight:normal;font-stretch:normal;font-size:88.90000153px;font-family:'DejaVu Sans';-inkscape-font-specification:'DejaVu Sans, Normal';text-align:start;writing-mode:lr-tb;text-anchor:start;stroke-width:0.26458332px"
         id="path3514" />
      <path
         d="m 213.94479,173.61882 -11.89385,32.25229 23.8311,0 -11.93725,-32.25229 z m -4.94854,-8.63824 9.94048,0 24.69927,64.80845 -9.11572,0 -5.90352,-16.62534 -29.21372,0 -5.90352,16.62534 -9.24594,0 24.74267,-64.80845 z"
         style="font-style:normal;font-variant:normal;font-weight:normal;font-stretch:normal;font-size:88.90000153px;font-family:'DejaVu Sans';-inkscape-font-specification:'DejaVu Sans, Normal';text-align:start;writing-mode:lr-tb;text-anchor:start;stroke-width:0.26458332px"
         id="path3516" />
      <path
         d="m 282.18496,199.40329 q 2.82154,0.95498 5.46944,4.08037 2.69131,3.12539 5.38261,8.59482 l 8.89869,17.71055 -9.41958,0 -8.29097,-16.62534 q -3.21221,-6.51123 -6.25078,-8.63823 -2.99517,-2.127 -8.20415,-2.127 l -9.54981,0 0,27.39057 -8.76846,0 0,-64.80845 19.79415,0 q 11.1125,0 16.58193,4.64468 5.46943,4.64468 5.46943,14.02085 0,6.12056 -2.86494,10.15752 -2.82153,4.03696 -8.24756,5.59966 z m -21.96455,-27.21694 0,23.00634 11.02569,0 q 6.33759,0 9.5498,-2.90835 3.25562,-2.95175 3.25562,-8.63823 0,-5.68647 -3.25562,-8.55141 -3.21221,-2.90835 -9.5498,-2.90835 l -11.02569,0 z"
         style="font-style:normal;font-variant:normal;font-weight:normal;font-stretch:normal;font-size:88.90000153px;font-family:'DejaVu Sans';-inkscape-font-specification:'DejaVu Sans, Normal';text-align:start;writing-mode:lr-tb;text-anchor:start;stroke-width:0.26458332px"
         id="path3518" />
    </g>
    <g
       style="font-style:normal;font-variant:normal;font-weight:normal;font-stretch:normal;font-size:88.90000153px;line-height:125%;font-family:'DejaVu Sans';-inkscape-font-specification:'DejaVu Sans, Normal';text-align:end;letter-spacing:0px;word-spacing:0px;writing-mode:lr-tb;text-anchor:end;fill:#000000;fill-opacity:1;stroke:none;stroke-width:0.26458332px;stroke-linecap:butt;stroke-linejoin:miter;stroke-opacity:1"
       id="text4651-0">
      <path
         d="m -170.92221,221.35003 0,25.78447 -8.03051,0 0,-67.10908 8.03051,0 0,7.37939 q 2.51768,-4.34082 6.3376,-6.42441 3.86333,-2.127 9.20254,-2.127 8.85527,0 14.36812,7.03213 5.55625,7.03213 5.55625,18.49189 0,11.45977 -5.55625,18.4919 -5.51285,7.03213 -14.36812,7.03213 -5.33921,0 -9.20254,-2.0836 -3.81992,-2.127 -6.3376,-6.46782 z m 27.17354,-16.97261 q 0,-8.81186 -3.64629,-13.80381 -3.60288,-5.03535 -9.94048,-5.03535 -6.3376,0 -9.98389,5.03535 -3.60288,4.99195 -3.60288,13.80381 0,8.81187 3.60288,13.84722 3.64629,4.99194 9.98389,4.99194 6.3376,0 9.94048,-4.99194 3.64629,-5.03535 3.64629,-13.84722 z"
         style=""
         id="path3503" />
      <path
         d="m -85.443996,202.33724 0,3.90674 -36.723344,0 q 0.5209,8.24755 4.94854,12.58837 4.47104,4.29742 12.41475,4.29742 4.60126,0 8.898677,-1.12862 4.34082,-1.12861 8.594824,-3.38584 l 0,7.55303 q -4.297412,1.82315 -8.811865,2.77813 -4.514456,0.95498 -9.159136,0.95498 -11.63339,0 -18.44848,-6.77168 -6.77168,-6.77168 -6.77168,-18.31827 0,-11.93725 6.42441,-18.92597 6.46782,-7.03213 17.40669,-7.03213 9.810256,0 15.496731,6.3376 5.729883,6.29419 5.729883,17.14624 z m -7.98711,-2.34405 q -0.08682,-6.55463 -3.689697,-10.46137 -3.559477,-3.90674 -9.462987,-3.90674 -6.68486,0 -10.72183,3.77651 -3.99355,3.77652 -4.60127,10.63501 l 28.475784,-0.0434 z"
         style=""
         id="path3505" />
      <path
         d="m -49.147277,187.49163 q -1.345654,-0.78135 -2.951758,-1.12861 -1.562695,-0.39068 -3.472656,-0.39068 -6.77168,0 -10.417969,4.42764 -3.602881,4.38423 -3.602881,12.63179 l 0,25.61084 -8.030518,0 0,-48.61719 8.030518,0 0,7.55303 q 2.517676,-4.42764 6.554639,-6.55464 4.036963,-2.17041 9.810254,-2.17041 0.824756,0 1.823145,0.13022 0.998388,0.0868 2.213818,0.30386 l 0.04341,8.20415 z"
         style=""
         id="path3507" />
      <path
         d="m -13.39753,161.09944 0,6.64146 -7.639844,0 q -4.297412,0 -5.990332,1.73633 -1.649512,1.73632 -1.649512,6.25078 l 0,4.29741 13.152686,0 0,6.20737 -13.152686,0 0,42.40982 -8.030518,0 0,-42.40982 -7.639844,0 0,-6.20737 7.639844,0 0,-3.38584 q 0,-8.11733 3.776514,-11.80703 3.776514,-3.73311 11.980664,-3.73311 l 7.553028,0 z"
         style=""
         id="path3509" />
      <path
         d="m 33.684239,165.96116 0,8.55142 q -4.991944,-2.38745 -9.41958,-3.55947 -4.427637,-1.17203 -8.551417,-1.17203 -7.1623532,0 -11.0690916,2.77813 -3.86333013,2.77812 -3.86333013,7.90029 0,4.29741 2.56108403,6.51123 2.6044922,2.17041 9.8102537,3.51607 l 5.295801,1.0852 q 9.810254,1.86656 14.454932,6.59805 4.688086,4.68809 4.688086,12.58838 0,9.41958 -6.337598,14.2813 -6.294189,4.86172 -18.491894,4.86172 -4.6012701,0 -9.8102545,-1.0418 -5.1655763,-1.0418 -10.7218264,-3.08198 l 0,-9.02891 q 5.3392091,2.99517 10.4613771,4.51445 5.1221681,1.51929 10.0707038,1.51929 7.509619,0 11.58999,-2.95176 4.080371,-2.95175 4.080371,-8.42119 0,-4.7749 -2.951758,-7.46621 -2.908349,-2.69131 -9.593213,-4.03696 l -5.339209,-1.0418 q -9.81025393,-1.95337 -14.1944825,-6.12056 -4.3842286,-4.16718 -4.3842286,-11.58999 0,-8.59482 6.0337403,-13.54336 6.0771486,-4.94853 16.7121588,-4.94853 4.557861,0 9.289355,0.82475 4.731495,0.82476 9.68003,2.47427 z"
         style=""
         id="path3511" />
    </g>
    <text
       xml:space="preserve"
       style="font-style:normal;font-variant:normal;font-weight:normal;font-stretch:normal;font-size:70.55554962px;line-height:125%;font-family:sans-serif;-inkscape-font-specification:'sans-serif, Normal';font-variant-ligatures:normal;font-variant-caps:normal;font-variant-numeric:normal;font-feature-settings:normal;text-align:start;letter-spacing:0px;word-spacing:0px;writing-mode:lr-tb;text-anchor:start;fill:#000000;fill-opacity:1;stroke:none;stroke-width:0.26458332px;stroke-linecap:butt;stroke-linejoin:miter;stroke-opacity:1"
       x="309.99997"
       y="219.5"
       id="text4725"><tspan
         sodipodi:role="line"
         id="tspan4723"
         x="309.99997"
         y="281.92511"
         style="stroke-width:0.26458332px" /></text>
  </g>
  <g
     inkscape:groupmode="layer"
     id="layer2"
     inkscape:label="Powered"
     style="display:none"
     transform="translate(8.9310832,14.999994)">
    <text
       xml:space="preserve"
       style="font-style:normal;font-variant:normal;font-weight:normal;font-stretch:normal;font-size:70.55555725px;line-height:125%;font-family:sans-serif;-inkscape-font-specification:'sans-serif, Normal';font-variant-ligatures:normal;font-variant-caps:normal;font-variant-numeric:normal;font-feature-settings:normal;text-align:start;letter-spacing:0px;word-spacing:0px;writing-mode:lr-tb;text-anchor:start;fill:#000000;fill-opacity:1;stroke:none;stroke-width:0.26458332px;stroke-linecap:butt;stroke-linejoin:miter;stroke-opacity:1"
       x="261.10617"
       y="126.18223"
       id="text4651-0-4"><tspan
         style="font-style:normal;font-variant:normal;font-weight:normal;font-stretch:normal;font-size:54.15139008px;font-family:'DejaVu Sans';-inkscape-font-specification:'DejaVu Sans, Normal';font-variant-ligatures:normal;font-variant-caps:normal;font-variant-numeric:normal;font-feature-settings:normal;text-align:start;writing-mode:lr-tb;text-anchor:start;stroke-width:0.26458332px"
         y="126.18223"
         x="261.10617"
         sodipodi:role="line"
         id="tspan4684-1"
         dx="0 -0.75595242 -1.7008929 -0.37797618">powered</tspan></text>
    <text
       xml:space="preserve"
       style="font-style:normal;font-variant:normal;font-weight:normal;font-stretch:normal;font-size:70.55554962px;line-height:125%;font-family:sans-serif;-inkscape-font-specification:'sans-serif, Normal';font-variant-ligatures:normal;font-variant-caps:normal;font-variant-numeric:normal;font-feature-settings:normal;text-align:start;letter-spacing:0px;word-spacing:0px;writing-mode:lr-tb;text-anchor:start;fill:#000000;fill-opacity:1;stroke:none;stroke-width:0.26458332px;stroke-linecap:butt;stroke-linejoin:miter;stroke-opacity:1"
       x="363.98819"
       y="-165.55644"
       id="text6229"><tspan
         sodipodi:role="line"
         id="tspan6227"
         x="363.98819"
         y="-103.13132"
         style="stroke-width:0.26458332px" /></text>
  </g>
</svg>
