<?xml version="1.0" encoding="UTF-8" standalone="no"?>
<!-- Created with Inkscape (http://www.inkscape.org/) -->

<svg
   xmlns:dc="http://purl.org/dc/elements/1.1/"
   xmlns:cc="http://creativecommons.org/ns#"
   xmlns:rdf="http://www.w3.org/1999/02/22-rdf-syntax-ns#"
   xmlns:svg="http://www.w3.org/2000/svg"
   xmlns="http://www.w3.org/2000/svg"
   xmlns:sodipodi="http://sodipodi.sourceforge.net/DTD/sodipodi-0.dtd"
   xmlns:inkscape="http://www.inkscape.org/namespaces/inkscape"
   width="511.23532mm"
   height="167.44614mm"
   viewBox="0 0 511.2353 167.44614"
   version="1.1"
   id="svg8"
   sodipodi:docname="perfsonar-powered-path.svg"
   inkscape:version="0.91 r13725">
  <defs
     id="defs2" />
  <sodipodi:namedview
     id="base"
     pagecolor="#ffffff"
     bordercolor="#666666"
     borderopacity="1.0"
     inkscape:pageopacity="0.0"
     inkscape:pageshadow="2"
     inkscape:zoom="0.57216797"
     inkscape:cx="781.82511"
     inkscape:cy="41.235903"
     inkscape:document-units="mm"
     inkscape:current-layer="layer2"
     showgrid="false"
     showguides="false"
     inkscape:guide-bbox="true"
     inkscape:window-width="1951"
     inkscape:window-height="1005"
     inkscape:window-x="55"
     inkscape:window-y="45"
     inkscape:window-maximized="0"
     fit-margin-top="15"
     fit-margin-left="15"
     fit-margin-right="15"
     fit-margin-bottom="15"
     inkscape:pagecheckerboard="false"
     showborder="true">
    <inkscape:grid
       type="xygrid"
       id="grid3713"
       units="mm"
       spacingx="0.5"
       spacingy="0.5"
       originx="193.77906"
       originy="9.9461689" />
    <sodipodi:guide
       position="295.17725,76.958873"
       orientation="0,1"
       id="guide4653"
       inkscape:locked="false" />
    <sodipodi:guide
       position="291.43547,142.94104"
       orientation="0,1"
       id="guide6453"
       inkscape:locked="false" />
    <sodipodi:guide
       position="288.77907,67.446169"
       orientation="0,1"
       id="guide6455"
       inkscape:locked="false" />
  </sodipodi:namedview>
  <metadata
     id="metadata5">
    <rdf:RDF>
      <cc:Work
         rdf:about="">
        <dc:format>image/svg+xml</dc:format>
        <dc:type
           rdf:resource="http://purl.org/dc/dcmitype/StillImage" />
        <dc:title></dc:title>
      </cc:Work>
    </rdf:RDF>
  </metadata>
  <g
     inkscape:label="Main Logo"
     inkscape:groupmode="layer"
     id="layer1"
     transform="translate(193.77909,-139.5)"
     style="display:inline">
    <circle
       style="display:inline;opacity:1;fill:#31b63f;fill-opacity:1;fill-rule:nonzero;stroke:none;stroke-width:6;stroke-linecap:square;stroke-linejoin:miter;stroke-miterlimit:4;stroke-dasharray:none;stroke-dashoffset:0;stroke-opacity:1"
       id="path3715-3"
       cy="197.01413"
       cx="82.479416"
       r="30.000002" />
    <circle
       style="opacity:1;fill:none;fill-opacity:1;fill-rule:nonzero;stroke:#000000;stroke-width:6;stroke-linecap:square;stroke-linejoin:miter;stroke-miterlimit:4;stroke-dasharray:none;stroke-dashoffset:0;stroke-opacity:1"
       id="path3715"
       cy="197"
       cx="82.5"
       r="30" />
    <path
       style="fill:none;fill-rule:evenodd;stroke:#000000;stroke-width:3;stroke-linecap:butt;stroke-linejoin:miter;stroke-miterlimit:4;stroke-dasharray:none;stroke-opacity:1"
       d="m 107.5,197 h -50"
       id="path4522"
       inkscape:connector-curvature="0"
       sodipodi:nodetypes="cc" />
    <path
       style="fill:none;fill-rule:evenodd;stroke:#000000;stroke-width:3;stroke-linecap:butt;stroke-linejoin:miter;stroke-miterlimit:4;stroke-dasharray:none;stroke-opacity:1"
       d="M 82.5,222 V 172"
       id="path4522-6"
       inkscape:connector-curvature="0"
       sodipodi:nodetypes="cc" />
    <path
       style="fill:none;fill-rule:evenodd;stroke:#000000;stroke-width:3;stroke-linecap:butt;stroke-linejoin:miter;stroke-miterlimit:4;stroke-dasharray:none;stroke-opacity:1"
       d="M 82.5,239.5 V 232"
       id="path4522-6-7"
       inkscape:connector-curvature="0"
       sodipodi:nodetypes="cc" />
    <path
       style="fill:none;fill-rule:evenodd;stroke:#000000;stroke-width:3;stroke-linecap:butt;stroke-linejoin:miter;stroke-miterlimit:4;stroke-dasharray:none;stroke-opacity:1"
       d="m 82.5,162 v -7.5"
       id="path4522-6-7-3"
       inkscape:connector-curvature="0"
       sodipodi:nodetypes="cc" />
    <path
       style="fill:none;fill-rule:evenodd;stroke:#000000;stroke-width:3;stroke-linecap:butt;stroke-linejoin:miter;stroke-miterlimit:4;stroke-dasharray:none;stroke-opacity:1"
       d="m 40,197 h 7.5"
       id="path4522-6-7-3-5"
       inkscape:connector-curvature="0"
       sodipodi:nodetypes="cc" />
    <path
       style="fill:none;fill-rule:evenodd;stroke:#000000;stroke-width:3;stroke-linecap:butt;stroke-linejoin:miter;stroke-miterlimit:4;stroke-dasharray:none;stroke-opacity:1"
       d="M 117.5,197 H 125"
       id="path4522-6-7-3-5-6"
       inkscape:connector-curvature="0"
       sodipodi:nodetypes="cc" />
    <g
       style="font-style:normal;font-variant:normal;font-weight:normal;font-stretch:normal;font-size:88.90000153px;line-height:125%;font-family:sans-serif;-inkscape-font-specification:'sans-serif, Normal';text-align:start;letter-spacing:0px;word-spacing:0px;writing-mode:lr-tb;text-anchor:start;fill:#000000;fill-opacity:1;stroke:none;stroke-width:0.26458332px;stroke-linecap:butt;stroke-linejoin:miter;stroke-opacity:1"
       id="text4651">
      <path
         d="m 127.38634,164.98058 11.80703,0 28.73623,54.21685 0,-54.21685 8.50801,0 0,64.80845 -11.80703,0 -28.73623,-54.21684 0,54.21684 -8.50801,0 0,-64.80845 z"
         style="font-style:normal;font-variant:normal;font-weight:normal;font-stretch:normal;font-size:88.90000153px;font-family:'DejaVu Sans';-inkscape-font-specification:'DejaVu Sans, Normal';text-align:start;writing-mode:lr-tb;text-anchor:start;stroke-width:0.26458332px"
         id="path3368" />
      <path
         d="m 213.94479,173.61882 -11.89385,32.25229 23.8311,0 -11.93725,-32.25229 z m -4.94854,-8.63824 9.94048,0 24.69927,64.80845 -9.11572,0 -5.90352,-16.62534 -29.21372,0 -5.90352,16.62534 -9.24594,0 24.74267,-64.80845 z"
         style="font-style:normal;font-variant:normal;font-weight:normal;font-stretch:normal;font-size:88.90000153px;font-family:'DejaVu Sans';-inkscape-font-specification:'DejaVu Sans, Normal';text-align:start;writing-mode:lr-tb;text-anchor:start;stroke-width:0.26458332px"
         id="path3370" />
      <path
         d="m 282.18496,199.40329 q 2.82154,0.95498 5.46944,4.08037 2.69131,3.12539 5.38261,8.59482 l 8.89869,17.71055 -9.41958,0 -8.29097,-16.62534 q -3.21221,-6.51123 -6.25078,-8.63823 -2.99517,-2.127 -8.20415,-2.127 l -9.54981,0 0,27.39057 -8.76846,0 0,-64.80845 19.79415,0 q 11.1125,0 16.58193,4.64468 5.46943,4.64468 5.46943,14.02085 0,6.12056 -2.86494,10.15752 -2.82153,4.03696 -8.24756,5.59966 z m -21.96455,-27.21694 0,23.00634 11.02569,0 q 6.33759,0 9.5498,-2.90835 3.25562,-2.95175 3.25562,-8.63823 0,-5.68647 -3.25562,-8.55141 -3.21221,-2.90835 -9.5498,-2.90835 l -11.02569,0 z"
         style="font-style:normal;font-variant:normal;font-weight:normal;font-stretch:normal;font-size:88.90000153px;font-family:'DejaVu Sans';-inkscape-font-specification:'DejaVu Sans, Normal';text-align:start;writing-mode:lr-tb;text-anchor:start;stroke-width:0.26458332px"
         id="path3372" />
    </g>
    <g
       style="font-style:normal;font-variant:normal;font-weight:normal;font-stretch:normal;font-size:88.90000153px;line-height:125%;font-family:'DejaVu Sans';-inkscape-font-specification:'DejaVu Sans, Normal';text-align:end;letter-spacing:0px;word-spacing:0px;writing-mode:lr-tb;text-anchor:end;fill:#000000;fill-opacity:1;stroke:none;stroke-width:0.26458332px;stroke-linecap:butt;stroke-linejoin:miter;stroke-opacity:1"
       id="text4651-0">
      <path
         d="m -170.92221,221.35003 0,25.78447 -8.03051,0 0,-67.10908 8.03051,0 0,7.37939 q 2.51768,-4.34082 6.3376,-6.42441 3.86333,-2.127 9.20254,-2.127 8.85527,0 14.36812,7.03213 5.55625,7.03213 5.55625,18.49189 0,11.45977 -5.55625,18.4919 -5.51285,7.03213 -14.36812,7.03213 -5.33921,0 -9.20254,-2.0836 -3.81992,-2.127 -6.3376,-6.46782 z m 27.17354,-16.97261 q 0,-8.81186 -3.64629,-13.80381 -3.60288,-5.03535 -9.94048,-5.03535 -6.3376,0 -9.98389,5.03535 -3.60288,4.99195 -3.60288,13.80381 0,8.81187 3.60288,13.84722 3.64629,4.99194 9.98389,4.99194 6.3376,0 9.94048,-4.99194 3.64629,-5.03535 3.64629,-13.84722 z"
         style=""
         id="path3357" />
      <path
         d="m -85.443996,202.33724 0,3.90674 -36.723344,0 q 0.5209,8.24755 4.94854,12.58837 4.47104,4.29742 12.41475,4.29742 4.60126,0 8.898677,-1.12862 4.34082,-1.12861 8.594824,-3.38584 l 0,7.55303 q -4.297412,1.82315 -8.811865,2.77813 -4.514456,0.95498 -9.159136,0.95498 -11.63339,0 -18.44848,-6.77168 -6.77168,-6.77168 -6.77168,-18.31827 0,-11.93725 6.42441,-18.92597 6.46782,-7.03213 17.40669,-7.03213 9.810256,0 15.496731,6.3376 5.729883,6.29419 5.729883,17.14624 z m -7.98711,-2.34405 q -0.08682,-6.55463 -3.689697,-10.46137 -3.559477,-3.90674 -9.462987,-3.90674 -6.68486,0 -10.72183,3.77651 -3.99355,3.77652 -4.60127,10.63501 l 28.475784,-0.0434 z"
         style=""
         id="path3359" />
      <path
         d="m -49.147277,187.49163 q -1.345654,-0.78135 -2.951758,-1.12861 -1.562695,-0.39068 -3.472656,-0.39068 -6.77168,0 -10.417969,4.42764 -3.602881,4.38423 -3.602881,12.63179 l 0,25.61084 -8.030518,0 0,-48.61719 8.030518,0 0,7.55303 q 2.517676,-4.42764 6.554639,-6.55464 4.036963,-2.17041 9.810254,-2.17041 0.824756,0 1.823145,0.13022 0.998388,0.0868 2.213818,0.30386 l 0.04341,8.20415 z"
         style=""
         id="path3361" />
      <path
         d="m -13.39753,161.09944 0,6.64146 -7.639844,0 q -4.297412,0 -5.990332,1.73633 -1.649512,1.73632 -1.649512,6.25078 l 0,4.29741 13.152686,0 0,6.20737 -13.152686,0 0,42.40982 -8.030518,0 0,-42.40982 -7.639844,0 0,-6.20737 7.639844,0 0,-3.38584 q 0,-8.11733 3.776514,-11.80703 3.776514,-3.73311 11.980664,-3.73311 l 7.553028,0 z"
         style=""
         id="path3363" />
      <path
         d="m 33.684239,165.96116 0,8.55142 q -4.991944,-2.38745 -9.41958,-3.55947 -4.427637,-1.17203 -8.551417,-1.17203 -7.1623532,0 -11.0690916,2.77813 -3.86333013,2.77812 -3.86333013,7.90029 0,4.29741 2.56108403,6.51123 2.6044922,2.17041 9.8102537,3.51607 l 5.295801,1.0852 q 9.810254,1.86656 14.454932,6.59805 4.688086,4.68809 4.688086,12.58838 0,9.41958 -6.337598,14.2813 -6.294189,4.86172 -18.491894,4.86172 -4.6012701,0 -9.8102545,-1.0418 -5.1655763,-1.0418 -10.7218264,-3.08198 l 0,-9.02891 q 5.3392091,2.99517 10.4613771,4.51445 5.1221681,1.51929 10.0707038,1.51929 7.509619,0 11.58999,-2.95176 4.080371,-2.95175 4.080371,-8.42119 0,-4.7749 -2.951758,-7.46621 -2.908349,-2.69131 -9.593213,-4.03696 l -5.339209,-1.0418 q -9.81025393,-1.95337 -14.1944825,-6.12056 -4.3842286,-4.16718 -4.3842286,-11.58999 0,-8.59482 6.0337403,-13.54336 6.0771486,-4.94853 16.7121588,-4.94853 4.557861,0 9.289355,0.82475 4.731495,0.82476 9.68003,2.47427 z"
         style=""
         id="path3365" />
    </g>
    <text
       xml:space="preserve"
       style="font-style:normal;font-variant:normal;font-weight:normal;font-stretch:normal;font-size:70.55554962px;line-height:125%;font-family:sans-serif;-inkscape-font-specification:'sans-serif, Normal';font-variant-ligatures:normal;font-variant-caps:normal;font-variant-numeric:normal;font-feature-settings:normal;text-align:start;letter-spacing:0px;word-spacing:0px;writing-mode:lr-tb;text-anchor:start;fill:#000000;fill-opacity:1;stroke:none;stroke-width:0.26458332px;stroke-linecap:butt;stroke-linejoin:miter;stroke-opacity:1"
       x="309.99997"
       y="219.5"
       id="text4725"><tspan
         sodipodi:role="line"
         id="tspan4723"
         x="309.99997"
         y="281.92511"
         style="stroke-width:0.26458332px" /></text>
  </g>
  <g
     inkscape:groupmode="layer"
     id="layer2"
     inkscape:label="Powered"
     style="display:inline"
     transform="translate(8.9310832,14.999994)">
    <g
       style="font-style:normal;font-variant:normal;font-weight:normal;font-stretch:normal;font-size:70.55555725px;line-height:125%;font-family:sans-serif;-inkscape-font-specification:'sans-serif, Normal';text-align:start;letter-spacing:0px;word-spacing:0px;writing-mode:lr-tb;text-anchor:start;fill:#000000;fill-opacity:1;stroke:none;stroke-width:0.26458332px;stroke-linecap:butt;stroke-linejoin:miter;stroke-opacity:1"
       id="text4651-0-4">
      <path
         d="m 270.91582,121.74012 0,15.70602 -4.8916,0 0,-40.877953 4.8916,0 0,4.494993 q 1.53359,-2.644116 3.8604,-3.913289 2.35326,-1.295614 5.60552,-1.295614 5.39398,0 8.75201,4.283463 3.38446,4.28346 3.38446,11.26391 0,6.98045 -3.38446,11.26391 -3.35803,4.28346 -8.75201,4.28346 -3.25226,0 -5.60552,-1.26917 -2.32681,-1.29562 -3.8604,-3.93973 z m 16.55214,-10.33847 q 0,-5.36755 -2.22106,-8.40827 -2.19461,-3.067173 -6.05501,-3.067173 -3.8604,0 -6.08146,3.067173 -2.19461,3.04072 -2.19461,8.40827 0,5.36754 2.19461,8.43471 2.22106,3.04073 6.08146,3.04073 3.8604,0 6.05501,-3.04073 2.22106,-3.06717 2.22106,-8.43471 z"
         style="font-style:normal;font-variant:normal;font-weight:normal;font-stretch:normal;font-size:54.15139008px;font-family:'DejaVu Sans';-inkscape-font-specification:'DejaVu Sans, Normal';text-align:start;writing-mode:lr-tb;text-anchor:start;stroke-width:0.26458332px"
         id="path3375" />
      <path
         d="m 311.30223,99.97909 q -3.91328,0 -6.18721,3.06717 -2.27394,3.04073 -2.27394,8.35539 0,5.31466 2.24749,8.38183 2.27394,3.04073 6.21366,3.04073 3.88685,0 6.16078,-3.06717 2.27394,-3.06717 2.27394,-8.35539 0,-5.26178 -2.27394,-8.32895 -2.27393,-3.09361 -6.16078,-3.09361 z m 0,-4.124813 q 6.34587,0 9.9683,4.124813 3.62243,4.12481 3.62243,11.42256 0,7.2713 -3.62243,11.42256 -3.62243,4.12481 -9.9683,4.12481 -6.3723,0 -9.99473,-4.12481 -3.596,-4.15126 -3.596,-11.42256 0,-7.29775 3.596,-11.42256 3.62243,-4.124813 9.99473,-4.124813 z"
         style="font-style:normal;font-variant:normal;font-weight:normal;font-stretch:normal;font-size:54.15139008px;font-family:'DejaVu Sans';-inkscape-font-specification:'DejaVu Sans, Normal';text-align:start;writing-mode:lr-tb;text-anchor:start;stroke-width:0.26458332px"
         id="path3377" />
      <path
         d="m 328.40096,96.568187 4.86517,0 6.08145,23.109533 6.05502,-23.109533 5.73772,0 6.08145,23.109533 6.05502,-23.109533 4.86516,0 -7.74724,29.614043 -5.73772,0 -6.37231,-24.27294 -6.39875,24.27294 -5.73772,0 -7.74725,-29.614043 z"
         style="font-style:normal;font-variant:normal;font-weight:normal;font-stretch:normal;font-size:54.15139008px;font-family:'DejaVu Sans';-inkscape-font-specification:'DejaVu Sans, Normal';text-align:start;writing-mode:lr-tb;text-anchor:start;stroke-width:0.26458332px"
         id="path3379" />
      <path
         d="m 400.49807,110.15892 0,2.3797 -22.36918,0 q 0.3173,5.02381 3.01429,7.66792 2.72343,2.61767 7.56216,2.61767 2.80275,0 5.42042,-0.68747 2.64411,-0.68747 5.23534,-2.06241 l 0,4.60075 q -2.61767,1.11053 -5.36754,1.69224 -2.74988,0.5817 -5.57908,0.5817 -7.08621,0 -11.23747,-4.12481 -4.12481,-4.12482 -4.12481,-11.15815 0,-7.27131 3.91328,-11.52832 3.93973,-4.283463 10.60289,-4.283463 5.97569,0 9.43947,3.860402 3.49023,3.833961 3.49023,10.444241 z m -4.86516,-1.42782 q -0.0529,-3.99261 -2.2475,-6.37231 -2.16817,-2.3797 -5.76416,-2.3797 -4.07193,0 -6.53095,2.30038 -2.43259,2.30037 -2.80276,6.47807 l 17.34537,-0.0264 z"
         style="font-style:normal;font-variant:normal;font-weight:normal;font-stretch:normal;font-size:54.15139008px;font-family:'DejaVu Sans';-inkscape-font-specification:'DejaVu Sans, Normal';text-align:start;writing-mode:lr-tb;text-anchor:start;stroke-width:0.26458332px"
         id="path3381" />
      <path
         d="m 425.5378,101.11606 q -0.81968,-0.47594 -1.798,-0.68747 -0.95188,-0.23797 -2.11529,-0.23797 -4.12481,0 -6.34586,2.69699 -2.19462,2.67055 -2.19462,7.69436 l 0,15.60026 -4.8916,0 0,-29.614043 4.8916,0 0,4.600753 q 1.53359,-2.696994 3.99261,-3.992608 2.45903,-1.322055 5.97569,-1.322055 0.50238,0 1.11053,0.07932 0.60814,0.05288 1.3485,0.185088 l 0.0264,4.997372 z"
         style="font-style:normal;font-variant:normal;font-weight:normal;font-stretch:normal;font-size:54.15139008px;font-family:'DejaVu Sans';-inkscape-font-specification:'DejaVu Sans, Normal';text-align:start;writing-mode:lr-tb;text-anchor:start;stroke-width:0.26458332px"
         id="path3383" />
      <path
         d="m 454.91386,110.15892 0,2.3797 -22.36917,0 q 0.31729,5.02381 3.01428,7.66792 2.72344,2.61767 7.56216,2.61767 2.80276,0 5.42043,-0.68747 2.64411,-0.68747 5.23534,-2.06241 l 0,4.60075 q -2.61767,1.11053 -5.36755,1.69224 -2.74987,0.5817 -5.57907,0.5817 -7.08622,0 -11.23747,-4.12481 -4.12482,-4.12482 -4.12482,-11.15815 0,-7.27131 3.91329,-11.52832 3.93972,-4.283463 10.60288,-4.283463 5.97569,0 9.43948,3.860402 3.49022,3.833961 3.49022,10.444241 z m -4.86516,-1.42782 q -0.0529,-3.99261 -2.24749,-6.37231 -2.16817,-2.3797 -5.76417,-2.3797 -4.07193,0 -6.53095,2.30038 -2.43258,2.30037 -2.80276,6.47807 l 17.34537,-0.0264 z"
         style="font-style:normal;font-variant:normal;font-weight:normal;font-stretch:normal;font-size:54.15139008px;font-family:'DejaVu Sans';-inkscape-font-specification:'DejaVu Sans, Normal';text-align:start;writing-mode:lr-tb;text-anchor:start;stroke-width:0.26458332px"
         id="path3385" />
      <path
         d="m 482.3333,101.06318 0,-16.023317 4.86517,0 0,41.142367 -4.86517,0 0,-4.44211 q -1.53358,2.64411 -3.88684,3.93973 -2.32682,1.26917 -5.60551,1.26917 -5.36755,0 -8.75201,-4.28346 -3.35802,-4.28346 -3.35802,-11.26391 0,-6.98045 3.35802,-11.26391 3.38446,-4.283463 8.75201,-4.283463 3.27869,0 5.60551,1.295614 2.35326,1.269173 3.88684,3.913289 z m -16.57857,10.33847 q 0,5.36754 2.19461,8.43471 2.22105,3.04073 6.08146,3.04073 3.8604,0 6.08145,-3.04073 2.22105,-3.06717 2.22105,-8.43471 0,-5.36755 -2.22105,-8.40827 -2.22105,-3.067173 -6.08145,-3.067173 -3.86041,0 -6.08146,3.067173 -2.19461,3.04072 -2.19461,8.40827 z"
         style="font-style:normal;font-variant:normal;font-weight:normal;font-stretch:normal;font-size:54.15139008px;font-family:'DejaVu Sans';-inkscape-font-specification:'DejaVu Sans, Normal';text-align:start;writing-mode:lr-tb;text-anchor:start;stroke-width:0.26458332px"
         id="path3387" />
    </g>
    <text
       xml:space="preserve"
       style="font-style:normal;font-variant:normal;font-weight:normal;font-stretch:normal;font-size:70.55554962px;line-height:125%;font-family:sans-serif;-inkscape-font-specification:'sans-serif, Normal';font-variant-ligatures:normal;font-variant-caps:normal;font-variant-numeric:normal;font-feature-settings:normal;text-align:start;letter-spacing:0px;word-spacing:0px;writing-mode:lr-tb;text-anchor:start;fill:#000000;fill-opacity:1;stroke:none;stroke-width:0.26458332px;stroke-linecap:butt;stroke-linejoin:miter;stroke-opacity:1"
       x="363.98819"
       y="-165.55644"
       id="text6229"><tspan
         sodipodi:role="line"
         id="tspan6227"
         x="363.98819"
         y="-103.13132"
         style="stroke-width:0.26458332px" /></text>
  </g>
</svg>
