<?xml version="1.0" encoding="UTF-8" standalone="no"?>
<svg
   xmlns:dc="http://purl.org/dc/elements/1.1/"
   xmlns:cc="http://creativecommons.org/ns#"
   xmlns:rdf="http://www.w3.org/1999/02/22-rdf-syntax-ns#"
   xmlns:svg="http://www.w3.org/2000/svg"
   xmlns="http://www.w3.org/2000/svg"
   xmlns:sodipodi="http://sodipodi.sourceforge.net/DTD/sodipodi-0.dtd"
   xmlns:inkscape="http://www.inkscape.org/namespaces/inkscape"
   version="1.1"
   id="_x3C_Camada_x3E_"
   x="0px"
   y="0px"
   viewBox="0 0 113.74 70.359998"
   xml:space="preserve"
   sodipodi:docname="rnp-clipped.svg"
   width="113.74"
   height="70.360001"
   inkscape:version="1.0.1 (c497b03c, 2020-09-10)"><metadata
   id="metadata105"><rdf:RDF><cc:Work
       rdf:about=""><dc:format>image/svg+xml</dc:format><dc:type
         rdf:resource="http://purl.org/dc/dcmitype/StillImage" /><dc:title></dc:title></cc:Work></rdf:RDF></metadata><defs
   id="defs103">
	

		
		
		
	</defs><sodipodi:namedview
   pagecolor="#ffffff"
   bordercolor="#666666"
   borderopacity="1"
   objecttolerance="10"
   gridtolerance="10"
   guidetolerance="10"
   inkscape:pageopacity="0"
   inkscape:pageshadow="2"
   inkscape:window-width="1292"
   inkscape:window-height="828"
   id="namedview101"
   showgrid="false"
   inkscape:zoom="6.5448443"
   inkscape:cx="57.844999"
   inkscape:cy="24.268319"
   inkscape:window-x="124"
   inkscape:window-y="34"
   inkscape:window-maximized="0"
   inkscape:current-layer="g42" />
<style
   type="text/css"
   id="style10">
	.st0{fill-rule:evenodd;clip-rule:evenodd;fill:#003399;}
	.st1{fill-rule:evenodd;clip-rule:evenodd;fill:#FFFFFF;}
	.st2{fill:none;}
	.st3{fill:#003399;}
	.st4{fill:#FFFFFF;}
	.st5{fill-rule:evenodd;clip-rule:evenodd;fill:#154194;}
	.st6{fill:#154194;}
	.st7{fill-rule:evenodd;clip-rule:evenodd;fill:#002F87;}
	.st8{fill:#002F87;}
	.st9{fill:#646363;}
	.st10{fill:#1F3D8A;}
	.st11{fill:#231F20;}
	.st12{fill-rule:evenodd;clip-rule:evenodd;fill:#1D1D1B;}
	.st13{fill:#1D1D1B;}
</style>
<g
   id="g44"
   transform="translate(-22.6,-21.11)">
			<g
   id="g42">
				<g
   id="g34">
					<g
   id="g14">
						<polygon
   class="st0"
   points="22.65,21.11 77.57,21.11 77.57,76.03 22.65,76.03 "
   id="polygon12" />
					</g>
					<g
   id="g18">
						<path
   class="st1"
   d="m 73.9,49.74 c 0.28,-0.24 0.46,-0.59 0.46,-0.98 0,-0.71 -0.58,-1.29 -1.29,-1.29 -0.06,0 -0.11,0.01 -0.17,0.02 C 67.69,40.1 61.58,34.5 54.27,30.41 54.17,29.79 53.64,29.32 53,29.32 c -0.71,0 -1.29,0.58 -1.29,1.29 0,0.06 0.01,0.11 0.02,0.17 -5.06,1.96 -8.29,3.44 -13.4,6.55 -0.23,-0.34 -0.62,-0.58 -1.07,-0.58 -0.71,0 -1.29,0.58 -1.29,1.29 0,0.31 0.12,0.6 0.31,0.82 -8.38,8.64 -11.18,17.05 -9.45,28.42 -0.36,0.23 -0.61,0.63 -0.61,1.09 0,0.71 0.58,1.29 1.29,1.29 0.45,0 0.84,-0.23 1.07,-0.59 4.9,1.34 7.23,1.87 12.37,2.6 0.15,0.55 0.65,0.96 1.24,0.96 0.62,0 1.14,-0.44 1.26,-1.03 3.68,-0.52 5.75,-0.88 8.31,-1.56 0.23,0.23 0.55,0.37 0.9,0.37 0.71,0 1.29,-0.58 1.29,-1.29 0,-0.71 -0.58,-1.29 -1.29,-1.29 -0.33,0 -0.62,0.13 -0.85,0.33 -1.66,-1.06 -3.25,-2.22 -4.76,-3.51 0.78,-1.55 1.5,-3.2 2.19,-5.03 2.83,1.3 5.72,2.59 9.57,4.29 -0.13,0.26 -0.21,0.54 -0.21,0.85 0,1.04 0.85,1.89 1.89,1.89 1.04,0 1.89,-0.85 1.89,-1.89 0,-0.13 -0.01,-0.26 -0.04,-0.38 5.42,-1.56 6.23,-1.94 9.35,-3.43 l 0.55,-0.26 c 0.12,0.04 0.24,0.06 0.37,0.06 0.71,0 1.29,-0.58 1.29,-1.29 0,-0.34 -0.14,-0.64 -0.35,-0.87 0.43,-3.25 0.58,-5.57 0.35,-8.85 z m -1.01,8.48 c -0.08,-0.02 -0.17,-0.03 -0.26,-0.03 -0.13,0 -0.25,0.02 -0.37,0.06 -3.74,-3.98 -7.73,-7.16 -12.02,-9.88 3.61,-0.25 7.4,-0.15 11.55,0.34 0,0.01 0,0.02 0,0.04 0,0.71 0.58,1.29 1.29,1.29 0.04,0 0.08,-0.01 0.12,-0.01 0.19,3.01 0.06,5.15 -0.31,8.19 z M 52.03,31.44 c 0.24,0.28 0.59,0.46 0.98,0.46 0.51,0 0.94,-0.29 1.15,-0.72 6.4,3.63 11.88,8.43 16.62,14.62 -3.38,-2.96 -5.74,-4.67 -9.53,-7.16 0,-0.03 0.01,-0.05 0.01,-0.09 0,-0.71 -0.58,-1.29 -1.29,-1.29 -0.47,0 -0.88,0.26 -1.11,0.64 -6.89,-0.87 -12.1,-1.16 -19.45,-0.37 4.67,-2.81 7.81,-4.23 12.62,-6.09 z m 6.65,7.17 c 0.03,0.68 0.59,1.23 1.28,1.23 0.41,0 0.78,-0.2 1.02,-0.51 4.31,2.84 6.76,4.67 11.11,8.61 -0.02,0.02 -0.04,0.04 -0.06,0.07 -4.65,-0.55 -8.84,-0.63 -12.83,-0.28 -6.05,-3.68 -12.68,-6.52 -20.02,-9.45 7.41,-0.82 12.61,-0.54 19.5,0.33 z M 36.9,39.28 c 0.12,0.03 0.24,0.06 0.37,0.06 0.46,0 0.86,-0.24 1.09,-0.6 7.19,2.86 13.7,5.61 19.63,9.12 -6.56,0.7 -12.63,2.53 -19.36,5.12 -0.3,-0.65 -0.95,-1.1 -1.71,-1.1 -1.04,0 -1.89,0.85 -1.89,1.89 0,0.49 0.19,0.94 0.51,1.28 -3.15,3.65 -5.39,7.57 -7.57,12.12 -0.13,-0.05 -0.28,-0.08 -0.43,-0.08 -1.67,-11.11 1.11,-19.34 9.36,-27.81 z m -8.35,28.34 c 2.19,-4.57 4.41,-8.49 7.57,-12.14 0.24,0.11 0.51,0.18 0.8,0.18 0.36,0 0.69,-0.1 0.98,-0.28 2.58,3.73 5.29,6.85 8.27,9.47 -0.99,1.9 -2.07,3.66 -3.25,5.43 -0.2,-0.13 -0.44,-0.21 -0.7,-0.21 -0.57,0 -1.05,0.37 -1.22,0.89 -5.04,-0.72 -7.36,-1.25 -12.18,-2.57 0,-0.01 0,-0.01 0,-0.02 -0.02,-0.28 -0.11,-0.54 -0.27,-0.75 z m 22.88,1.18 c -0.03,0.11 -0.05,0.22 -0.05,0.34 0,0.09 0.01,0.18 0.03,0.27 -2.44,0.64 -4.47,0.99 -8.01,1.49 0,-0.01 0,-0.02 -0.01,-0.03 1.21,-1.81 2.32,-3.6 3.33,-5.53 1.5,1.26 3.06,2.41 4.71,3.46 z m -4.94,-4.62 c -2.9,-2.57 -5.54,-5.63 -8.06,-9.29 0.05,-0.07 0.1,-0.14 0.14,-0.22 4.07,1.91 7.07,3.32 10.02,4.67 -0.66,1.76 -1.35,3.35 -2.1,4.84 z m 2.34,-5.52 c -2.92,-1.34 -5.88,-2.73 -9.89,-4.61 5.15,-0.08 6.35,-0.1 10.03,0.17 0.02,0.56 0.4,1.02 0.91,1.17 -0.33,1.16 -0.68,2.24 -1.05,3.27 z m 1.82,-3.27 c 0.3,-0.09 0.55,-0.29 0.71,-0.56 3.94,3.45 5.69,5.29 8.1,8.37 -0.07,0.04 -0.12,0.09 -0.18,0.14 -3.96,-1.75 -6.9,-3.07 -9.79,-4.39 0.4,-1.11 0.79,-2.29 1.16,-3.56 z m 11.42,8.34 c -0.34,-0.51 -0.92,-0.84 -1.57,-0.84 -0.11,0 -0.23,0.02 -0.33,0.04 -2.58,-3.3 -4.36,-5.18 -8.63,-8.89 -0.07,-0.65 -0.61,-1.15 -1.27,-1.15 -0.47,0 -0.87,0.25 -1.1,0.63 -3.62,-0.27 -4.96,-0.27 -9.4,-0.2 6.65,-2.51 12.69,-4.23 19.27,-4.83 4.53,2.77 8.71,6.04 12.62,10.18 -0.19,0.22 -0.31,0.51 -0.31,0.83 0,0.28 0.09,0.53 0.24,0.74 l -0.19,0.09 c -3.11,1.46 -3.9,1.84 -9.33,3.4 z"
   id="path16" />
					</g>
					<g
   id="g32">
						<g
   id="g22">
							<path
   class="st0"
   d="m 88.45,50.24 h 2.08 c 1.49,0 2.39,0.81 2.39,2.95 0,1.42 -0.53,3.29 -2.39,3.29 h -2.08 z m 0,9.67 h 1.21 c 3.59,0 3.34,2.26 3.34,4.93 0,1.46 -0.12,2.97 0.5,4.34 h 4.58 c -0.43,-0.93 -0.53,-5.14 -0.53,-6.57 0,-4.03 -3.04,-4.28 -4.06,-4.4 v -0.06 c 3.03,-0.5 4.15,-2.63 4.15,-5.48 0,-3.81 -2.04,-5.86 -5.24,-5.86 h -8.65 v 22.37 h 4.68 v -9.27 z"
   id="path20" />
						</g>
						<g
   id="g26">
							<polygon
   class="st0"
   points="117.83,69.17 117.83,46.8 113.46,46.8 113.46,62.3 113.4,62.3 107.45,46.8 101.13,46.8 101.13,69.17 105.5,69.17 105.5,52.81 105.56,52.81 111.67,69.17 "
   id="polygon24" />
						</g>
						<g
   id="g30">
							<path
   class="st0"
   d="m 126.48,50.24 h 2.36 c 2.11,0 2.6,1.55 2.6,3.38 0,1.49 -0.96,3 -2.35,3 h -2.61 z m -4.68,18.93 h 4.68 v -9.11 h 3.47 c 5.49,0 6.23,-4.03 6.23,-6.57 0,-4.09 -1.67,-6.69 -5.95,-6.69 h -8.43 z"
   id="path28" />
						</g>
					</g>
				</g>
				<g
   id="g40">
					<g
   id="g38">
						<rect
   x="8.9099998"
   y="7.3000002"
   class="st2"
   width="141.02"
   height="82.550003"
   id="rect36" />
					</g>
				</g>
			</g>
		</g><rect
   x="0"
   y="61.749996"
   class="st3"
   width="113.74"
   height="8.6099997"
   id="rect46" /><g
   id="g94"
   transform="translate(-22.6,-21.11)">
			<path
   class="st4"
   d="m 34.18,87.01 v 0.32 c 0,0.71 -0.13,1.23 -0.4,1.55 -0.27,0.32 -0.7,0.48 -1.29,0.48 -0.59,0 -1.02,-0.16 -1.28,-0.48 -0.26,-0.32 -0.4,-0.84 -0.4,-1.57 V 87 c 0,-0.66 0.13,-1.15 0.4,-1.47 0.27,-0.32 0.69,-0.48 1.27,-0.48 0.58,0 1.01,0.16 1.28,0.49 0.28,0.32 0.42,0.81 0.42,1.47 z m -0.83,0.3 v -0.22 c 0,-0.38 -0.05,-0.68 -0.14,-0.91 -0.11,-0.26 -0.35,-0.39 -0.71,-0.39 -0.37,0 -0.61,0.13 -0.72,0.39 -0.09,0.21 -0.14,0.52 -0.14,0.91 v 0.22 c 0,0.51 0.07,0.86 0.21,1.04 0.06,0.07 0.14,0.14 0.25,0.19 0.11,0.05 0.24,0.08 0.39,0.08 0.15,0 0.28,-0.03 0.39,-0.08 0.11,-0.05 0.19,-0.12 0.25,-0.19 0.06,-0.08 0.11,-0.17 0.14,-0.3 0.05,-0.19 0.08,-0.44 0.08,-0.74 z"
   id="path48" />
			<path
   class="st4"
   d="m 38.62,89.32 h -0.96 l -0.83,-1.57 h -0.6 v 1.57 H 35.4 V 86 c 0,-0.32 0.07,-0.55 0.22,-0.69 0.15,-0.14 0.39,-0.22 0.74,-0.22 h 0.7 c 0.42,0 0.75,0.13 1,0.38 0.25,0.25 0.37,0.58 0.37,0.97 0,0.29 -0.07,0.53 -0.22,0.74 -0.15,0.21 -0.33,0.35 -0.55,0.43 z m -1.17,-2.44 c 0.11,-0.12 0.17,-0.27 0.17,-0.45 0,-0.18 -0.05,-0.33 -0.16,-0.44 -0.11,-0.11 -0.25,-0.17 -0.44,-0.17 h -0.41 c -0.25,0 -0.37,0.13 -0.37,0.38 v 0.86 h 0.78 c 0.17,0 0.32,-0.06 0.43,-0.18 z"
   id="path50" />
			<path
   class="st4"
   d="m 39.55,87.33 v -0.52 c 0,-0.55 0.14,-0.98 0.43,-1.29 0.29,-0.31 0.69,-0.46 1.2,-0.46 0.51,0 0.92,0.16 1.23,0.46 0.22,0.22 0.33,0.55 0.33,0.98 h -0.77 c 0,-0.47 -0.25,-0.71 -0.76,-0.71 -0.15,0 -0.28,0.03 -0.38,0.09 -0.11,0.06 -0.18,0.12 -0.24,0.2 -0.05,0.07 -0.09,0.19 -0.12,0.33 -0.03,0.15 -0.04,0.27 -0.05,0.37 0,0.1 -0.01,0.23 -0.01,0.4 0,0.17 0,0.28 0,0.34 0,0.06 0.01,0.15 0.02,0.28 0.01,0.13 0.03,0.22 0.05,0.28 0.02,0.06 0.05,0.13 0.1,0.21 0.04,0.09 0.09,0.15 0.16,0.18 0.16,0.1 0.35,0.16 0.55,0.16 0.34,0 0.59,-0.15 0.73,-0.44 V 87.9 h -0.51 v -0.69 h 1.22 v 1.28 c -0.12,0.29 -0.32,0.51 -0.58,0.65 -0.27,0.15 -0.57,0.22 -0.9,0.22 -0.6,0 -1.03,-0.17 -1.3,-0.5 -0.27,-0.34 -0.4,-0.85 -0.4,-1.53 z"
   id="path52" />
			<path
   class="st4"
   d="M 47.32,89.32 H 46.46 L 46.22,88.59 H 44.8 l -0.23,0.73 H 43.7 l 1.36,-3.88 c 0.06,-0.13 0.13,-0.23 0.2,-0.28 0.07,-0.05 0.16,-0.08 0.27,-0.08 0.11,0 0.19,0.02 0.26,0.07 0.07,0.05 0.12,0.14 0.18,0.29 z M 46.03,87.9 45.53,86.22 45,87.9 Z"
   id="path54" />
			<path
   class="st4"
   d="m 51.71,85.09 v 3.81 c 0,0.13 -0.04,0.24 -0.12,0.34 -0.08,0.09 -0.17,0.14 -0.28,0.14 -0.27,0 -0.5,-0.16 -0.67,-0.48 l -1.46,-2.29 v 2.72 h -0.83 v -4.24 h 0.8 l 1.74,2.77 v -2.77 z"
   id="path56" />
			<path
   class="st4"
   d="M 53.9,89.32 H 53.07 V 85.08 H 53.9 Z"
   id="path58" />
			<path
   class="st4"
   d="m 57.93,89.32 h -2.15 c -0.22,0 -0.38,-0.05 -0.5,-0.16 -0.11,-0.1 -0.17,-0.24 -0.17,-0.4 0,-0.17 0.06,-0.34 0.18,-0.52 l 1.67,-2.42 h -1.73 v -0.74 h 2.71 v 0.66 l -1.93,2.84 h 1.93 v 0.74 z"
   id="path60" />
			<path
   class="st4"
   d="m 62.38,89.32 h -0.86 l -0.24,-0.73 h -1.42 l -0.23,0.73 h -0.86 l 1.36,-3.88 c 0.06,-0.13 0.13,-0.23 0.2,-0.28 0.07,-0.05 0.16,-0.08 0.27,-0.08 0.11,0 0.19,0.02 0.26,0.07 0.07,0.05 0.12,0.14 0.18,0.29 z m -1.29,-1.42 -0.5,-1.68 -0.52,1.68 z"
   id="path62" />
			<path
   class="st4"
   d="m 65.61,87.68 h 0.77 c 0,0.5 -0.12,0.89 -0.35,1.18 -0.23,0.29 -0.56,0.45 -0.99,0.49 l -0.05,0.12 c 0.19,0.05 0.29,0.16 0.29,0.33 0,0.17 -0.06,0.3 -0.17,0.4 -0.11,0.1 -0.29,0.15 -0.52,0.15 -0.05,0 -0.15,-0.01 -0.28,-0.02 l 0.12,-0.3 c 0.07,0.01 0.14,0.02 0.21,0.02 0.16,0 0.24,-0.06 0.24,-0.18 0,-0.14 -0.12,-0.2 -0.35,-0.2 l 0.11,-0.29 c -0.96,-0.07 -1.45,-0.7 -1.45,-1.91 v -0.36 c 0,-1 0.28,-1.63 0.83,-1.89 0.22,-0.1 0.48,-0.16 0.79,-0.16 0.45,0 0.82,0.12 1.1,0.37 0.28,0.25 0.43,0.61 0.43,1.07 h -0.77 c -0.04,-0.23 -0.12,-0.41 -0.23,-0.53 -0.11,-0.12 -0.29,-0.18 -0.52,-0.18 -0.28,0 -0.48,0.09 -0.62,0.26 -0.1,0.12 -0.15,0.33 -0.17,0.63 -0.01,0.09 -0.01,0.22 -0.01,0.39 v 0.37 c 0,0.46 0.06,0.77 0.19,0.93 0.13,0.17 0.33,0.25 0.61,0.25 0.28,0 0.47,-0.08 0.57,-0.23 0.12,-0.15 0.19,-0.39 0.22,-0.71 z"
   id="path64" />
			<path
   class="st4"
   d="m 70.61,89.32 h -0.86 l -0.24,-0.73 h -1.42 l -0.23,0.73 H 67 l 1.36,-3.88 c 0.06,-0.13 0.13,-0.23 0.2,-0.28 0.07,-0.05 0.16,-0.08 0.27,-0.08 0.11,0 0.19,0.02 0.26,0.07 0.07,0.05 0.12,0.14 0.18,0.29 z m -1.02,-5.36 0.27,0.3 c -0.23,0.23 -0.46,0.35 -0.67,0.35 -0.15,0 -0.29,-0.04 -0.43,-0.12 -0.14,-0.08 -0.27,-0.12 -0.4,-0.12 -0.12,0 -0.24,0.05 -0.35,0.14 l -0.3,-0.31 c 0.13,-0.13 0.25,-0.22 0.34,-0.27 0.1,-0.05 0.22,-0.08 0.35,-0.08 0.13,0 0.27,0.04 0.41,0.12 0.14,0.08 0.28,0.12 0.42,0.12 0.14,0 0.27,-0.04 0.36,-0.13 z m -0.27,3.94 -0.5,-1.56 -0.52,1.56 z"
   id="path66" />
			<path
   class="st4"
   d="m 74.81,87.01 v 0.32 c 0,0.71 -0.13,1.23 -0.4,1.55 -0.27,0.32 -0.7,0.48 -1.29,0.48 -0.59,0 -1.02,-0.16 -1.28,-0.48 -0.26,-0.32 -0.4,-0.84 -0.4,-1.57 V 87 c 0,-0.66 0.13,-1.15 0.4,-1.47 0.27,-0.32 0.69,-0.48 1.27,-0.48 0.58,0 1.01,0.16 1.28,0.49 0.28,0.32 0.42,0.81 0.42,1.47 z m -0.83,0.3 v -0.22 c 0,-0.38 -0.05,-0.68 -0.14,-0.91 -0.11,-0.26 -0.35,-0.39 -0.71,-0.39 -0.37,0 -0.61,0.13 -0.72,0.39 -0.09,0.21 -0.14,0.52 -0.14,0.91 v 0.22 c 0,0.51 0.07,0.86 0.21,1.04 0.06,0.07 0.14,0.14 0.25,0.19 0.11,0.05 0.24,0.08 0.39,0.08 0.15,0 0.28,-0.03 0.39,-0.08 0.11,-0.05 0.19,-0.12 0.25,-0.19 0.06,-0.08 0.11,-0.17 0.14,-0.3 0.05,-0.19 0.08,-0.44 0.08,-0.74 z"
   id="path68" />
			<path
   class="st4"
   d="m 80.79,88.07 c 0,0.4 -0.15,0.71 -0.44,0.94 -0.29,0.23 -0.67,0.34 -1.12,0.34 -0.36,0 -0.71,-0.1 -1.05,-0.3 -0.17,-0.1 -0.3,-0.25 -0.41,-0.44 -0.11,-0.19 -0.16,-0.4 -0.16,-0.65 l 0.75,-0.04 c 0,0.21 0.09,0.38 0.27,0.5 0.18,0.12 0.38,0.18 0.61,0.18 0.5,0 0.74,-0.17 0.74,-0.52 0,-0.29 -0.17,-0.45 -0.51,-0.51 L 78.78,87.5 c -0.35,-0.05 -0.62,-0.17 -0.82,-0.37 -0.2,-0.19 -0.3,-0.47 -0.3,-0.84 0,-0.37 0.15,-0.67 0.43,-0.9 0.29,-0.24 0.66,-0.36 1.1,-0.36 0.44,0 0.8,0.11 1.07,0.34 0.27,0.22 0.4,0.51 0.4,0.87 l -0.74,0.04 c -0.07,-0.34 -0.3,-0.52 -0.7,-0.52 -0.24,0 -0.43,0.05 -0.57,0.16 -0.14,0.1 -0.2,0.22 -0.2,0.37 0,0.14 0.05,0.25 0.15,0.33 0.1,0.08 0.22,0.13 0.37,0.15 l 0.68,0.07 c 0.76,0.11 1.14,0.52 1.14,1.23 z"
   id="path70" />
			<path
   class="st4"
   d="m 85.06,87.01 v 0.32 c 0,0.71 -0.13,1.23 -0.4,1.55 -0.27,0.32 -0.7,0.48 -1.29,0.48 -0.59,0 -1.02,-0.16 -1.28,-0.48 -0.26,-0.32 -0.4,-0.84 -0.4,-1.57 V 87 c 0,-0.66 0.13,-1.15 0.4,-1.47 0.27,-0.32 0.69,-0.48 1.27,-0.48 0.58,0 1.01,0.16 1.28,0.49 0.28,0.32 0.42,0.81 0.42,1.47 z m -0.83,0.3 v -0.22 c 0,-0.38 -0.05,-0.68 -0.14,-0.91 -0.11,-0.26 -0.35,-0.39 -0.71,-0.39 -0.37,0 -0.61,0.13 -0.72,0.39 -0.09,0.21 -0.14,0.52 -0.14,0.91 v 0.22 c 0,0.51 0.07,0.86 0.21,1.04 0.06,0.07 0.14,0.14 0.25,0.19 0.11,0.05 0.24,0.08 0.39,0.08 0.15,0 0.28,-0.03 0.39,-0.08 0.11,-0.05 0.19,-0.12 0.25,-0.19 0.06,-0.08 0.11,-0.17 0.14,-0.3 0.05,-0.19 0.08,-0.44 0.08,-0.74 z"
   id="path72" />
			<path
   class="st4"
   d="m 88.43,87.68 h 0.77 c 0,0.54 -0.13,0.95 -0.4,1.24 -0.27,0.29 -0.65,0.43 -1.14,0.43 -1.08,0 -1.62,-0.64 -1.62,-1.91 v -0.36 c 0,-1 0.28,-1.63 0.83,-1.89 0.22,-0.1 0.48,-0.16 0.79,-0.16 0.45,0 0.82,0.12 1.1,0.37 0.28,0.25 0.43,0.61 0.43,1.07 h -0.77 c -0.04,-0.23 -0.12,-0.41 -0.23,-0.53 -0.11,-0.12 -0.29,-0.18 -0.52,-0.18 -0.28,0 -0.48,0.09 -0.62,0.26 -0.1,0.12 -0.15,0.33 -0.17,0.63 -0.01,0.09 -0.01,0.22 -0.01,0.39 v 0.37 c 0,0.46 0.06,0.77 0.19,0.93 0.13,0.17 0.33,0.25 0.61,0.25 0.28,0 0.47,-0.08 0.57,-0.23 0.09,-0.12 0.16,-0.36 0.19,-0.68 z"
   id="path74" />
			<path
   class="st4"
   d="m 91.24,89.32 h -0.83 v -4.24 h 0.83 z"
   id="path76" />
			<path
   class="st4"
   d="m 95.95,89.32 h -0.86 l -0.24,-0.73 h -1.42 l -0.23,0.73 h -0.86 l 1.36,-3.88 c 0.06,-0.13 0.13,-0.23 0.2,-0.28 0.07,-0.05 0.16,-0.08 0.27,-0.08 0.11,0 0.19,0.02 0.26,0.07 0.07,0.05 0.12,0.14 0.18,0.29 z m -1.3,-1.42 -0.5,-1.68 -0.52,1.68 z"
   id="path78" />
			<path
   class="st4"
   d="m 99.65,89.32 h -1.26 c -0.48,0 -0.82,-0.09 -1.03,-0.28 -0.21,-0.19 -0.32,-0.49 -0.32,-0.9 v -3.06 h 0.83 v 3.06 c 0,0.17 0.04,0.28 0.11,0.34 0.08,0.06 0.21,0.1 0.41,0.1 h 1.26 z"
   id="path80" />
			<path
   class="st4"
   d="m 105.9,87.19 0.01,0.46 c -0.02,0.29 -0.05,0.53 -0.11,0.73 -0.06,0.2 -0.16,0.38 -0.33,0.54 -0.27,0.27 -0.66,0.4 -1.18,0.4 -0.61,0 -1.02,-0.08 -1.25,-0.24 -0.23,-0.16 -0.34,-0.45 -0.34,-0.87 v -3.13 h 1.65 c 0.48,0 0.85,0.14 1.12,0.4 0.22,0.22 0.35,0.48 0.39,0.8 0.02,0.23 0.04,0.53 0.04,0.91 z m -0.86,0.76 c 0.02,-0.16 0.03,-0.41 0.03,-0.75 0,-0.34 -0.01,-0.59 -0.03,-0.74 -0.02,-0.15 -0.07,-0.27 -0.15,-0.37 -0.14,-0.17 -0.35,-0.26 -0.62,-0.26 h -0.74 v 2.35 c 0,0.16 0.05,0.27 0.16,0.33 0.11,0.06 0.3,0.09 0.57,0.09 0.28,0 0.49,-0.09 0.63,-0.26 0.08,-0.11 0.13,-0.23 0.15,-0.39 z"
   id="path82" />
			<path
   class="st4"
   d="m 110.24,87.01 v 0.32 c 0,0.71 -0.13,1.23 -0.4,1.55 -0.27,0.32 -0.7,0.48 -1.29,0.48 -0.59,0 -1.02,-0.16 -1.28,-0.48 -0.26,-0.32 -0.4,-0.84 -0.4,-1.57 V 87 c 0,-0.66 0.13,-1.15 0.4,-1.47 0.27,-0.32 0.69,-0.48 1.27,-0.48 0.58,0 1.01,0.16 1.28,0.49 0.28,0.32 0.42,0.81 0.42,1.47 z m -0.83,0.3 v -0.22 c 0,-0.38 -0.05,-0.68 -0.14,-0.91 -0.11,-0.26 -0.35,-0.39 -0.71,-0.39 -0.37,0 -0.61,0.13 -0.72,0.39 -0.09,0.21 -0.14,0.52 -0.14,0.91 v 0.22 c 0,0.51 0.07,0.86 0.21,1.04 0.06,0.07 0.14,0.14 0.25,0.19 0.11,0.05 0.24,0.08 0.39,0.08 0.15,0 0.28,-0.03 0.39,-0.08 0.11,-0.05 0.19,-0.12 0.25,-0.19 0.06,-0.08 0.11,-0.17 0.14,-0.3 0.05,-0.19 0.08,-0.44 0.08,-0.74 z"
   id="path84" />
			<path
   class="st4"
   d="m 116.48,86.79 -0.76,1.61 c -0.11,0.21 -0.25,0.32 -0.41,0.32 -0.16,0 -0.3,-0.11 -0.41,-0.34 l -0.77,-1.59 v 2.53 h -0.83 v -4.24 h 0.82 l 1.2,2.45 1.19,-2.45 h 0.82 v 4.24 h -0.83 v -2.53 z"
   id="path86" />
			<path
   class="st4"
   d="m 120.83,87.68 h 0.77 c 0,0.54 -0.13,0.95 -0.4,1.24 -0.27,0.29 -0.65,0.43 -1.14,0.43 -1.08,0 -1.62,-0.64 -1.62,-1.91 v -0.36 c 0,-1 0.28,-1.63 0.83,-1.89 0.22,-0.1 0.48,-0.16 0.79,-0.16 0.45,0 0.82,0.12 1.1,0.37 0.28,0.25 0.43,0.61 0.43,1.07 h -0.77 c -0.04,-0.23 -0.12,-0.41 -0.23,-0.53 -0.11,-0.12 -0.29,-0.18 -0.52,-0.18 -0.28,0 -0.48,0.09 -0.62,0.26 -0.1,0.12 -0.15,0.33 -0.17,0.63 -0.01,0.09 -0.01,0.22 -0.01,0.39 v 0.37 c 0,0.46 0.06,0.77 0.19,0.93 0.13,0.17 0.33,0.25 0.61,0.25 0.28,0 0.47,-0.08 0.57,-0.23 0.09,-0.12 0.16,-0.36 0.19,-0.68 z"
   id="path88" />
			<path
   class="st4"
   d="m 125.56,85.82 h -1.14 v 3.5 h -0.83 v -3.5 h -1.13 v -0.74 h 3.1 z"
   id="path90" />
			<path
   class="st4"
   d="m 127.54,89.32 h -0.83 v -4.24 h 0.83 z"
   id="path92" />
		</g>
</svg>
