<?xml version="1.0" encoding="UTF-8" standalone="no"?>
<svg
   xmlns:dc="http://purl.org/dc/elements/1.1/"
   xmlns:cc="http://creativecommons.org/ns#"
   xmlns:rdf="http://www.w3.org/1999/02/22-rdf-syntax-ns#"
   xmlns:svg="http://www.w3.org/2000/svg"
   xmlns="http://www.w3.org/2000/svg"
   viewBox="0 0 201.92 214.49333"
   height="214.49333"
   width="201.92"
   xml:space="preserve"
   id="svg2"
   version="1.1"><metadata
     id="metadata8"><rdf:RDF><cc:Work
         rdf:about=""><dc:format>image/svg+xml</dc:format><dc:type
           rdf:resource="http://purl.org/dc/dcmitype/StillImage" /></cc:Work></rdf:RDF></metadata><defs
     id="defs6" /><g
     transform="matrix(1.3333333,0,0,-1.3333333,0,214.49333)"
     id="g10"><g
       transform="scale(0.1)"
       id="g12"><path
         id="path14"
         style="fill:#0e2b58;fill-opacity:1;fill-rule:nonzero;stroke:none"
         d="M 1514.36,0 H 0 V 1608.73 H 1514.36 V 0" /><path
         id="path16"
         style="fill:#fccb06;fill-opacity:1;fill-rule:nonzero;stroke:none"
         d="M 755.879,753.926 535.984,1056.25 V 836.367 h 87.961 V 619.238 H 217.148 v 217.129 h 82.454 v 338.063 h -82.454 v 217.15 h 319.54 l 220.265,-305.08 220.742,305.08 h 319.515 v -217.15 h -82.46 V 836.367 h 82.46 V 619.238 H 890.438 v 217.129 h 87.941 v 219.883 l -222.5,-302.324" /><path
         id="path18"
         style="fill:#ffffff;fill-opacity:1;fill-rule:nonzero;stroke:none"
         d="m 1000.54,285.16 v -7.801 c -13.13,-0.82 -13.13,-4.527 -13.497,-32.05 V 234.41 c -11.281,-6.969 -27.375,-17.051 -55.852,-17.051 -49.921,0 -73.769,37.821 -73.769,75.821 0,46.429 31.433,76.621 70.832,76.621 24.773,0 39.019,-9.231 50.855,-16.422 l 7.579,8.633 1.105,-45.41 -5.918,-1.032 c -2.949,8.629 -7.395,18.59 -18.301,29.489 -4.804,4.722 -14.062,10.781 -28.672,10.781 -25.332,0 -46.418,-21.371 -46.418,-63.09 0,-33.281 16.457,-61.828 44.746,-61.828 16.086,0 24.407,11.308 25.149,12.129 2.59,3.898 3.184,7.379 2.961,13.769 -0.656,18.469 -3.149,18.879 -19.238,20.539 v 7.801 z m 143.19,-64.109 v 7.801 c 11.92,0.617 16.44,0.82 18.09,9.039 2.05,9.668 2.66,95.738 2.87,110.738 -8.01,7.391 -11.3,8.832 -20.96,9.652 v 7.809 h 43.56 c 12.12,-17.262 14.79,-21.149 36.16,-47.649 l 40.47,-50.14 v 64.918 c -0.21,23.011 -0.82,24.242 -23.83,25.062 v 7.809 h 57.12 v -7.809 c -15.82,-0.191 -17.26,-3.5 -17.46,-27.109 l -2.06,-111.973 h -8.63 l -12.95,16.231 c -6.57,8.218 -13.14,16.422 -19.72,24.449 l -57.32,70.711 v -75.238 c 0,-23.422 1.64,-24.243 23.83,-26.5 v -7.801 z m -800.644,0 v 7.801 c 18.293,1.226 18.293,2.046 18.496,28.957 v 72.953 L 310.84,219.199 h -12.742 l -46.582,113.031 -1.086,-85.3 c 0,-14.18 1.648,-16.852 17.058,-18.078 v -7.801 h -50.34 v 7.801 c 11.707,0.617 16.231,2.257 17.051,12.128 0.41,3.899 1.028,16.032 1.239,24.04 l 2.05,60.8 c 0.207,4.731 0.207,11.719 0.207,16.86 0,14.371 -2.882,15.41 -15.82,15.601 v 7.809 h 45.605 l 45.208,-110.11 49.714,110.11 h 44.168 v -8.629 c -17.254,-1.02 -17.461,-2.871 -17.254,-25.473 v -59.777 c 0,-9.871 0.204,-22.191 0.821,-29.59 0.82,-10.691 4.929,-12.742 16.433,-13.769 v -7.801 z m 77.707,0 v 7.801 c 14.18,1.847 17.051,3.488 17.254,18.707 v 18.472 58.77 c -0.203,30.199 -0.203,31.019 -17.254,33.48 v 7.809 h 60.223 v -7.809 c -17.051,-1.64 -17.051,-2.461 -17.051,-33.48 V 266.25 c 0,-5.141 0.207,-21.371 0.613,-25.68 1.027,-8.832 5.141,-10.898 16.438,-11.718 v -7.801 z m 372.195,0 v 7.801 c 14.192,1.847 17.071,3.488 17.278,18.707 v 18.472 58.77 c -0.207,30.199 -0.207,31.019 -17.278,33.48 v 7.809 h 60.293 v -7.809 C 836.23,356.641 836.23,355.82 836.23,324.801 V 266.25 c 0,-5.141 0.208,-21.371 0.625,-25.68 1.028,-8.832 5.137,-10.898 16.426,-11.718 v -7.801 z m -165.359,0 v 7.801 c 16.434,1.437 16.641,4.937 16.641,18.898 0.203,5.141 0.203,10.281 0.203,15.41 v 60.82 c 0,9.442 0,18.891 -0.618,23.418 -0.82,8.622 -4.929,9.872 -16.226,10.883 v 7.809 h 62.098 v -7.809 c -12.129,-1.23 -16.641,-1.64 -18.086,-9.652 -1.028,-4.719 -1.231,-15.41 -1.231,-24.039 v -20.039 c 12.528,-0.61 21.27,-1.02 33.391,-1.02 12.32,0 22.078,0.41 34.414,1.02 v 24.359 c -0.207,26.5 -0.41,27.531 -20.141,29.371 v 7.809 h 62.91 v -7.809 C 764.121,356.23 764.121,356.02 764.121,328.5 v -61.23 c 0,-5.75 0.203,-24.051 0.82,-28.34 1.028,-7.621 5.352,-9.051 16.043,-10.078 v -7.801 h -62.91 v 7.801 c 14.594,1.66 18.489,2.046 19.731,12.128 0.41,4.098 0.41,9.641 0.41,20.129 v 26.602 c -11.504,0.41 -21.067,1.019 -32.981,1.019 -12.531,0 -22.296,-0.39 -34.824,-1.019 v -26.602 c 0.203,-30.211 0.613,-30.211 19.317,-32.257 v -7.801 z m -10.727,32.25 c -6.433,-10.469 -21.851,-36.153 -61.875,-36.153 -43.711,0 -72.019,32.243 -72.019,74.571 0,39.242 24.012,77.871 73,77.871 25.762,0 39.43,-10.899 47.82,-17.461 l 9.949,9.043 0.786,-43.961 -6.45,-1.25 c -2.527,8.43 -6.238,15.211 -15.601,25.48 -4.492,4.731 -15.227,14.161 -30.449,14.161 -26.157,0 -46.848,-21.34 -46.848,-58.942 0,-31.859 16.98,-61.859 50.555,-61.859 25.375,0 34.882,14.16 42.5,25.039 z m 450.298,84.179 -21.32,-60.121 h 41.67 z m 12.98,-116.429 v 7.801 c 9.86,0.617 17.47,1.437 17.47,9.449 0,2.871 -0.83,5.961 -1.65,8.629 l -4.35,14.808 h -51.15 l -4.49,-12.539 c -1.03,-3.09 -1.85,-5.98 -1.85,-9.039 0,-10.281 10.89,-10.898 19.72,-11.308 v -7.801 h -59.786 v 7.801 c 15.206,0.617 20.136,3.707 25.686,18.898 l 39.23,107.66 -2.25,3.5 c 16.84,5.539 21.57,8 28.76,13.36 2.88,-9.872 3.29,-11.098 6.58,-21.372 l 32.05,-98.617 c 5.75,-17.48 8.42,-21.769 23.83,-23.429 v -7.801 h -67.8" /><path
         id="path20"
         style="fill:#ffffff;fill-opacity:1;fill-rule:nonzero;stroke:none"
         d="m 701.133,442.871 c 0.137,-21.992 0.137,-24.961 11.68,-25.211 v -5.32 h -40.04 v 5.32 c 10.325,0.801 11.407,2.442 11.543,12.75 0.137,3.942 0.137,8.399 0.137,12.34 v 34.691 c 0,11.539 -0.137,15.61 -0.547,18.731 -0.676,5.289 -3.254,6.25 -11.133,6.918 v 5.172 l 43.45,-0.172 c 23.621,0 31.09,-11.27 31.09,-24.57 0,-9.239 -5.704,-21.25 -18.875,-25.34 l 16.984,-29.532 c 6.109,-11.269 9.363,-13.867 17.105,-14.937 v -3.262 c -2.039,-0.14 -4.07,-0.269 -6.25,-0.269 -18.054,0 -25.523,6.25 -33.132,22.398 l -5.301,11.293 c -5.696,12.07 -7.602,11.32 -16.699,11.461 z m 0.012,20.879 c 2.578,-0.531 6.25,-0.941 8.96,-0.941 10.911,-0.039 19.153,8.519 19.551,16.191 0.586,11.141 -5.015,20.77 -22.676,20.77 -2.437,0 -3.933,-0.141 -5.835,-0.551 z m -39.59,-51.41 c 0,6.922 1.218,18.34 2.039,24.851 h -4.629 c -3.262,-17.113 -12.902,-16.293 -26.758,-16.293 -12.766,0 -15.344,3.403 -15.344,9.653 v 26.808 h 10.325 c 11.816,0 15.207,-1.007 15.207,-11.757 h 4.617 v 31.668 h -4.617 c -0.95,-8.559 -2.715,-11.348 -15.082,-11.348 h -10.45 v 33.769 h 11.821 c 16.289,0 22.136,-1.23 24.304,-14.261 h 4.348 l -0.551,22.808 h -68.308 v -5.148 c 6.921,-0.692 9.914,-1.102 10.871,-5.57 0.672,-2.989 0.808,-13.579 0.808,-17.379 V 446.43 c 0,-2.578 -0.136,-14.129 -0.273,-16.43 -0.274,-10.469 -1.492,-11.41 -11.406,-12.359 v -5.301 z m 347.995,0 v 5.16 c 7.47,0.82 10.32,1.09 12.23,2.988 2.18,2.172 2.18,4.614 2.3,15.082 v 16.828 l -25.525,39.532 c -6.922,10.32 -7.063,10.59 -16.297,11.14 v 5.289 h 49.982 v -5.289 c -10.05,-0.281 -14.53,-0.55 -14.53,-5.16 0,-2.578 1.76,-5.57 4.2,-9.648 l 14.68,-24.024 13.57,23.883 c 2.45,4.75 3.8,7.598 3.8,9.789 0,4.61 -3.93,4.75 -10.59,5.16 v 5.289 h 37.49 v -5.289 c -9.65,-0.281 -12.5,-3.129 -23.5,-21.058 l -14.94,-24.981 v -19.98 c 0,-17.379 0.14,-18.731 14.4,-19.551 v -5.16 z m -425.175,95.879 v -5.149 c -9.23,-1.371 -10.457,-3.949 -18.328,-22.949 L 536.848,410.43 h -5.168 l -26.211,70.761 c -6.516,18.2 -7.332,20.368 -16.973,21.879 v 5.149 h 45.496 v -5.149 c -7.742,-0.281 -12.769,-0.55 -12.769,-6.121 0,-2.711 0.679,-5.019 3.257,-13.039 l 16.711,-48.75 19.551,50.391 c 1.231,3.39 2.852,7.73 2.852,10.168 0,6.941 -6.785,7.211 -12.766,7.351 v 5.149 z m -324.973,0 v -5.149 c -12.761,-0.961 -12.761,-1.371 -12.898,-21.742 v -22.539 c 0,-11.68 0.226,-21.699 6.387,-30.699 4.902,-7.149 13.242,-8.07 17.453,-8.07 13.711,0 21.25,7.128 24.511,18.402 2.711,8.957 2.848,25.797 2.848,36.93 0,3.539 0,14.937 -0.137,18.07 -0.546,8.687 -5.015,8.957 -13.582,9.648 v 5.149 h 36.543 v -5.149 c -8.964,0.129 -10.871,-1.922 -11.418,-11.41 -0.132,-2.32 -1.218,-28.949 -1.355,-33.012 -0.274,-7.32 -0.676,-14.527 -2.305,-21.457 -6.523,-25.8 -31.648,-27.152 -38.301,-27.152 -5.3,0 -16.164,0.801 -25.128,6.781 -14.254,9.641 -14.391,24.039 -14.391,39.532 v 21.718 c -0.141,10.328 -0.141,14.942 -0.41,17.379 -0.813,5.981 -3.801,7.211 -10.996,7.621 v 5.149 z M 910.781,412.34 v 4.07 c 8.836,0.129 11.282,3.391 11.282,11.012 v 70.629 h -11.958 c -10.867,0 -18.062,0.41 -18.875,-16.699 h -5.031 l 0.821,26.886 h 87.191 l 0.816,-26.886 H 970 c -0.812,17.109 -8.008,16.699 -18.879,16.699 h -11.949 v -70.629 c 0,-7.621 2.437,-10.883 11.266,-11.012 l 0.011,-4.07 z m -147.922,29.89 4.895,0.52 c 5.305,-15.602 14.148,-24.02 28.555,-24.02 10.214,0 19.179,4.34 19.179,14.668 0,10.864 -10.468,15.192 -15.09,17.114 -3.816,1.476 -7.886,2.707 -11.699,4.199 -7.886,2.848 -22.715,8.961 -22.715,27.57 0,17.93 14.153,27.969 30.598,27.969 6.398,0 13.879,-1.34 22.031,-6.5 l 5.828,4.199 3.125,-28.519 -4.746,-0.95 c -1.629,6.25 -2.859,9.161 -6.66,14.2 -4.617,5.968 -11.14,8.75 -18.758,8.75 -10.195,0 -16.179,-4.891 -16.179,-12.489 0,-11.402 11.289,-15.211 22.031,-18.75 5.437,-1.75 9.922,-3.261 13.855,-5.562 7.61,-4.488 13.86,-12.91 13.86,-24.449 0,-16.571 -13.586,-30.282 -33.84,-30.282 -13.059,0 -21.082,5.161 -24.883,7.602 l -8,5.84 z M 327.773,412.34 v 5.16 c 7.879,0.41 10.872,0.551 11.954,5.98 1.359,6.379 1.765,63.282 1.906,73.2 -5.305,4.879 -7.473,5.84 -13.86,6.39 v 5.149 h 28.79 c 8.015,-11.399 9.785,-13.981 23.906,-31.5 l 26.758,-33.149 v 42.91 c -0.137,15.219 -0.547,16.04 -15.762,16.59 v 5.149 h 37.765 v -5.149 c -10.46,-0.14 -11.41,-2.308 -11.542,-17.929 l -1.36,-74.032 h -5.715 l -8.55,10.731 c -4.348,5.441 -8.696,10.871 -13.04,16.172 l -37.89,46.738 v -49.73 c 0,-15.489 1.086,-16.04 15.754,-17.52 v -5.16 z m 509.485,0 v 5.16 c 9.375,1.23 11.277,2.301 11.414,12.359 v 12.231 38.832 c -0.137,19.976 -0.137,20.508 -11.414,22.148 v 5.149 h 39.805 v -5.149 c -11.27,-1.101 -11.27,-1.64 -11.27,-22.148 V 442.23 c 0,-3.402 0.137,-14.14 0.406,-17 0.676,-5.839 3.403,-7.179 10.864,-7.73 v -5.16 z m -397.707,0 v 5.16 c 9.367,1.23 11.269,2.301 11.406,12.359 v 12.231 38.832 c -0.137,19.976 -0.137,20.508 -11.406,22.148 v 5.149 h 39.824 v -5.149 c -11.27,-1.101 -11.27,-1.64 -11.27,-22.148 V 442.23 c 0,-3.402 0.137,-14.14 0.411,-17 0.672,-5.839 3.398,-7.179 10.859,-7.73 v -5.16 z m 784.919,4.609 v -5.289 h 39.71 v 5.289 c -9.91,0.961 -11.13,1.922 -11.41,12.371 l 0.07,27.36 h 10.6 c 10.72,0 16.42,-1.02 17.11,-11.739 h 4.62 v 31.641 h -4.62 c -0.55,-10.332 -3.4,-11.352 -15.08,-11.352 h -12.63 l 0.01,33.211 c 3.4,0.411 5.3,0.539 11.42,0.539 18.74,0 24.78,0.079 27.29,-14.941 h 4.76 l -1.5,23.5 h -70.34 v -5.16 c 6.93,-0.68 9.91,-1.09 10.86,-5.559 0.69,-2.992 0.82,-13.582 0.82,-17.39 l -0.02,-33.692 c 0,-2.578 -0.13,-14.117 -0.27,-16.418 -0.26,-10.449 -1.49,-11.41 -11.4,-12.371 z m -52.55,1.102 c 5.42,0.148 13.06,2.847 18.99,11.847 6.78,10.411 8.16,19.961 7.78,32.442 -0.38,12.371 -3.83,22.992 -10.88,30.512 -3.08,3.296 -9.16,8.148 -17.16,7.91 -7.99,0 -13.91,-5.043 -16.9,-8.422 -6.82,-7.731 -9.93,-18.469 -9.93,-30.84 0,-12.5 1.68,-21.988 8.77,-32.18 6.2,-8.832 13.91,-11.269 19.33,-11.269 z m 47.89,41.699 c 0,-33.148 -22.57,-50.531 -47.99,-50.531 -27.87,0 -49.68,20.101 -49.68,50.66 0,26.211 17.55,49.851 48.39,49.711 29.03,-0.141 49.28,-20.781 49.28,-49.84" /></g></g></svg>